Georama-Italic.ufo
<glyph name="exclam" format="2">
  <advance width="220.18200000000002"/>
  <unicode hex="0021"/>
  <outline>
    <contour>
      <point x="73.616" y="262.45" type="line"/>
      <point x="140.968" y="262.45" type="line"/>
      <point x="222.292" y="740.0" type="line"/>
      <point x="145.33" y="740.0" type="line"/>
    </contour>
    <contour>
      <point x="26.762000000000004" y="29.157999999999998" type="curve" smooth="yes"/>
      <point x="26.072000000000006" y="6.56"/>
      <point x="36.580000000000005" y="-3.1"/>
      <point x="65.098" y="-3.1" type="curve" smooth="yes"/>
      <point x="105.024" y="-3.1"/>
      <point x="118.506" y="19.724"/>
      <point x="120.57600000000001" y="60.208" type="curve" smooth="yes"/>
      <point x="121.266" y="83.22000000000001"/>
      <point x="109.92999999999999" y="92.46600000000001"/>
      <point x="81.94999999999999" y="92.46600000000001" type="curve" smooth="yes"/>
      <point x="42.604000000000006" y="92.46600000000001"/>
      <point x="28.832000000000004" y="69.39399999999999"/>
    </contour>
  </outline>
</glyph>
<glyph name="numbersign" format="2">
  <advance width="597.204"/>
  <unicode hex="0023"/>
  <outline>
    <contour>
      <point x="129.252" y="456.352" type="line"/>
      <point x="215.228" y="456.352" type="line"/>
      <point x="146.38800000000003" y="238.944" type="line"/>
      <point x="65.28399999999999" y="238.944" type="line"/>
      <point x="55.078" y="177.138" type="line"/>
      <point x="129.242" y="177.138" type="line"/>
      <point x="74.598" y="0.0" type="line"/>
      <point x="144.674" y="0.0" type="line"/>
      <point x="198.62800000000001" y="177.138" type="line"/>
      <point x="319.562" y="177.138" type="line"/>
      <point x="265.608" y="0.0" type="line"/>
      <point x="335.08400000000006" y="0.0" type="line"/>
      <point x="389.038" y="177.138" type="line"/>
      <point x="481.808" y="177.138" type="line"/>
      <point x="491.47600000000006" y="238.944" type="line"/>
      <point x="406.708" y="238.944" type="line"/>
      <point x="475.02400000000006" y="456.352" type="line"/>
      <point x="555.444" y="456.352" type="line"/>
      <point x="565.698" y="518.282" type="line"/>
      <point x="492.446" y="518.282" type="line"/>
      <point x="548.9180000000001" y="700.0" type="line"/>
      <point x="479.25600000000003" y="700.0" type="line"/>
      <point x="422.784" y="518.282" type="line"/>
      <point x="301.85" y="518.282" type="line"/>
      <point x="358.322" y="700.0" type="line"/>
      <point x="288.846" y="700.0" type="line"/>
      <point x="232.37400000000002" y="518.282" type="line"/>
      <point x="139.382" y="518.282" type="line"/>
    </contour>
    <contour>
      <point x="284.70400000000006" y="456.352" type="line"/>
      <point x="405.63800000000003" y="456.352" type="line"/>
      <point x="336.98400000000004" y="238.944" type="line"/>
      <point x="216.05" y="238.944" type="line"/>
    </contour>
  </outline>
</glyph>
<glyph name="dollar" format="2">
  <advance width="597.204"/>
  <unicode hex="0024"/>
  <outline>
    <contour>
      <point x="555.592" y="678.6519999999999" type="line"/>
      <point x="527.6800000000001" y="689.664"/>
      <point x="475.852" y="705.996"/>
      <point x="407.16" y="709.132" type="curve"/>
      <point x="422.56000000000006" y="804.628" type="line"/>
      <point x="359.92" y="804.628" type="line"/>
      <point x="343.824" y="706.0519999999999" type="line"/>
      <point x="223.644" y="695.624"/>
      <point x="117.128" y="622.2439999999999"/>
      <point x="117.128" y="504.264" type="curve" smooth="yes"/>
      <point x="117.128" y="314.112"/>
      <point x="430.76" y="319.668"/>
      <point x="430.76" y="186.63199999999998" type="curve" smooth="yes"/>
      <point x="430.76" y="101.976"/>
      <point x="335.524" y="58.208"/>
      <point x="253.14400000000003" y="58.208" type="curve" smooth="yes"/>
      <point x="177.316" y="58.208"/>
      <point x="92.976" y="79.25200000000001"/>
      <point x="51.136" y="97.05999999999999" type="curve"/>
      <point x="24.224000000000004" y="30.52" type="line"/>
      <point x="65.396" y="14.744"/>
      <point x="139.412" y="-6.368"/>
      <point x="218.024" y="-8.76" type="curve"/>
      <point x="203.024" y="-105.0" type="line"/>
      <point x="265.54" y="-105.0" type="line"/>
      <point x="280.54" y="-7.168" type="line"/>
      <point x="404.08" y="4.128"/>
      <point x="513.132" y="75.05199999999999"/>
      <point x="513.132" y="196.412" type="curve" smooth="yes"/>
      <point x="513.132" y="384.61199999999997"/>
      <point x="200.09199999999998" y="376.4239999999999"/>
      <point x="200.09199999999998" y="511.652" type="curve" smooth="yes"/>
      <point x="200.09199999999998" y="592.928"/>
      <point x="291.684" y="640.636"/>
      <point x="369.36" y="640.636" type="curve" smooth="yes"/>
      <point x="436.98" y="640.636"/>
      <point x="487.752" y="628.992"/>
      <point x="530.024" y="612.568" type="curve"/>
    </contour>
  </outline>
</glyph>
<glyph name="ampersand" format="2">
  <advance width="653.4519999999999"/>
  <unicode hex="0026"/>
  <outline>
    <contour>
      <point x="253.63800000000003" y="-10.0" type="curve" smooth="yes"/>
      <point x="412.636" y="-10.0"/>
      <point x="539.1139999999999" y="119.20799999999998"/>
      <point x="549.15" y="293.89000000000004" type="curve"/>
      <point x="485.022" y="294.44" type="line"/>
      <point x="484.13" y="158.88799999999998"/>
      <point x="373.414" y="54.466"/>
      <point x="262.96" y="54.466" type="curve" smooth="yes"/>
      <point x="161.798" y="54.466"/>
      <point x="109.048" y="101.432"/>
      <point x="109.048" y="172.60799999999998" type="curve" smooth="yes"/>
      <point x="109.048" y="294.27799999999996"/>
      <point x="214.726" y="364.872"/>
      <point x="331.3" y="364.872" type="curve" smooth="yes"/>
      <point x="351.604" y="364.872" type="line"/>
      <point x="362.208" y="415.602" type="line"/>
      <point x="350.138" y="416.84200000000004" type="line" smooth="yes"/>
      <point x="269.934" y="420.934"/>
      <point x="220.048" y="459.106"/>
      <point x="220.048" y="529.7639999999999" type="curve" smooth="yes"/>
      <point x="220.048" y="593.278"/>
      <point x="267.478" y="648.9320000000001"/>
      <point x="346.48" y="648.9320000000001" type="curve" smooth="yes"/>
      <point x="392.33000000000004" y="648.9320000000001"/>
      <point x="436.17400000000004" y="632.638"/>
      <point x="470.168" y="602.9780000000001" type="curve"/>
      <point x="509.598" y="654.3860000000001" type="line"/>
      <point x="466.71200000000005" y="689.5500000000001"/>
      <point x="406.00999999999993" y="710.0"/>
      <point x="340.19199999999995" y="710.0" type="curve" smooth="yes"/>
      <point x="215.69400000000002" y="710.0"/>
      <point x="142.616" y="629.986"/>
      <point x="142.616" y="538.7320000000001" type="curve" smooth="yes"/>
      <point x="142.616" y="468.29400000000004"/>
      <point x="185.198" y="416.38800000000003"/>
      <point x="250.934" y="397.58" type="curve"/>
      <point x="122.89400000000002" y="379.14"/>
      <point x="30.128" y="295.778"/>
      <point x="30.128" y="163.018" type="curve" smooth="yes"/>
      <point x="30.128" y="60.452000000000005"/>
      <point x="103.48599999999999" y="-10.0"/>
    </contour>
    <contour>
      <point x="374.94" y="238.02" type="line"/>
      <point x="379.45000000000005" y="274.146"/>
      <point x="402.882" y="290.032"/>
      <point x="433.09" y="290.032" type="curve" smooth="yes"/>
      <point x="486.6259999999999" y="290.032"/>
      <point x="518.608" y="270.392"/>
      <point x="572.922" y="270.392" type="curve" smooth="yes"/>
      <point x="631.13" y="270.392"/>
      <point x="669.404" y="317.442"/>
      <point x="668.852" y="376.836" type="curve"/>
      <point x="619.102" y="380.562" type="line"/>
      <point x="615.8320000000001" y="340.072"/>
      <point x="591.404" y="322.354"/>
      <point x="550.504" y="322.354" type="curve" smooth="yes"/>
      <point x="504.84" y="322.354"/>
      <point x="474.052" y="343.48199999999997"/>
      <point x="425.656" y="343.48199999999997" type="curve" smooth="yes"/>
      <point x="369.296" y="343.48199999999997"/>
      <point x="333.382" y="305.422"/>
      <point x="327.21599999999995" y="251.53800000000004" type="curve"/>
    </contour>
  </outline>
</glyph>
<glyph name="quotesingle" format="2">
  <advance width="166.65200000000002"/>
  <unicode hex="0027"/>
  <outline>
    <contour>
      <point x="76.088" y="427.0" type="line"/>
      <point x="137.386" y="427.0" type="line"/>
      <point x="186.246" y="700.0" type="line"/>
      <point x="114.406" y="700.0" type="line"/>
    </contour>
  </outline>
</glyph>
<glyph name="parenleft" format="2">
  <advance width="300.48199999999997"/>
  <unicode hex="0028"/>
  <outline>
    <contour>
      <point x="57.332" y="53.32000000000001" type="curve" smooth="yes"/>
      <point x="57.332" y="-87.80400000000002"/>
      <point x="98.922" y="-195.404"/>
      <point x="197.226" y="-220.0" type="curve"/>
      <point x="211.682" y="-159.17999999999998" type="line"/>
      <point x="153.714" y="-138.41600000000003"/>
      <point x="121.302" y="-60.211999999999996"/>
      <point x="121.302" y="56.577999999999996" type="curve" smooth="yes"/>
      <point x="121.302" y="254.626"/>
      <point x="209.45000000000002" y="643.9039999999999"/>
      <point x="344.276" y="686.5319999999999" type="curve"/>
      <point x="350.08" y="749.5859999999999" type="line"/>
      <point x="145.126" y="701.396"/>
      <point x="57.332" y="289.99600000000004"/>
    </contour>
  </outline>
</glyph>
<glyph name="parenright" format="2">
  <advance width="300.48199999999997"/>
  <unicode hex="0029"/>
  <outline>
    <contour>
      <point x="240.44" y="476.128" type="curve" smooth="yes"/>
      <point x="240.44" y="619.528"/>
      <point x="198.712" y="725.404"/>
      <point x="100.132" y="750.0" type="curve"/>
      <point x="86.504" y="686.766" type="line"/>
      <point x="148.06" y="662.9659999999999"/>
      <point x="176.46999999999997" y="585.728"/>
      <point x="176.46999999999997" y="477.63200000000006" type="curve" smooth="yes"/>
      <point x="176.46999999999997" y="281.516"/>
      <point x="89.83999999999999" y="-112.938"/>
      <point x="-47.47" y="-156.808" type="curve"/>
      <point x="-52.86" y="-220.0" type="line"/>
      <point x="141.054" y="-170.266"/>
      <point x="240.44" y="227.99599999999998"/>
    </contour>
  </outline>
</glyph>
<glyph name="asterisk" format="2">
  <advance width="320.104"/>
  <unicode hex="002A"/>
  <outline>
    <contour>
      <point x="104.016" y="364.77000000000004" type="line"/>
      <point x="191.158" y="472.03400000000005" type="line"/>
      <point x="242.88799999999998" y="365.184" type="line"/>
      <point x="277.858" y="388.27199999999993" type="line"/>
      <point x="232.748" y="504.14599999999996" type="line"/>
      <point x="347.08200000000005" y="553.396" type="line"/>
      <point x="340.692" y="591.8739999999999" type="line"/>
      <point x="227.55999999999997" y="553.574" type="line"/>
      <point x="245.47" y="690.0459999999999" type="line"/>
      <point x="205.97799999999998" y="690.0459999999999" type="line"/>
      <point x="180.50400000000002" y="553.9879999999999" type="line"/>
      <point x="79.264" y="592.288" type="line"/>
      <point x="61.338" y="554.224" type="line"/>
      <point x="158.686" y="504.974" type="line"/>
      <point x="75.854" y="388.82399999999996" type="line"/>
    </contour>
  </outline>
</glyph>
<glyph name="plus" format="2">
  <advance width="446.062"/>
  <unicode hex="002B"/>
  <outline>
    <contour>
      <point x="160.14200000000002" y="90.786" type="line"/>
      <point x="228.404" y="90.786" type="line"/>
      <point x="255.98200000000003" y="266.256" type="line"/>
      <point x="395.85799999999995" y="266.256" type="line"/>
      <point x="406.79400000000004" y="334.27" type="line"/>
      <point x="266.918" y="334.27" type="line"/>
      <point x="294.89599999999996" y="510.03" type="line"/>
      <point x="226.882" y="510.03" type="line"/>
      <point x="198.656" y="334.27" type="line"/>
      <point x="58.738" y="334.27" type="line"/>
      <point x="47.802" y="266.256" type="line"/>
      <point x="187.96800000000002" y="266.256" type="line"/>
    </contour>
  </outline>
</glyph>
<glyph name="comma" format="2">
  <advance width="177.944"/>
  <unicode hex="002C"/>
  <outline>
    <contour>
      <point x="18.956" y="56.214000000000006" type="line"/>
      <point x="20.163999999999998" y="38.6"/>
      <point x="19.476" y="21.102"/>
      <point x="18.422" y="7.303999999999999" type="curve" smooth="yes"/>
      <point x="15.012000000000002" y="-55.732"/>
      <point x="-21.893999999999995" y="-138.094"/>
      <point x="-72.37599999999999" y="-176.514" type="curve"/>
      <point x="-20.619999999999997" y="-196.964" type="line"/>
      <point x="54.31999999999999" y="-142.542"/>
      <point x="93.96000000000001" y="-43.914"/>
      <point x="93.96000000000001" y="24.613999999999997" type="curve" smooth="yes"/>
      <point x="93.96000000000001" y="37.455999999999996"/>
      <point x="92.822" y="49.422"/>
      <point x="90.24200000000002" y="61.906000000000006" type="curve"/>
    </contour>
  </outline>
</glyph>
<glyph name="hyphen" format="2">
  <advance width="312.396"/>
  <unicode hex="002D"/>
  <outline>
    <contour>
      <point x="36.34" y="245.18200000000002" type="line"/>
      <point x="266.294" y="245.18200000000002" type="line"/>
      <point x="278.388" y="316.448" type="line"/>
      <point x="48.434000000000005" y="316.448" type="line"/>
    </contour>
  </outline>
</glyph>
<glyph name="period" format="2">
  <advance width="179.556"/>
  <unicode hex="002E"/>
  <outline>
    <contour>
      <point x="6.366" y="29.716" type="curve" smooth="yes"/>
      <point x="5.676" y="6.9319999999999995"/>
      <point x="15.998000000000003" y="-2.542"/>
      <point x="44.702" y="-2.542" type="curve" smooth="yes"/>
      <point x="84.62800000000001" y="-2.542"/>
      <point x="97.924" y="20.282"/>
      <point x="99.99400000000001" y="61.138000000000005" type="curve" smooth="yes"/>
      <point x="100.68400000000001" y="83.964"/>
      <point x="89.53399999999999" y="93.024"/>
      <point x="61.554" y="93.024" type="curve" smooth="yes"/>
      <point x="22.022" y="93.024"/>
      <point x="8.436" y="69.952"/>
    </contour>
  </outline>
</glyph>
<glyph name="slash" format="2">
  <advance width="342.16"/>
  <unicode hex="002F"/>
  <outline>
    <contour>
      <point x="-70.30600000000001" y="-210.0" type="line"/>
      <point x="-4.2059999999999995" y="-210.0" type="line"/>
      <point x="409.466" y="740.0" type="line"/>
      <point x="342.87" y="740.0" type="line"/>
    </contour>
  </outline>
</glyph>
<glyph name="zero" format="2">
  <advance width="597.948"/>
  <unicode hex="0030"/>
  <outline>
    <contour>
      <point x="267.81600000000003" y="-11.24" type="curve" smooth="yes"/>
      <point x="471.59600000000006" y="-11.24"/>
      <point x="578.38" y="239.96799999999996"/>
      <point x="578.38" y="464.34000000000003" type="curve" smooth="yes"/>
      <point x="578.38" y="625.564"/>
      <point x="509.264" y="710.62"/>
      <point x="353.52400000000006" y="710.62" type="curve" smooth="yes"/>
      <point x="144.012" y="710.62"/>
      <point x="42.492" y="456.616"/>
      <point x="42.492" y="235.96400000000003" type="curve" smooth="yes"/>
      <point x="42.492" y="75.36"/>
      <point x="112.38" y="-11.24"/>
    </contour>
    <contour>
      <point x="272.776" y="57.98" type="curve" smooth="yes"/>
      <point x="167.084" y="57.98"/>
      <point x="123.88400000000001" y="123.7"/>
      <point x="124.11200000000001" y="236.976" type="curve" smooth="yes"/>
      <point x="124.56799999999998" y="415.59599999999995"/>
      <point x="195.656" y="642.02"/>
      <point x="348.56399999999996" y="642.02" type="curve" smooth="yes"/>
      <point x="454.56" y="642.02"/>
      <point x="496.98800000000006" y="577.8439999999999"/>
      <point x="496.75999999999993" y="464.56800000000004" type="curve" smooth="yes"/>
      <point x="496.30400000000003" y="287.34000000000003"/>
      <point x="424.29200000000003" y="57.98"/>
    </contour>
  </outline>
</glyph>
<glyph name="one" format="2">
  <advance width="597.204"/>
  <unicode hex="0031"/>
  <outline>
    <contour>
      <point x="45.768" y="0.0" type="line"/>
      <point x="505.896" y="0.0" type="line"/>
      <point x="516.894" y="68.084" type="line"/>
      <point x="339.652" y="68.084" type="line"/>
      <point x="441.074" y="702.76" type="line"/>
      <point x="400.87199999999996" y="702.76" type="line"/>
      <point x="118.384" y="565.8280000000001" type="line"/>
      <point x="128.588" y="495.482" type="line"/>
      <point x="345.54" y="604.676" type="line"/>
      <point x="260.35400000000004" y="68.084" type="line"/>
      <point x="56.580000000000005" y="68.084" type="line"/>
    </contour>
  </outline>
</glyph>
<glyph name="two" format="2">
  <advance width="597.948"/>
  <unicode hex="0032"/>
  <outline>
    <contour>
      <point x="46.024" y="54.81999999999999" type="curve"/>
      <point x="39.660000000000004" y="0.0" type="line"/>
      <point x="494.052" y="0.0" type="line"/>
      <point x="504.65600000000006" y="66.74000000000001" type="line"/>
      <point x="167.45600000000002" y="66.74000000000001" type="line"/>
      <point x="368.384" y="228.084"/>
      <point x="507.832" y="379.804"/>
      <point x="507.832" y="554.0680000000001" type="curve" smooth="yes"/>
      <point x="507.832" y="654.0919999999999"/>
      <point x="434.176" y="710.0"/>
      <point x="333.05199999999996" y="710.0" type="curve" smooth="yes"/>
      <point x="262.58799999999997" y="710.0"/>
      <point x="185.492" y="686.748"/>
      <point x="129.052" y="647.736" type="curve"/>
      <point x="150.072" y="586.8560000000001" type="line"/>
      <point x="202.23600000000005" y="619.1360000000001"/>
      <point x="257.692" y="637.9839999999999"/>
      <point x="309.124" y="637.9839999999999" type="curve" smooth="yes"/>
      <point x="378.168" y="637.9839999999999"/>
      <point x="426.212" y="598.78"/>
      <point x="426.212" y="533.2639999999999" type="curve" smooth="yes"/>
      <point x="425.984" y="389.71599999999995"/>
      <point x="270.15199999999993" y="217.36"/>
    </contour>
  </outline>
</glyph>
<glyph name="three" format="2">
  <advance width="598.1"/>
  <unicode hex="0033"/>
  <outline>
    <contour>
      <point x="7.440000000000001" y="50.03999999999999" type="line"/>
      <point x="65.68" y="10.14"/>
      <point x="140.92" y="-10.0"/>
      <point x="234.82000000000002" y="-10.0" type="curve" smooth="yes"/>
      <point x="385.47999999999996" y="-10.0"/>
      <point x="515.86" y="70.08000000000001"/>
      <point x="515.86" y="222.72" type="curve" smooth="yes"/>
      <point x="515.86" y="312.38"/>
      <point x="471.58" y="356.52000000000004"/>
      <point x="406.54" y="371.62" type="curve"/>
      <point x="476.25999999999993" y="394.44"/>
      <point x="535.06" y="454.58"/>
      <point x="535.06" y="551.2399999999999" type="curve" smooth="yes"/>
      <point x="535.06" y="648.0999999999999"/>
      <point x="463.2" y="710.0"/>
      <point x="326.79999999999995" y="710.0" type="curve" smooth="yes"/>
      <point x="262.92" y="710.0"/>
      <point x="185.62" y="699.1400000000001"/>
      <point x="129.76" y="665.9399999999999" type="curve"/>
      <point x="148.67999999999998" y="605.3000000000001" type="line"/>
      <point x="198.72" y="631.0600000000001"/>
      <point x="255.86" y="641.4"/>
      <point x="310.29999999999995" y="641.4" type="curve" smooth="yes"/>
      <point x="400.79999999999995" y="641.4"/>
      <point x="455.92" y="599.94"/>
      <point x="455.92" y="530.3" type="curve" smooth="yes"/>
      <point x="455.92" y="444.91999999999996"/>
      <point x="392.4800000000001" y="393.5"/>
      <point x="300.4200000000001" y="393.5" type="curve" smooth="yes"/>
      <point x="192.82000000000002" y="393.5" type="line"/>
      <point x="182.38" y="333.34" type="line"/>
      <point x="299.56000000000006" y="333.34" type="line" smooth="yes"/>
      <point x="390.88" y="333.34"/>
      <point x="435.96" y="296.91999999999996"/>
      <point x="435.96" y="219.72000000000003" type="curve" smooth="yes"/>
      <point x="435.96" y="118.0"/>
      <point x="356.93999999999994" y="59.22"/>
      <point x="239.68" y="59.22" type="curve" smooth="yes"/>
      <point x="157.08" y="59.22"/>
      <point x="93.08000000000001" y="76.11999999999999"/>
      <point x="41.279999999999994" y="108.68" type="curve"/>
    </contour>
  </outline>
</glyph>
<glyph name="four" format="2">
  <advance width="598.1"/>
  <unicode hex="0034"/>
  <outline>
    <contour>
      <point x="23.879999999999995" y="161.66" type="line"/>
      <point x="349.82" y="161.66" type="line"/>
      <point x="324.02" y="-1.7600000000000002" type="line"/>
      <point x="405.64" y="-1.7600000000000002" type="line"/>
      <point x="431.05999999999995" y="161.66" type="line"/>
      <point x="543.1000000000001" y="161.66" type="line"/>
      <point x="552.9200000000001" y="225.68" type="line"/>
      <point x="441.49999999999994" y="225.68" type="line"/>
      <point x="516.8800000000001" y="698.2399999999999" type="line"/>
      <point x="450.32" y="702.76" type="line"/>
      <point x="29.939999999999998" y="218.33999999999997" type="line"/>
    </contour>
    <contour>
      <point x="111.74000000000001" y="225.68" type="line"/>
      <point x="419.86" y="583.5400000000001" type="line"/>
      <point x="361.5" y="225.68" type="line"/>
    </contour>
  </outline>
</glyph>
<glyph name="five" format="2">
  <advance width="597.948"/>
  <unicode hex="0035"/>
  <outline>
    <contour>
      <point x="23.556" y="50.40800000000001" type="line"/>
      <point x="76.21200000000002" y="10.66"/>
      <point x="140.70399999999998" y="-10.0"/>
      <point x="233.312" y="-10.0" type="curve" smooth="yes"/>
      <point x="445.192" y="-10.0"/>
      <point x="522.948" y="126.31999999999998"/>
      <point x="522.948" y="252.036" type="curve" smooth="yes"/>
      <point x="522.948" y="353.324"/>
      <point x="467.39200000000005" y="407.10799999999995"/>
      <point x="347.25600000000003" y="407.108" type="curve" smooth="yes"/>
      <point x="190.24" y="407.10800000000006" type="line"/>
      <point x="245.5" y="629.312" type="line"/>
      <point x="547.1400000000001" y="629.312" type="line"/>
      <point x="558.3520000000002" y="700.0" type="line"/>
      <point x="197.944" y="700.0" type="line"/>
      <point x="106.93599999999999" y="352.848" type="line"/>
      <point x="114.392" y="342.0" type="line"/>
      <point x="313.988" y="342.0" type="line" smooth="yes"/>
      <point x="405.71599999999995" y="342.0"/>
      <point x="442.88399999999996" y="307.376"/>
      <point x="442.88399999999996" y="238.04000000000002" type="curve" smooth="yes"/>
      <point x="442.88399999999996" y="159.05599999999998"/>
      <point x="383.42" y="58.6"/>
      <point x="237.312" y="58.6" type="curve" smooth="yes"/>
      <point x="154.22" y="58.6"/>
      <point x="96.58800000000001" y="83.816"/>
      <point x="53.903999999999996" y="112.91999999999997" type="curve"/>
    </contour>
  </outline>
</glyph>
<glyph name="six" format="2">
  <advance width="598.1"/>
  <unicode hex="0036"/>
  <note>
14
</note>
  <outline>
    <contour>
      <point x="300.54" y="-10.0" type="curve" smooth="yes"/>
      <point x="442.78000000000003" y="-10.0"/>
      <point x="551.2399999999999" y="78.94"/>
      <point x="551.2399999999999" y="240.78" type="curve" smooth="yes"/>
      <point x="551.2399999999999" y="366.44"/>
      <point x="475.28" y="430.74"/>
      <point x="348.9" y="430.74" type="curve" smooth="yes"/>
      <point x="271.34" y="430.74"/>
      <point x="184.84" y="405.32"/>
      <point x="127.94" y="343.24" type="curve"/>
      <point x="123.94" y="276.9" type="line"/>
      <point x="172.02" y="334.91999999999996"/>
      <point x="250.66000000000003" y="365.24"/>
      <point x="328.44" y="365.24" type="curve" smooth="yes"/>
      <point x="430.6" y="365.24"/>
      <point x="474.58" y="318.54"/>
      <point x="474.58" y="230.72000000000003" type="curve" smooth="yes"/>
      <point x="474.58" y="126.14"/>
      <point x="406.08" y="57.36"/>
      <point x="304.88000000000005" y="57.36" type="curve" smooth="yes"/>
      <point x="191.78" y="57.36"/>
      <point x="130.18" y="119.48"/>
      <point x="130.18" y="248.44" type="curve" smooth="yes"/>
      <point x="130.18" y="376.92"/>
      <point x="164.74" y="486.90000000000003"/>
      <point x="229.29999999999998" y="555.22" type="curve" smooth="yes"/>
      <point x="279.72" y="609.4"/>
      <point x="346.28" y="640.16"/>
      <point x="427.94000000000005" y="640.16" type="curve" smooth="yes"/>
      <point x="474.88" y="640.16"/>
      <point x="523.36" y="630.16"/>
      <point x="564.8799999999999" y="610.26" type="curve"/>
      <point x="593.4799999999999" y="673.14" type="line"/>
      <point x="551.58" y="695.28"/>
      <point x="491.52" y="710.0"/>
      <point x="422.74" y="710.0" type="curve" smooth="yes"/>
      <point x="194.85999999999999" y="710.0"/>
      <point x="54.14" y="527.18"/>
      <point x="54.14" y="245.92" type="curve" smooth="yes"/>
      <point x="54.14" y="73.76"/>
      <point x="142.82" y="-10.0"/>
    </contour>
  </outline>
</glyph>
<glyph name="seven" format="2">
  <advance width="597.204"/>
  <unicode hex="0037"/>
  <note>
9
</note>
  <outline>
    <contour>
      <point x="145.042" y="0.0" type="curve"/>
      <point x="228.75799999999998" y="0.0" type="line"/>
      <point x="250.454" y="126.70200000000001"/>
      <point x="297.20799999999997" y="223.018"/>
      <point x="417.55400000000003" y="405.474" type="curve" smooth="yes"/>
      <point x="574.026" y="642.61" type="line"/>
      <point x="583.412" y="700.0" type="line"/>
      <point x="119.70599999999999" y="700.0" type="line"/>
      <point x="108.52199999999999" y="627.982" type="line"/>
      <point x="480.318" y="627.982" type="line"/>
      <point x="337.38800000000003" y="418.79" type="line" smooth="yes"/>
      <point x="222.49599999999998" y="251.018"/>
      <point x="168.45" y="146.43"/>
    </contour>
  </outline>
</glyph>
<glyph name="eight" format="2">
  <advance width="598.1"/>
  <unicode hex="0038"/>
  <outline>
    <contour>
      <point x="272.36" y="-10.0" type="curve" smooth="yes"/>
      <point x="429.94" y="-10.0"/>
      <point x="540.3799999999999" y="60.76"/>
      <point x="540.3799999999999" y="202.82" type="curve" smooth="yes"/>
      <point x="540.3799999999999" y="433.28"/>
      <point x="184.89999999999998" y="353.52"/>
      <point x="184.89999999999998" y="530.18" type="curve" smooth="yes"/>
      <point x="184.89999999999998" y="602.6199999999999"/>
      <point x="253.38" y="644.5"/>
      <point x="350.82" y="644.5" type="curve" smooth="yes"/>
      <point x="450.02" y="644.5"/>
      <point x="490.79999999999995" y="601.04"/>
      <point x="490.79999999999995" y="540.9200000000001" type="curve" smooth="yes"/>
      <point x="490.79999999999995" y="460.24"/>
      <point x="442.58" y="413.88"/>
      <point x="363.9" y="373.8" type="curve"/>
      <point x="417.62000000000006" y="348.06" type="line"/>
      <point x="504.18" y="392.09999999999997"/>
      <point x="566.8399999999999" y="450.52"/>
      <point x="566.8399999999999" y="552.7" type="curve" smooth="yes"/>
      <point x="566.8399999999999" y="640.5600000000001"/>
      <point x="505.79999999999995" y="710.0"/>
      <point x="355.16" y="710.0" type="curve" smooth="yes"/>
      <point x="213.1" y="710.0"/>
      <point x="107.0" y="646.38"/>
      <point x="107.0" y="519.6" type="curve" smooth="yes"/>
      <point x="107.0" y="290.82"/>
      <point x="458.76" y="382.56"/>
      <point x="458.76" y="192.52" type="curve" smooth="yes"/>
      <point x="458.76" y="99.04"/>
      <point x="385.7" y="52.4"/>
      <point x="279.56" y="52.4" type="curve" smooth="yes"/>
      <point x="164.5" y="52.4"/>
      <point x="106.44" y="102.99999999999999"/>
      <point x="106.44" y="178.64" type="curve" smooth="yes"/>
      <point x="106.44" y="267.14000000000004"/>
      <point x="171.22" y="326.34000000000003"/>
      <point x="263.75999999999993" y="357.56" type="curve"/>
      <point x="207.8" y="387.02000000000004" type="line"/>
      <point x="103.0" y="353.04"/>
      <point x="26.06" y="272.04"/>
      <point x="26.06" y="166.82000000000002" type="curve" smooth="yes"/>
      <point x="26.06" y="62.959999999999994"/>
      <point x="104.0" y="-10.0"/>
    </contour>
  </outline>
</glyph>
<glyph name="nine" format="2">
  <advance width="598.1"/>
  <unicode hex="0039"/>
  <outline>
    <contour>
      <point x="322.56" y="710.0" type="curve" smooth="yes"/>
      <point x="180.32" y="710.0"/>
      <point x="71.86" y="621.06"/>
      <point x="71.86" y="459.21999999999997" type="curve" smooth="yes"/>
      <point x="71.86" y="333.56"/>
      <point x="147.82" y="269.26"/>
      <point x="274.2" y="269.26" type="curve" smooth="yes"/>
      <point x="351.76" y="269.26"/>
      <point x="438.26" y="294.68"/>
      <point x="495.16" y="356.76" type="curve"/>
      <point x="499.16" y="423.1" type="line"/>
      <point x="451.08" y="365.08"/>
      <point x="372.44" y="334.76"/>
      <point x="294.66" y="334.76" type="curve" smooth="yes"/>
      <point x="192.5" y="334.76"/>
      <point x="148.51999999999998" y="381.46"/>
      <point x="148.51999999999998" y="469.28" type="curve" smooth="yes"/>
      <point x="148.51999999999998" y="573.86"/>
      <point x="217.01999999999998" y="642.64"/>
      <point x="318.22" y="642.64" type="curve" smooth="yes"/>
      <point x="431.31999999999994" y="642.64"/>
      <point x="492.9200000000001" y="580.52"/>
      <point x="492.9200000000001" y="451.56000000000006" type="curve" smooth="yes"/>
      <point x="492.9200000000001" y="323.08"/>
      <point x="460.21999999999997" y="211.23999999999998"/>
      <point x="395.66" y="142.92" type="curve" smooth="yes"/>
      <point x="345.24" y="88.74"/>
      <point x="278.67999999999995" y="57.98"/>
      <point x="197.02" y="57.98" type="curve" smooth="yes"/>
      <point x="150.08" y="57.98"/>
      <point x="99.74" y="69.84"/>
      <point x="58.22" y="89.74" type="curve"/>
      <point x="29.62" y="26.86" type="line"/>
      <point x="71.52000000000001" y="4.720000000000001"/>
      <point x="131.58" y="-10.0"/>
      <point x="200.35999999999999" y="-10.0" type="curve" smooth="yes"/>
      <point x="428.24" y="-10.0"/>
      <point x="568.96" y="172.82"/>
      <point x="568.96" y="454.08" type="curve" smooth="yes"/>
      <point x="568.96" y="626.24"/>
      <point x="480.28000000000003" y="710.0"/>
    </contour>
  </outline>
</glyph>
<glyph name="less" format="2">
  <advance width="445.822"/>
  <unicode hex="003C"/>
  <outline>
    <contour>
      <point x="369.246" y="78.582" type="line"/>
      <point x="379.624" y="146.31" type="line"/>
      <point x="116.56" y="296.874" type="line"/>
      <point x="427.92600000000004" y="447.91400000000004" type="line"/>
      <point x="438.30400000000003" y="516.808" type="line"/>
      <point x="54.916" y="334.5079999999999" type="line"/>
      <point x="43.44200000000001" y="262.384" type="line"/>
    </contour>
  </outline>
</glyph>
<glyph name="equal" format="2">
  <advance width="438.788"/>
  <unicode hex="003D"/>
  <outline>
    <contour>
      <point x="381.36999999999995" y="224.77599999999998" type="line"/>
      <point x="41.870000000000005" y="224.77599999999998" type="line"/>
      <point x="31.306000000000004" y="156.34799999999998" type="line"/>
      <point x="370.806" y="156.34799999999998" type="line"/>
    </contour>
    <contour>
      <point x="414.3" y="439.78" type="line"/>
      <point x="74.86200000000001" y="439.78" type="line"/>
      <point x="64.236" y="371.35200000000003" type="line"/>
      <point x="403.736" y="371.35200000000003" type="line"/>
    </contour>
  </outline>
</glyph>
<glyph name="greater" format="2">
  <advance width="445.822"/>
  <unicode hex="003E"/>
  <outline>
    <contour>
      <point x="398.4" y="261.142" type="line"/>
      <point x="409.62600000000003" y="331.406" type="line"/>
      <point x="83.842" y="514.74" type="line"/>
      <point x="73.216" y="448.19" type="line"/>
      <point x="337.004" y="297.288" type="line"/>
      <point x="25.576" y="147.0" type="line"/>
      <point x="14.659999999999998" y="77.754" type="line"/>
    </contour>
  </outline>
</glyph>
<glyph name="question" format="2">
  <advance width="423.53999999999996"/>
  <unicode hex="003F"/>
  <outline>
    <contour>
      <point x="155.44000000000003" y="261.932" type="line"/>
      <point x="222.668" y="261.932" type="line"/>
      <point x="234.14399999999998" y="331.164" type="line"/>
      <point x="362.052" y="395.38800000000003"/>
      <point x="446.432" y="460.408"/>
      <point x="446.432" y="598.332" type="curve" smooth="yes"/>
      <point x="446.432" y="702.46"/>
      <point x="368.644" y="750.0"/>
      <point x="278.14000000000004" y="750.0" type="curve" smooth="yes"/>
      <point x="211.736" y="750.0"/>
      <point x="134.22" y="726.048"/>
      <point x="75.076" y="685.0" type="curve"/>
      <point x="90.84" y="621.3520000000001" type="line"/>
      <point x="146.41600000000003" y="656.288"/>
      <point x="203.95600000000002" y="675.752"/>
      <point x="259.26800000000003" y="675.752" type="curve" smooth="yes"/>
      <point x="315.944" y="675.752"/>
      <point x="364.88" y="652.764"/>
      <point x="364.88" y="580.644" type="curve" smooth="yes"/>
      <point x="364.88" y="490.47600000000006"/>
      <point x="317.976" y="430.55199999999996"/>
      <point x="171.024" y="370.492" type="curve"/>
    </contour>
    <contour>
      <point x="110.46400000000001" y="28.268" type="curve" smooth="yes"/>
      <point x="110.36" y="6.063999999999999"/>
      <point x="120.372" y="-3.1"/>
      <point x="148.428" y="-3.1" type="curve" smooth="yes"/>
      <point x="188.11200000000002" y="-3.1"/>
      <point x="203.90400000000002" y="18.98"/>
      <point x="204.21600000000004" y="60.263999999999996" type="curve" smooth="yes"/>
      <point x="204.32" y="83.22000000000001"/>
      <point x="193.35600000000002" y="92.156"/>
      <point x="166.148" y="92.156" type="curve" smooth="yes"/>
      <point x="126.79600000000002" y="92.156"/>
      <point x="110.77600000000001" y="69.704"/>
    </contour>
  </outline>
</glyph>
<glyph name="at" format="2">
  <advance width="724.86"/>
  <unicode hex="0040"/>
  <outline>
    <contour>
      <point x="294.1" y="-121.62" type="curve" smooth="yes"/>
      <point x="361.9" y="-121.62"/>
      <point x="433.14" y="-99.96"/>
      <point x="489.14" y="-58.26" type="curve"/>
      <point x="476.52" y="-26.56" type="line"/>
      <point x="422.65999999999997" y="-63.26"/>
      <point x="360.52000000000004" y="-82.3"/>
      <point x="297.72" y="-82.3" type="curve" smooth="yes"/>
      <point x="158.14" y="-82.3"/>
      <point x="71.46000000000001" y="1.9800000000000009"/>
      <point x="71.46000000000001" y="162.8" type="curve" smooth="yes"/>
      <point x="71.46000000000001" y="435.22"/>
      <point x="224.5" y="680.9599999999999"/>
      <point x="442.08000000000004" y="680.9599999999999" type="curve" smooth="yes"/>
      <point x="586.2" y="680.9599999999999"/>
      <point x="668.92" y="607.38"/>
      <point x="668.92" y="454.94" type="curve" smooth="yes"/>
      <point x="668.92" y="298.04"/>
      <point x="605.14" y="112.94"/>
      <point x="531.28" y="112.94" type="curve" smooth="yes"/>
      <point x="485.14000000000004" y="112.94"/>
      <point x="487.18" y="172.68"/>
      <point x="499.8" y="228.2" type="curve" smooth="yes"/>
      <point x="564.42" y="516.9" type="line"/>
      <point x="517.08" y="535.2399999999999"/>
      <point x="471.82" y="544.5799999999999"/>
      <point x="429.03999999999996" y="544.5799999999999" type="curve" smooth="yes"/>
      <point x="282.1" y="544.5799999999999"/>
      <point x="175.96" y="351.24"/>
      <point x="175.96" y="184.82" type="curve" smooth="yes"/>
      <point x="175.96" y="106.9"/>
      <point x="214.92" y="67.56"/>
      <point x="282.74" y="67.56" type="curve" smooth="yes"/>
      <point x="342.08000000000004" y="67.56"/>
      <point x="402.21999999999997" y="103.6"/>
      <point x="440.46" y="165.44" type="curve"/>
      <point x="442.52000000000004" y="109.3"/>
      <point x="461.15999999999997" y="64.7"/>
      <point x="520.26" y="64.7" type="curve" smooth="yes"/>
      <point x="631.82" y="64.7"/>
      <point x="711.1" y="276.1"/>
      <point x="711.1" y="461.03999999999996" type="curve" smooth="yes"/>
      <point x="711.1" y="628.64"/>
      <point x="609.3599999999999" y="721.04"/>
      <point x="448.9" y="721.04" type="curve" smooth="yes"/>
      <point x="201.0" y="721.04"/>
      <point x="29.040000000000003" y="463.62"/>
      <point x="29.040000000000003" y="153.7" type="curve" smooth="yes"/>
      <point x="29.040000000000003" y="-20.7"/>
      <point x="127.54" y="-121.62"/>
    </contour>
    <contour>
      <point x="312.78000000000003" y="128.96" type="curve" smooth="yes"/>
      <point x="269.08" y="128.96"/>
      <point x="246.42" y="154.38"/>
      <point x="246.42" y="202.84" type="curve" smooth="yes"/>
      <point x="246.42" y="328.88000000000005"/>
      <point x="332.44" y="491.0"/>
      <point x="419.08000000000004" y="491.0" type="curve" smooth="yes"/>
      <point x="445.36" y="491.0"/>
      <point x="466.78000000000003" y="487.0"/>
      <point x="492.58" y="477.86" type="curve"/>
      <point x="439.3" y="242.51999999999998" type="line" smooth="yes"/>
      <point x="414.12" y="174.07999999999998"/>
      <point x="360.0" y="128.96"/>
    </contour>
  </outline>
</glyph>
<glyph name="A" format="2">
  <advance width="565.1199999999999"/>
  <unicode hex="0041"/>
  <anchor x="238.17999999999998" y="0.0" name="bottom"/>
  <anchor x="508.08000000000004" y="0.0" name="ogonek"/>
  <anchor x="347.56" y="700.0" name="top"/>
  <outline>
    <contour>
      <point x="-30.959999999999997" y="0.0" type="line"/>
      <point x="57.0" y="0.0" type="line"/>
      <point x="142.06" y="182.56" type="line"/>
      <point x="393.03999999999996" y="182.56" type="line"/>
      <point x="420.5" y="0.0" type="line"/>
      <point x="508.08000000000004" y="0.0" type="line"/>
      <point x="397.47999999999996" y="708.14" type="line"/>
      <point x="299.4" y="708.14" type="line"/>
    </contour>
    <contour>
      <point x="168.42000000000002" y="249.3" type="line"/>
      <point x="336.74" y="627.8399999999999" type="line"/>
      <point x="388.18" y="249.3" type="line"/>
    </contour>
  </outline>
</glyph>
<glyph name="B" format="2">
  <advance width="579.01"/>
  <unicode hex="0042"/>
  <outline>
    <contour>
      <point x="25.454000000000004" y="0.4460000000000006" type="line"/>
      <point x="128.436" y="-7.090000000000001"/>
      <point x="173.358" y="-10.0"/>
      <point x="248.232" y="-10.0" type="curve" smooth="yes"/>
      <point x="404.986" y="-10.0"/>
      <point x="536.8860000000001" y="77.01"/>
      <point x="536.8860000000001" y="235.192" type="curve" smooth="yes"/>
      <point x="536.8860000000001" y="309.32000000000005"/>
      <point x="493.196" y="357.52599999999995"/>
      <point x="431.848" y="370.488" type="curve"/>
      <point x="505.346" y="399.27599999999995"/>
      <point x="559.1360000000001" y="483.766"/>
      <point x="559.1360000000001" y="572.9000000000001" type="curve" smooth="yes"/>
      <point x="559.1360000000001" y="665.714"/>
      <point x="495.264" y="710.0"/>
      <point x="349.8980000000001" y="710.0" type="curve" smooth="yes"/>
      <point x="301.31" y="710.0"/>
      <point x="239.366" y="707.0140000000001"/>
      <point x="136.254" y="698.726" type="curve"/>
    </contour>
    <contour>
      <point x="167.624" y="387.856" type="line"/>
      <point x="206.546" y="636.418" type="line"/>
      <point x="255.19000000000003" y="640.3360000000001"/>
      <point x="294.78600000000006" y="643.578"/>
      <point x="340.334" y="643.578" type="curve" smooth="yes"/>
      <point x="435.10600000000005" y="643.578"/>
      <point x="478.85200000000003" y="619.808"/>
      <point x="478.85200000000003" y="550.96" type="curve" smooth="yes"/>
      <point x="478.85200000000003" y="463.95"/>
      <point x="407.79999999999995" y="387.856"/>
      <point x="337.622" y="387.856" type="curve" smooth="yes"/>
    </contour>
    <contour>
      <point x="157.43200000000002" y="326.6" type="line"/>
      <point x="335.374" y="326.6" type="line" smooth="yes"/>
      <point x="394.30400000000003" y="326.6"/>
      <point x="454.708" y="299.358"/>
      <point x="454.708" y="228.22400000000002" type="curve" smooth="yes"/>
      <point x="454.708" y="117.16199999999999"/>
      <point x="368.0040000000001" y="56.244"/>
      <point x="255.758" y="56.244" type="curve" smooth="yes"/>
      <point x="205.69000000000003" y="56.244"/>
      <point x="168.51999999999998" y="59.114"/>
      <point x="115.592" y="62.556000000000004" type="curve"/>
    </contour>
  </outline>
</glyph>
<glyph name="C" format="2">
  <advance width="561.436"/>
  <unicode hex="0043"/>
  <anchor x="304.55600000000004" y="0.0" name="bottom"/>
  <anchor x="402.97200000000004" y="700.0" name="top"/>
  <outline>
    <contour>
      <point x="322.48800000000006" y="-10.0" type="curve" smooth="yes"/>
      <point x="390.86800000000005" y="-10.0"/>
      <point x="448.564" y="-1.7719999999999998"/>
      <point x="499.156" y="14.456" type="curve"/>
      <point x="492.144" y="81.056" type="line"/>
      <point x="447.28400000000005" y="68.46"/>
      <point x="395.156" y="60.46"/>
      <point x="336.812" y="60.46" type="curve" smooth="yes"/>
      <point x="203.88" y="60.46"/>
      <point x="129.66" y="115.49199999999999"/>
      <point x="129.66" y="242.05599999999998" type="curve" smooth="yes"/>
      <point x="129.66" y="470.05999999999995"/>
      <point x="233.95999999999995" y="639.54"/>
      <point x="401.452" y="639.54" type="curve" smooth="yes"/>
      <point x="458.516" y="639.54"/>
      <point x="509.78" y="631.3"/>
      <point x="562.82" y="615.7679999999999" type="curve"/>
      <point x="583.9280000000001" y="680.888" type="line"/>
      <point x="524.36" y="701.7600000000001"/>
      <point x="465.9839999999999" y="710.0"/>
      <point x="399.02399999999994" y="710.0" type="curve" smooth="yes"/>
      <point x="181.28000000000003" y="710.0"/>
      <point x="46.17999999999999" y="518.8199999999999"/>
      <point x="46.17999999999999" y="232.528" type="curve" smooth="yes"/>
      <point x="46.17999999999999" y="67.544"/>
      <point x="142.456" y="-10.0"/>
    </contour>
  </outline>
</glyph>
<glyph name="D" format="2">
  <advance width="626.5080000000002"/>
  <unicode hex="0044"/>
  <anchor x="252.58800000000002" y="0.0" name="bottom"/>
  <anchor x="315.664" y="350.0" name="center"/>
  <anchor x="344.528" y="700.0" name="top"/>
  <outline>
    <contour>
      <point x="230.62399999999997" y="-10.0" type="curve" smooth="yes"/>
      <point x="453.07199999999995" y="-10.0"/>
      <point x="600.2520000000001" y="154.72400000000002"/>
      <point x="600.2520000000001" y="433.292" type="curve" smooth="yes"/>
      <point x="600.2520000000001" y="632.0960000000001"/>
      <point x="484.932" y="710.0"/>
      <point x="318.056" y="710.0" type="curve" smooth="yes"/>
      <point x="257.4" y="710.0"/>
      <point x="201.708" y="707.4560000000001"/>
      <point x="136.06799999999998" y="702.2160000000001" type="curve"/>
      <point x="24.22" y="-1.3679999999999994" type="line"/>
      <point x="92.34400000000001" y="-7.14"/>
      <point x="145.668" y="-10.0"/>
    </contour>
    <contour>
      <point x="236.216" y="55.044000000000004" type="curve" smooth="yes"/>
      <point x="188.516" y="55.044000000000004"/>
      <point x="157.05599999999998" y="56.816"/>
      <point x="114.812" y="59.57600000000001" type="curve"/>
      <point x="206.85599999999997" y="638.26" type="line"/>
      <point x="233.82000000000002" y="640.64"/>
      <point x="278.116" y="642.64"/>
      <point x="319.29600000000005" y="642.64" type="curve" smooth="yes"/>
      <point x="426.912" y="642.64"/>
      <point x="518.48" y="587.464"/>
      <point x="518.48" y="430.67199999999997" type="curve" smooth="yes"/>
      <point x="518.48" y="192.05599999999998"/>
      <point x="400.84800000000007" y="55.044000000000004"/>
    </contour>
  </outline>
</glyph>
<glyph name="E" format="2">
  <advance width="524.912"/>
  <unicode hex="0045"/>
  <anchor x="240.37600000000003" y="0.0" name="bottom"/>
  <anchor x="452.696" y="0.0" name="ogonek"/>
  <anchor x="342.3" y="700.0" name="top"/>
  <anchor x="94.20399999999998" y="700.0" name="topleft"/>
  <outline>
    <contour>
      <point x="24.447999999999997" y="0.0" type="line"/>
      <point x="452.696" y="0.0" type="line"/>
      <point x="464.376" y="71.08" type="line"/>
      <point x="115.888" y="71.08" type="line"/>
      <point x="155.85600000000002" y="327.28000000000003" type="line"/>
      <point x="466.256" y="327.28000000000003" type="line"/>
      <point x="478.556" y="398.35999999999996" type="line"/>
      <point x="167.384" y="398.35999999999996" type="line"/>
      <point x="204.54" y="628.92" type="line"/>
      <point x="536.3320000000001" y="628.92" type="line"/>
      <point x="548.2400000000001" y="700.0" type="line"/>
      <point x="135.22" y="700.0" type="line"/>
    </contour>
  </outline>
</glyph>
<glyph name="F" format="2">
  <advance width="498.45"/>
  <unicode hex="0046"/>
  <outline>
    <contour>
      <point x="24.758000000000003" y="0.0" type="line"/>
      <point x="104.66199999999999" y="0.0" type="line"/>
      <point x="151.476" y="289.936" type="line"/>
      <point x="437.02000000000004" y="289.936" type="line"/>
      <point x="448.11400000000003" y="362.00800000000004" type="line"/>
      <point x="162.63200000000003" y="362.00800000000004" type="line"/>
      <point x="204.416" y="627.928" type="line"/>
      <point x="534.762" y="627.928" type="line"/>
      <point x="546.6899999999999" y="700.0" type="line"/>
      <point x="135.84" y="700.0" type="line"/>
    </contour>
  </outline>
</glyph>
<glyph name="G" format="2">
  <advance width="586.71"/>
  <unicode hex="0047"/>
  <anchor x="292.17" y="0.0" name="bottom"/>
  <anchor x="401.17600000000004" y="700.0" name="top"/>
  <outline>
    <contour>
      <point x="304.75600000000003" y="-10.0" type="curve" smooth="yes"/>
      <point x="385.03200000000004" y="-10.0"/>
      <point x="453.244" y="5.446000000000001"/>
      <point x="497.99600000000004" y="25.882" type="curve"/>
      <point x="550.7019999999999" y="355.892" type="line"/>
      <point x="323.23400000000004" y="355.892" type="line"/>
      <point x="313.35200000000003" y="293.74" type="line"/>
      <point x="468.62399999999997" y="293.74" type="line"/>
      <point x="433.752" y="75.05" type="line"/>
      <point x="405.33000000000004" y="63.226"/>
      <point x="362.692" y="55.438"/>
      <point x="313.73600000000005" y="55.438" type="curve" smooth="yes"/>
      <point x="201.48000000000002" y="55.438"/>
      <point x="124.85799999999999" y="109.32799999999999"/>
      <point x="124.85799999999999" y="236.72400000000002" type="curve" smooth="yes"/>
      <point x="124.85799999999999" y="467.31399999999996"/>
      <point x="233.10199999999998" y="640.78"/>
      <point x="402.02200000000005" y="640.78" type="curve" smooth="yes"/>
      <point x="461.24000000000007" y="640.78"/>
      <point x="506.64399999999995" y="632.106"/>
      <point x="560.4340000000001" y="616.98" type="curve"/>
      <point x="585.076" y="682.134" type="line"/>
      <point x="531.176" y="700.5100000000001"/>
      <point x="468.59600000000006" y="710.0"/>
      <point x="401.57800000000003" y="710.0" type="curve" smooth="yes"/>
      <point x="173.37400000000002" y="710.0"/>
      <point x="44.602000000000004" y="502.958"/>
      <point x="44.602000000000004" y="230.28" type="curve" smooth="yes"/>
      <point x="44.602000000000004" y="68.07"/>
      <point x="147.682" y="-10.0"/>
    </contour>
  </outline>
</glyph>
<glyph name="H" format="2">
  <advance width="637.0980000000001"/>
  <unicode hex="0048"/>
  <anchor x="275.154184" y="0.0" name="bottom"/>
  <anchor x="330.823094" y="350.0" name="center"/>
  <anchor x="386.077418" y="700.0" name="top"/>
  <anchor x="86.355418" y="700.0" name="topleft"/>
  <outline>
    <contour>
      <point x="24.634000000000004" y="0.0" type="line"/>
      <point x="105.49000000000001" y="0.0" type="line"/>
      <point x="148.514" y="272.648" type="line"/>
      <point x="488.32800000000003" y="272.648" type="line"/>
      <point x="445.24199999999996" y="0.0" type="line"/>
      <point x="524.3820000000001" y="0.0" type="line"/>
      <point x="635.878" y="700.0" type="line"/>
      <point x="556.6759999999999" y="700.0" type="line"/>
      <point x="499.6360000000001" y="343.23199999999997" type="line"/>
      <point x="159.408" y="343.23199999999997" type="line"/>
      <point x="216.57199999999997" y="700.0" type="line"/>
      <point x="135.716" y="700.0" type="line"/>
    </contour>
  </outline>
</glyph>
<glyph name="I" format="2">
  <advance width="217.79200000000003"/>
  <unicode hex="0049"/>
  <anchor x="65.23912800000001" y="0.0" name="bottom"/>
  <anchor x="105.639208" y="1.86" name="ogonek"/>
  <anchor x="176.178606" y="700.0" name="top"/>
  <anchor x="94.510218" y="700.0" name="topleft"/>
  <outline>
    <contour>
      <point x="24.634000000000004" y="0.0" type="line"/>
      <point x="105.07600000000001" y="0.0" type="line"/>
      <point x="216.57199999999997" y="700.0" type="line"/>
      <point x="135.716" y="700.0" type="line"/>
    </contour>
  </outline>
</glyph>
<glyph name="J" format="2">
  <advance width="443.432"/>
  <unicode hex="004A"/>
  <anchor x="156.688584" y="0.0" name="bottom"/>
  <anchor x="287.308" y="700.0" name="top"/>
  <outline>
    <contour>
      <point x="-27.012" y="19.25" type="line"/>
      <point x="17.72" y="3.420000000000001"/>
      <point x="68.47200000000001" y="-10.0"/>
      <point x="139.82600000000002" y="-10.0" type="curve" smooth="yes"/>
      <point x="271.50800000000004" y="-10.0"/>
      <point x="347.538" y="59.31799999999999"/>
      <point x="369.742" y="194.826" type="curve" smooth="yes"/>
      <point x="450.33799999999997" y="700.0" type="line"/>
      <point x="119.41799999999999" y="700.0" type="line"/>
      <point x="108.048" y="630.098" type="line"/>
      <point x="358.526" y="630.098" type="line"/>
      <point x="291.648" y="211.254" type="line" smooth="yes"/>
      <point x="274.47400000000005" y="103.044"/>
      <point x="214.72" y="63.622"/>
      <point x="131.314" y="63.622" type="curve" smooth="yes"/>
      <point x="75.82000000000001" y="63.622"/>
      <point x="34.678000000000004" y="76.058"/>
      <point x="-5.333999999999998" y="88.72599999999998" type="curve"/>
    </contour>
  </outline>
</glyph>
<glyph name="K" format="2">
  <advance width="572.928"/>
  <unicode hex="004B"/>
  <anchor x="258.32" y="0.0" name="bottom"/>
  <anchor x="350.18" y="700.0" name="top"/>
  <outline>
    <contour>
      <point x="23.972" y="0.0" type="line"/>
      <point x="105.476" y="0.0" type="line"/>
      <point x="215.97199999999998" y="700.0" type="line"/>
      <point x="136.08800000000002" y="700.0" type="line"/>
    </contour>
    <contour>
      <point x="497.0880000000001" y="-9.372" type="curve" smooth="yes"/>
      <point x="505.056" y="-9.372"/>
      <point x="519.86" y="-7.636000000000001"/>
      <point x="525.9759999999999" y="-5.016" type="curve"/>
      <point x="533.276" y="73.99199999999999" type="line"/>
      <point x="528.912" y="74.364"/>
      <point x="524.7959999999999" y="73.364"/>
      <point x="520.052" y="73.364" type="curve" smooth="yes"/>
      <point x="484.928" y="73.364"/>
      <point x="457.1" y="89.372"/>
      <point x="405.952" y="152.18800000000002" type="curve" smooth="yes"/>
      <point x="162.112" y="452.476" type="line"/>
      <point x="145.596" y="355.292" type="line"/>
      <point x="364.756" y="77.21199999999999" type="line" smooth="yes"/>
      <point x="416.928" y="12.239999999999998"/>
      <point x="448.864" y="-9.372"/>
    </contour>
    <contour>
      <point x="258.488" y="296.848" type="line"/>
      <point x="364.64799999999997" y="367.412"/>
      <point x="523.296" y="505.32"/>
      <point x="608.168" y="676.0840000000001" type="curve"/>
      <point x="549.2639999999999" y="709.38" type="line"/>
      <point x="454.432" y="540.964"/>
      <point x="312.224" y="412.53599999999994"/>
      <point x="218.496" y="350.17199999999997" type="curve"/>
    </contour>
  </outline>
</glyph>
<glyph name="L" format="2">
  <advance width="474.926"/>
  <unicode hex="004C"/>
  <anchor x="223.58599999999998" y="0.0" name="bottom"/>
  <anchor x="244.769094" y="350.0" name="center"/>
  <anchor x="175.592" y="700.0" name="top"/>
  <anchor x="376.464" y="700.0" name="topright"/>
  <outline>
    <contour>
      <point x="24.22" y="0.0" type="line"/>
      <point x="417.426" y="0.0" type="line"/>
      <point x="429.106" y="70.398" type="line"/>
      <point x="116.09400000000001" y="70.398" type="line"/>
      <point x="216.158" y="700.0" type="line"/>
      <point x="135.716" y="700.0" type="line"/>
    </contour>
  </outline>
</glyph>
<glyph name="M" format="2">
  <advance width="714.3739999999999"/>
  <unicode hex="004D"/>
  <outline>
    <contour>
      <point x="24.034000000000002" y="0.0" type="line"/>
      <point x="99.896" y="0.0" type="line"/>
      <point x="189.45" y="579.9760000000001" type="line"/>
      <point x="329.26599999999996" y="230.48600000000002" type="line"/>
      <point x="368.88" y="230.48600000000002" type="line"/>
      <point x="620.908" y="580.3480000000001" type="line"/>
      <point x="526.8580000000001" y="0.0" type="line"/>
      <point x="601.658" y="0.0" type="line"/>
      <point x="713.154" y="700.0" type="line"/>
      <point x="625.9219999999999" y="700.0" type="line"/>
      <point x="363.95" y="331.358" type="line"/>
      <point x="216.546" y="700.0" type="line"/>
      <point x="135.716" y="700.0" type="line"/>
    </contour>
  </outline>
</glyph>
<glyph name="N" format="2">
  <advance width="630.47"/>
  <unicode hex="004E"/>
  <anchor x="273.51" y="0.0" name="bottom"/>
  <anchor x="383.58000000000004" y="700.0" name="top"/>
  <outline>
    <contour>
      <point x="24.910000000000004" y="0.0" type="line"/>
      <point x="98.22999999999999" y="0.0" type="line"/>
      <point x="187.73" y="566.5999999999999" type="line"/>
      <point x="442.90000000000003" y="-2.76" type="line"/>
      <point x="517.63" y="-2.76" type="line"/>
      <point x="629.25" y="700.0" type="line"/>
      <point x="556.31" y="700.0" type="line"/>
      <point x="465.57" y="126.96000000000001" type="line"/>
      <point x="212.64" y="702.76" type="line"/>
      <point x="136.53" y="702.76" type="line"/>
    </contour>
  </outline>
</glyph>
<glyph name="O" format="2">
  <advance width="647.36"/>
  <unicode hex="004F"/>
  <note>
8
</note>
  <anchor x="284.20000000000005" y="0.0" name="bottom"/>
  <anchor x="340.20000000000005" y="350.0" name="center"/>
  <anchor x="354.22" y="0.62" name="ogonek"/>
  <anchor x="390.2" y="700.0" name="top"/>
  <anchor x="92.9" y="700.0" name="topleft"/>
  <anchor x="510.9799999999999" y="685.34" name="topright"/>
  <outline>
    <contour>
      <point x="297.53999999999996" y="-8.14" type="curve" smooth="yes"/>
      <point x="504.52" y="-8.14"/>
      <point x="618.4200000000001" y="171.64000000000001"/>
      <point x="618.4200000000001" y="422.94" type="curve" smooth="yes"/>
      <point x="618.4200000000001" y="608.9"/>
      <point x="531.6" y="708.14"/>
      <point x="373.82" y="708.14" type="curve" smooth="yes"/>
      <point x="166.84" y="708.14"/>
      <point x="52.94" y="528.36"/>
      <point x="52.94" y="277.06" type="curve" smooth="yes"/>
      <point x="52.94" y="91.1"/>
      <point x="139.76" y="-8.14"/>
    </contour>
    <contour>
      <point x="303.35999999999996" y="60.699999999999996" type="curve" smooth="yes"/>
      <point x="199.64000000000001" y="60.699999999999996"/>
      <point x="135.18" y="127.94"/>
      <point x="135.18" y="273.86" type="curve" smooth="yes"/>
      <point x="135.18" y="473.82"/>
      <point x="213.07999999999998" y="639.3"/>
      <point x="368.61999999999995" y="639.3" type="curve" smooth="yes"/>
      <point x="471.71999999999997" y="639.3"/>
      <point x="536.1800000000001" y="572.0600000000001"/>
      <point x="536.1800000000001" y="426.14" type="curve" smooth="yes"/>
      <point x="536.1800000000001" y="226.18000000000004"/>
      <point x="458.28000000000003" y="60.699999999999996"/>
    </contour>
  </outline>
</glyph>
<glyph name="P" format="2">
  <advance width="578.23"/>
  <unicode hex="0050"/>
  <outline>
    <contour>
      <point x="24.91" y="0.0" type="line"/>
      <point x="104.97999999999999" y="0.0" type="line"/>
      <point x="143.71" y="241.04" type="line"/>
      <point x="199.16" y="238.42"/>
      <point x="229.03" y="237.73"/>
      <point x="286.7" y="237.73" type="curve" smooth="yes"/>
      <point x="483.23" y="237.73"/>
      <point x="581.5" y="333.09999999999997"/>
      <point x="582.1899999999999" y="516.9799999999999" type="curve" smooth="yes"/>
      <point x="582.1899999999999" y="646.9"/>
      <point x="508.53999999999996" y="710.0"/>
      <point x="329.59" y="710.0" type="curve" smooth="yes"/>
      <point x="294.08" y="710.0"/>
      <point x="240.31" y="707.69"/>
      <point x="136.53" y="701.6899999999999" type="curve"/>
    </contour>
    <contour>
      <point x="206.47" y="637.5699999999999" type="line"/>
      <point x="265.27" y="640.95"/>
      <point x="293.28" y="642.64"/>
      <point x="326.28000000000003" y="642.64" type="curve" smooth="yes"/>
      <point x="453.21000000000004" y="642.64"/>
      <point x="500.87999999999994" y="600.3900000000001"/>
      <point x="500.87999999999994" y="504.29999999999995" type="curve" smooth="yes"/>
      <point x="500.87999999999994" y="381.27000000000004"/>
      <point x="435.83000000000004" y="305.4"/>
      <point x="285.35999999999996" y="305.4" type="curve" smooth="yes"/>
      <point x="242.76" y="305.4"/>
      <point x="208.61" y="307.09"/>
      <point x="154.45999999999998" y="309.09" type="curve"/>
    </contour>
  </outline>
</glyph>
<glyph name="Q" format="2">
  <advance width="649.2180000000001"/>
  <unicode hex="0051"/>
  <note>
14
</note>
  <outline>
    <contour>
      <point x="451.87800000000004" y="-191.47400000000002" type="curve" smooth="yes"/>
      <point x="483.666" y="-191.47400000000002"/>
      <point x="512.7900000000001" y="-185.40400000000002"/>
      <point x="540.306" y="-173.14" type="curve"/>
      <point x="540.1619999999999" y="-108.214" type="line"/>
      <point x="518.2600000000001" y="-118.776"/>
      <point x="495.29" y="-123.536"/>
      <point x="470.658" y="-123.536" type="curve" smooth="yes"/>
      <point x="408.432" y="-123.536"/>
      <point x="355.636" y="-84.93799999999999"/>
      <point x="342.952" y="8.354" type="curve"/>
      <point x="271.94800000000004" y="2.594" type="line"/>
      <point x="289.74800000000005" y="-138.63199999999998"/>
      <point x="366.38800000000003" y="-191.47400000000002"/>
    </contour>
    <component base="O"/>
  </outline>
</glyph>
<glyph name="R" format="2">
  <advance width="599.82"/>
  <unicode hex="0052"/>
  <anchor x="275.84000000000003" y="0.0" name="bottom"/>
  <anchor x="334.22" y="700.0" name="top"/>
  <outline>
    <contour>
      <point x="24.6" y="0.0" type="line"/>
      <point x="105.6" y="0.0" type="line"/>
      <point x="149.64000000000001" y="275.14" type="line"/>
      <point x="202.20000000000002" y="273.76"/>
      <point x="252.38" y="273.38"/>
      <point x="315.36" y="272.76" type="curve"/>
      <point x="329.52" y="278.34" type="line"/>
      <point x="481.58000000000004" y="279.34"/>
      <point x="577.7399999999999" y="366.29999999999995"/>
      <point x="577.7399999999999" y="521.5" type="curve" smooth="yes"/>
      <point x="577.7399999999999" y="645.36"/>
      <point x="515.9599999999999" y="710.0"/>
      <point x="335.42" y="710.0" type="curve" smooth="yes"/>
      <point x="273.8" y="710.0"/>
      <point x="217.06" y="707.38"/>
      <point x="136.22" y="701.76" type="curve"/>
    </contour>
    <contour>
      <point x="528.26" y="-10.0" type="curve" smooth="yes"/>
      <point x="536.1199999999999" y="-10.0"/>
      <point x="550.42" y="-7.38"/>
      <point x="556.28" y="-5.140000000000001" type="curve"/>
      <point x="562.5799999999999" y="69.89999999999999" type="line"/>
      <point x="557.58" y="68.52"/>
      <point x="551.9599999999999" y="68.52"/>
      <point x="548.7199999999999" y="68.52" type="curve" smooth="yes"/>
      <point x="501.72" y="68.9"/>
      <point x="440.58" y="126.74000000000001"/>
      <point x="374.6" y="307.84000000000003" type="curve"/>
      <point x="294.84" y="289.96" type="line"/>
      <point x="382.41999999999996" y="58.8"/>
      <point x="450.38" y="-10.0"/>
    </contour>
    <contour>
      <point x="314.3" y="338.88" type="curve" smooth="yes"/>
      <point x="246.0" y="338.88"/>
      <point x="202.92000000000002" y="339.5"/>
      <point x="160.46" y="342.5" type="curve"/>
      <point x="207.16" y="639.5" type="line"/>
      <point x="260.44" y="642.88"/>
      <point x="282.23999999999995" y="644.26"/>
      <point x="332.18" y="644.26" type="curve" smooth="yes"/>
      <point x="458.7" y="644.26"/>
      <point x="493.63999999999993" y="603.5"/>
      <point x="493.63999999999993" y="517.3000000000001" type="curve" smooth="yes"/>
      <point x="493.63999999999993" y="399.52"/>
      <point x="428.94" y="338.88"/>
    </contour>
  </outline>
</glyph>
<glyph name="S" format="2">
  <advance width="536.0599999999998"/>
  <unicode hex="0053"/>
  <anchor x="226.0" y="0.0" name="bottom"/>
  <anchor x="341.21999999999997" y="700.0" name="top"/>
  <outline>
    <contour>
      <point x="531.12" y="678.8999999999999" type="line"/>
      <point x="470.15999999999997" y="699.1399999999999"/>
      <point x="414.13999999999993" y="710.0"/>
      <point x="349.08" y="710.0" type="curve" smooth="yes"/>
      <point x="175.38" y="710.0"/>
      <point x="80.36" y="632.7999999999998"/>
      <point x="80.36" y="514.64" type="curve" smooth="yes"/>
      <point x="80.36" y="294.82"/>
      <point x="405.6" y="340.58000000000004"/>
      <point x="405.22" y="179.16" type="curve" smooth="yes"/>
      <point x="405.22" y="107.47999999999999"/>
      <point x="346.38" y="58.980000000000004"/>
      <point x="231.9" y="58.980000000000004" type="curve" smooth="yes"/>
      <point x="157.7" y="58.980000000000004"/>
      <point x="79.08" y="73.6"/>
      <point x="14.540000000000001" y="98.08000000000001" type="curve"/>
      <point x="-12.82" y="30.720000000000002" type="line"/>
      <point x="54.900000000000006" y="4.240000000000001"/>
      <point x="137.96" y="-10.0"/>
      <point x="219.84" y="-10.0" type="curve" smooth="yes"/>
      <point x="400.44000000000005" y="-10.0"/>
      <point x="488.46" y="68.82"/>
      <point x="488.46" y="188.6" type="curve" smooth="yes"/>
      <point x="489.46" y="400.46000000000004"/>
      <point x="163.22" y="362.9"/>
      <point x="163.22" y="520.1200000000001" type="curve" smooth="yes"/>
      <point x="163.22" y="591.42"/>
      <point x="230.34" y="639.9200000000001"/>
      <point x="337.40000000000003" y="639.9200000000001" type="curve" smooth="yes"/>
      <point x="399.2200000000001" y="639.9200000000001"/>
      <point x="452.65999999999997" y="630.3000000000001"/>
      <point x="504.14" y="610.6800000000001" type="curve"/>
    </contour>
  </outline>
</glyph>
<glyph name="T" format="2">
  <advance width="496.988"/>
  <unicode hex="0054"/>
  <anchor x="204.576584" y="0.0" name="bottom"/>
  <anchor x="260.438098" y="350.0" name="center"/>
  <anchor x="315.638606" y="700.0" name="top"/>
  <outline>
    <contour>
      <point x="543.8760000000001" y="632.578" type="line"/>
      <point x="555.432" y="700.0" type="line"/>
      <point x="76.61000000000001" y="700.0" type="line"/>
      <point x="64.93" y="632.578" type="line"/>
      <point x="264.33000000000004" y="632.578" type="line"/>
      <point x="164.08" y="0.0" type="line"/>
      <point x="244.52200000000002" y="0.0" type="line"/>
      <point x="344.648" y="632.578" type="line"/>
    </contour>
  </outline>
</glyph>
<glyph name="U" format="2">
  <advance width="620.116"/>
  <unicode hex="0055"/>
  <anchor x="266.39563999999996" y="0.0" name="bottom"/>
  <anchor x="327.108" y="0.0" name="ogonek"/>
  <anchor x="375.42303" y="700.0" name="top"/>
  <anchor x="621.194" y="700.0" name="topright"/>
  <outline>
    <contour>
      <point x="263.51400000000007" y="-10.0" type="curve" smooth="yes"/>
      <point x="432.53200000000004" y="-10.0"/>
      <point x="524.6840000000001" y="60.21"/>
      <point x="548.5440000000001" y="208.28799999999998" type="curve" smooth="yes"/>
      <point x="627.022" y="700.0" type="line"/>
      <point x="547.0340000000001" y="700.0" type="line"/>
      <point x="467.96999999999997" y="205.18800000000002" type="line" smooth="yes"/>
      <point x="452.72400000000005" y="107.47"/>
      <point x="389.038" y="58.476"/>
      <point x="276.146" y="58.476" type="curve" smooth="yes"/>
      <point x="168.29800000000003" y="58.476"/>
      <point x="113.69000000000001" y="108.38"/>
      <point x="128.142" y="197.73600000000002" type="curve" smooth="yes"/>
      <point x="207.50199999999998" y="700.0" type="line"/>
      <point x="127.92800000000001" y="700.0" type="line"/>
      <point x="48.89800000000001" y="200.69799999999998" type="line" smooth="yes"/>
      <point x="45.540000000000006" y="178.778"/>
      <point x="44.768" y="168.56799999999998"/>
      <point x="44.768" y="153.748" type="curve" smooth="yes"/>
      <point x="44.768" y="46.502"/>
      <point x="120.792" y="-10.0"/>
    </contour>
  </outline>
</glyph>
<glyph name="V" format="2">
  <advance width="544.3539999999999"/>
  <unicode hex="0056"/>
  <outline>
    <contour>
      <point x="268.47400000000005" y="0.0" type="line"/>
      <point x="528.48" y="462.074"/>
      <point x="579.68" y="573.0"/>
      <point x="588.0500000000001" y="670.79" type="curve" smooth="yes"/>
      <point x="588.36" y="680.984"/>
      <point x="587.98" y="690.054"/>
      <point x="586.3439999999999" y="700.0" type="curve"/>
      <point x="502.624" y="700.0" type="line"/>
      <point x="503.87999999999994" y="690.48"/>
      <point x="505.00399999999996" y="682.1540000000001"/>
      <point x="505.00399999999996" y="674.0300000000001" type="curve" smooth="yes"/>
      <point x="505.00399999999996" y="586.61"/>
      <point x="446.442" y="475.872"/>
      <point x="237.17799999999997" y="80.56" type="curve"/>
      <point x="157.86" y="702.884" type="line"/>
      <point x="71.58999999999999" y="700.69" type="line"/>
      <point x="174.864" y="0.0" type="line"/>
    </contour>
  </outline>
</glyph>
<glyph name="W" format="2">
  <advance width="809.88"/>
  <unicode hex="0057"/>
  <anchor x="355.82" y="0.0" name="bottom"/>
  <anchor x="473.44" y="700.0" name="top"/>
  <outline>
    <contour>
      <point x="585.3" y="-0.38" type="line"/>
      <point x="801.02" y="464.22"/>
      <point x="851.98" y="600.12"/>
      <point x="853.22" y="675.1" type="curve" smooth="yes"/>
      <point x="853.22" y="683.86"/>
      <point x="852.84" y="691.86"/>
      <point x="851.46" y="700.0" type="curve"/>
      <point x="770.08" y="700.0" type="line"/>
      <point x="771.46" y="691.62"/>
      <point x="772.22" y="684.62"/>
      <point x="772.22" y="674.86" type="curve" smooth="yes"/>
      <point x="768.5" y="587.0"/>
      <point x="730.98" y="491.76"/>
      <point x="550.06" y="90.18" type="curve"/>
      <point x="509.40000000000003" y="644.58" type="line"/>
      <point x="417.82" y="644.58" type="line"/>
      <point x="349.42" y="462.7"/>
      <point x="276.3" y="270.1"/>
      <point x="202.94000000000003" y="97.76" type="curve"/>
      <point x="157.38" y="700.0" type="line"/>
      <point x="72.9" y="700.0" type="line"/>
      <point x="135.85999999999999" y="-0.38" type="line"/>
      <point x="228.88" y="-0.38" type="line"/>
      <point x="305.47999999999996" y="181.92"/>
      <point x="380.22" y="363.46000000000004"/>
      <point x="447.52" y="536.46" type="curve"/>
      <point x="491.28000000000003" y="-0.38" type="line"/>
    </contour>
  </outline>
</glyph>
<glyph name="X" format="2">
  <advance width="555.86"/>
  <unicode hex="0058"/>
  <outline>
    <contour>
      <point x="425.7" y="-4.5200000000000005" type="line"/>
      <point x="514.24" y="1.0" type="line"/>
      <point x="334.74" y="354.42" type="line"/>
      <point x="469.14000000000004" y="478.32"/>
      <point x="561.2" y="581.58"/>
      <point x="584.1600000000001" y="700.76" type="curve"/>
      <point x="494.61999999999995" y="703.14" type="line"/>
      <point x="480.3" y="603.56"/>
      <point x="417.4" y="517.44"/>
      <point x="306.90000000000003" y="413.82" type="curve"/>
      <point x="168.44" y="705.14" type="line"/>
      <point x="80.52" y="699.24" type="line"/>
      <point x="246.01999999999995" y="368.09999999999997" type="line"/>
      <point x="115.3" y="253.2"/>
      <point x="3.1999999999999993" y="123.28"/>
      <point x="-4.779999999999999" y="0.0" type="curve"/>
      <point x="85.52" y="0.0" type="line"/>
      <point x="93.5" y="105.94"/>
      <point x="168.32" y="205.68"/>
      <point x="276.71999999999997" y="306.22" type="curve"/>
    </contour>
  </outline>
</glyph>
<glyph name="Y" format="2">
  <advance width="518.3759999999999"/>
  <unicode hex="0059"/>
  <anchor x="213.18" y="0.0" name="bottom"/>
  <anchor x="328.87" y="700.0" name="top"/>
  <anchor x="86.062" y="700.0" name="topleft"/>
  <outline>
    <contour>
      <point x="179.064" y="0.0" type="line"/>
      <point x="258.32800000000003" y="0.0" type="line"/>
      <point x="304.678" y="279.92199999999997" type="line"/>
      <point x="458.126" y="437.03200000000004"/>
      <point x="525.902" y="539.946"/>
      <point x="562.374" y="661.906" type="curve" smooth="yes"/>
      <point x="565.878" y="674.48"/>
      <point x="570.7539999999999" y="688.24"/>
      <point x="574.692" y="701.8140000000001" type="curve"/>
      <point x="486.128" y="705.0780000000001" type="line"/>
      <point x="482.81" y="691.7520000000001"/>
      <point x="479.554" y="679.24"/>
      <point x="476.484" y="665.914" type="curve" smooth="yes"/>
      <point x="447.84000000000003" y="559.836"/>
      <point x="400.44999999999993" y="471.416"/>
      <point x="273.93199999999996" y="344.73199999999997" type="curve"/>
      <point x="157.262" y="704.016" type="line"/>
      <point x="69.148" y="699.3100000000001" type="line"/>
      <point x="224.53799999999998" y="279.92199999999997" type="line"/>
    </contour>
  </outline>
</glyph>
<glyph name="Z" format="2">
  <advance width="522.06"/>
  <unicode hex="005A"/>
  <anchor x="220.36" y="0.0" name="bottom"/>
  <anchor x="270.46" y="350.0" name="center"/>
  <anchor x="325.98" y="700.0" name="top"/>
  <outline>
    <contour>
      <point x="-21.240000000000002" y="0.0" type="line"/>
      <point x="461.34000000000003" y="0.0" type="line"/>
      <point x="472.4" y="67.97999999999999" type="line"/>
      <point x="84.02" y="67.97999999999999" type="line"/>
      <point x="541.86" y="635.4" type="line"/>
      <point x="551.92" y="700.0" type="line"/>
      <point x="112.04" y="700.0" type="line"/>
      <point x="100.98" y="632.02" type="line"/>
      <point x="446.41999999999996" y="632.02" type="line"/>
      <point x="-10.8" y="63.36" type="line"/>
    </contour>
  </outline>
</glyph>
<glyph name="bracketleft" format="2">
  <advance width="300.48199999999997"/>
  <unicode hex="005B"/>
  <outline>
    <contour>
      <point x="77.10799999999999" y="-150.45999999999998" type="line"/>
      <point x="209.584" y="680.736" type="line"/>
      <point x="349.06399999999996" y="680.736" type="line"/>
      <point x="358.884" y="740.0" type="line"/>
      <point x="155.47400000000002" y="740.0" type="line"/>
      <point x="3.895999999999999" y="-210.0" type="line"/>
      <point x="206.58200000000002" y="-210.0" type="line"/>
      <point x="216.58800000000002" y="-150.45999999999998" type="line"/>
    </contour>
  </outline>
</glyph>
<glyph name="backslash" format="2">
  <advance width="362.344"/>
  <unicode hex="005C"/>
  <outline>
    <contour>
      <point x="143.674" y="740.0" type="line"/>
      <point x="81.226" y="740.0" type="line"/>
      <point x="251.42200000000003" y="-210.0" type="line"/>
      <point x="313.684" y="-210.0" type="line"/>
    </contour>
  </outline>
</glyph>
<glyph name="bracketright" format="2">
  <advance width="300.48199999999997"/>
  <unicode hex="005D"/>
  <outline>
    <contour>
      <point x="-50.891999999999996" y="-150.45999999999998" type="line"/>
      <point x="-60.588" y="-210.0" type="line"/>
      <point x="141.40800000000002" y="-210.0" type="line"/>
      <point x="293.71000000000004" y="740.0" type="line"/>
      <point x="90.714" y="740.0" type="line"/>
      <point x="80.708" y="680.46" type="line"/>
      <point x="220.188" y="680.46" type="line"/>
      <point x="87.526" y="-150.45999999999998" type="line"/>
    </contour>
  </outline>
</glyph>
<glyph name="asciicircum" format="2">
  <advance width="445.062"/>
  <unicode hex="005E"/>
  <outline>
    <contour>
      <point x="42.635999999999996" y="261.74199999999996" type="line"/>
      <point x="104.286" y="261.74199999999996" type="line"/>
      <point x="277.356" y="626.7839999999999" type="line"/>
      <point x="337.50600000000003" y="261.74199999999996" type="line"/>
      <point x="398.418" y="261.74199999999996" type="line"/>
      <point x="324.118" y="706.9" type="line"/>
      <point x="255.008" y="706.9" type="line"/>
    </contour>
  </outline>
</glyph>
<glyph name="underscore" format="2">
  <advance width="731.5120000000001"/>
  <unicode hex="005F"/>
  <outline>
    <contour>
      <point x="-59.891999999999996" y="-158.754" type="line"/>
      <point x="653.592" y="-158.754" type="line"/>
      <point x="664.404" y="-93.426" type="line"/>
      <point x="-49.07999999999999" y="-93.426" type="line"/>
    </contour>
  </outline>
</glyph>
<glyph name="a" format="2">
  <advance width="508.61600000000004"/>
  <unicode hex="0061"/>
  <note>
15
</note>
  <anchor x="210.56" y="0.0" name="bottom"/>
  <anchor x="469.3" y="3.0999999999999996" name="ogonek"/>
  <anchor x="301.056" y="536.2" name="top"/>
  <outline>
    <contour>
      <point x="409.928" y="-10.0" type="curve" smooth="yes"/>
      <point x="431.52" y="-10.0"/>
      <point x="454.2" y="-5.064"/>
      <point x="469.452" y="2.6439999999999997" type="curve"/>
      <point x="471.108" y="63.6" type="line"/>
      <point x="461.892" y="59.992000000000004"/>
      <point x="453.05600000000004" y="58.38399999999999"/>
      <point x="443.68800000000005" y="58.38399999999999" type="curve" smooth="yes"/>
      <point x="422.876" y="58.38399999999999"/>
      <point x="414.128" y="70.20800000000001"/>
      <point x="414.128" y="94.16000000000001" type="curve" smooth="yes"/>
      <point x="414.128" y="102.008"/>
      <point x="428.104" y="187.284"/>
      <point x="480.624" y="515.404" type="curve"/>
      <point x="438.944" y="533.7199999999999"/>
      <point x="374.876" y="546.2"/>
      <point x="317.46400000000006" y="546.2" type="curve" smooth="yes"/>
      <point x="140.532" y="546.2"/>
      <point x="26.964000000000002" y="402.8280000000001"/>
      <point x="26.964000000000002" y="173.51600000000002" type="curve" smooth="yes"/>
      <point x="26.964000000000002" y="53.08800000000001"/>
      <point x="85.38000000000001" y="-10.0"/>
      <point x="182.532" y="-10.0" type="curve" smooth="yes"/>
      <point x="239.39200000000002" y="-10.0"/>
      <point x="294.74799999999993" y="10.304000000000002"/>
      <point x="336.36800000000005" y="42.012" type="curve"/>
      <point x="346.58" y="9.228"/>
      <point x="374.10799999999995" y="-10.0"/>
    </contour>
    <contour>
      <point x="334.14" y="96.44" type="line"/>
      <point x="300.428" y="74.032"/>
      <point x="253.36" y="58.37200000000001"/>
      <point x="212.82399999999998" y="58.37200000000001" type="curve" smooth="yes"/>
      <point x="146.968" y="58.37200000000001"/>
      <point x="107.496" y="102.896"/>
      <point x="107.496" y="186.208" type="curve" smooth="yes"/>
      <point x="107.496" y="358.44"/>
      <point x="192.644" y="482.54800000000006"/>
      <point x="307.504" y="482.54800000000006" type="curve" smooth="yes"/>
      <point x="340.976" y="482.54800000000006"/>
      <point x="370.004" y="477.4080000000001"/>
      <point x="392.36" y="466.03999999999996" type="curve"/>
    </contour>
  </outline>
</glyph>
<glyph name="b" format="2">
  <advance width="505.994"/>
  <unicode hex="0062"/>
  <note>
12
</note>
  <outline>
    <contour>
      <point x="217.05200000000002" y="740.0" type="line"/>
      <point x="138.532" y="740.0" type="line"/>
      <point x="23.703999999999997" y="13.962000000000002" type="line"/>
      <point x="69.21600000000002" y="1.066"/>
      <point x="124.786" y="-10.0"/>
      <point x="190.45600000000002" y="-10.0" type="curve" smooth="yes"/>
      <point x="366.638" y="-10.0"/>
      <point x="479.67600000000004" y="159.73399999999998"/>
      <point x="479.36600000000004" y="367.276" type="curve" smooth="yes"/>
      <point x="479.366" y="483.89200000000005"/>
      <point x="431.23" y="546.2"/>
      <point x="334.71599999999995" y="546.2" type="curve" smooth="yes"/>
      <point x="277.538" y="546.2"/>
      <point x="228.914" y="524.092"/>
      <point x="177.04999999999998" y="490.5040000000001" type="curve"/>
    </contour>
    <contour>
      <point x="299.64799999999997" y="477.084" type="curve" smooth="yes"/>
      <point x="370.046" y="477.084"/>
      <point x="399.916" y="426.964"/>
      <point x="399.916" y="348.776" type="curve" smooth="yes"/>
      <point x="399.916" y="197.424"/>
      <point x="315.99" y="52.605999999999995"/>
      <point x="197.00000000000003" y="52.605999999999995" type="curve" smooth="yes"/>
      <point x="163.024" y="52.605999999999995"/>
      <point x="132.35999999999999" y="58.884"/>
      <point x="110.7" y="65.644" type="curve"/>
      <point x="167.85" y="428.376" type="line"/>
      <point x="214.004" y="460.45799999999997"/>
      <point x="257.98199999999997" y="477.084"/>
    </contour>
  </outline>
</glyph>
<glyph name="c" format="2">
  <advance width="439.38"/>
  <unicode hex="0063"/>
  <note>
10
</note>
  <anchor x="226.792" y="0.0" name="bottom"/>
  <anchor x="305.40000000000003" y="536.2" name="top"/>
  <outline>
    <contour>
      <point x="224.80400000000003" y="-10.0" type="curve" smooth="yes"/>
      <point x="284.576" y="-10.0"/>
      <point x="338.736" y="-0.8480000000000004"/>
      <point x="381.86" y="14.175999999999998" type="curve"/>
      <point x="374.21599999999995" y="76.36" type="line"/>
      <point x="334.104" y="65.904"/>
      <point x="294.812" y="58.763999999999996"/>
      <point x="245.39200000000002" y="58.763999999999996" type="curve" smooth="yes"/>
      <point x="160.73999999999998" y="58.763999999999996"/>
      <point x="105.86400000000002" y="105.16000000000001"/>
      <point x="105.86400000000002" y="187.204" type="curve" smooth="yes"/>
      <point x="105.86400000000002" y="346.436"/>
      <point x="190.264" y="476.36"/>
      <point x="305.564" y="476.36" type="curve" smooth="yes"/>
      <point x="345.312" y="476.36"/>
      <point x="383.61600000000004" y="472.296"/>
      <point x="428.336" y="459.296" type="curve"/>
      <point x="450.684" y="526.58" type="line"/>
      <point x="406.14" y="539.58"/>
      <point x="357.76399999999995" y="546.2"/>
      <point x="309.18399999999997" y="546.2" type="curve" smooth="yes"/>
      <point x="135.48399999999998" y="546.2"/>
      <point x="27.572" y="391.33599999999996"/>
      <point x="27.572" y="173.57599999999996" type="curve" smooth="yes"/>
      <point x="27.572" y="57.96"/>
      <point x="96.74799999999999" y="-10.0"/>
    </contour>
  </outline>
</glyph>
<glyph name="d" format="2">
  <advance width="511.3"/>
  <unicode hex="0064"/>
  <note>
17
</note>
  <anchor x="212.392" y="0.0" name="bottom"/>
  <anchor x="257.992" y="314.02" name="center"/>
  <anchor x="321.12" y="740.0" name="top"/>
  <anchor x="581.2399999999999" y="740.0" name="topright"/>
  <outline>
    <contour>
      <point x="409.92800000000005" y="-10.0" type="curve" smooth="yes"/>
      <point x="428.444" y="-10.0"/>
      <point x="450.97200000000004" y="-5.292000000000001"/>
      <point x="468.22400000000005" y="2.644" type="curve"/>
      <point x="468.8040000000001" y="63.6" type="line"/>
      <point x="460.664" y="60.22"/>
      <point x="451.372" y="58.384"/>
      <point x="441.776" y="58.384" type="curve" smooth="yes"/>
      <point x="422.344" y="58.384"/>
      <point x="412.444" y="69.36"/>
      <point x="412.444" y="90.312" type="curve" smooth="yes"/>
      <point x="412.444" y="101.72799999999998"/>
      <point x="471.99600000000004" y="471.91200000000003"/>
      <point x="514.0799999999999" y="740.0" type="curve"/>
      <point x="434.94" y="740.0" type="line"/>
      <point x="402.10400000000004" y="531.124" type="line"/>
      <point x="372.88800000000003" y="539.6680000000001"/>
      <point x="339.736" y="546.2"/>
      <point x="296.912" y="546.2" type="curve" smooth="yes"/>
      <point x="141.61999999999998" y="546.2"/>
      <point x="25.888" y="393.536"/>
      <point x="25.888" y="167.324" type="curve" smooth="yes"/>
      <point x="25.888" y="48.328"/>
      <point x="87.532" y="-10.0"/>
      <point x="180.784" y="-10.0" type="curve" smooth="yes"/>
      <point x="236.1" y="-10.0"/>
      <point x="296.988" y="12.62"/>
      <point x="334.532" y="40.632000000000005" type="curve"/>
      <point x="345.1240000000001" y="8.24"/>
      <point x="371.88" y="-10.0"/>
    </contour>
    <contour>
      <point x="209.14000000000001" y="59.22" type="curve" smooth="yes"/>
      <point x="147.652" y="59.22"/>
      <point x="106.19200000000001" y="99.592"/>
      <point x="106.19200000000001" y="172.752" type="curve" smooth="yes"/>
      <point x="106.19200000000001" y="339.0319999999999"/>
      <point x="189.11199999999997" y="482.54800000000006"/>
      <point x="303.36400000000003" y="482.54800000000006" type="curve" smooth="yes"/>
      <point x="340.59600000000006" y="482.54800000000006"/>
      <point x="368.092" y="476.332"/>
      <point x="392.284" y="469.8" type="curve"/>
      <point x="332.98799999999994" y="94.83200000000001" type="line"/>
      <point x="298.972" y="73.652"/>
      <point x="252.284" y="59.22"/>
    </contour>
  </outline>
</glyph>
<glyph name="e" format="2">
  <advance width="475.09999999999997"/>
  <unicode hex="0065"/>
  <note>
14 points
</note>
  <anchor x="227.856" y="0.0" name="bottom"/>
  <anchor x="351.352" y="5.696000000000001" name="ogonek"/>
  <anchor x="305.288" y="537.2760000000002" name="top"/>
  <outline>
    <contour>
      <point x="95.148" y="287.97999999999996" type="curve"/>
      <point x="89.51599999999999" y="232.93200000000002" type="line"/>
      <point x="133.2" y="230.16"/>
      <point x="185.556" y="232.16"/>
      <point x="238.1" y="240.54" type="curve" smooth="yes"/>
      <point x="383.1000000000001" y="264.996"/>
      <point x="469.72" y="332.652"/>
      <point x="469.72" y="429.764" type="curve" smooth="yes"/>
      <point x="469.72" y="500.912"/>
      <point x="410.66" y="546.2"/>
      <point x="319.092" y="546.2" type="curve" smooth="yes"/>
      <point x="138.04" y="546.2"/>
      <point x="29.952000000000005" y="402.164"/>
      <point x="29.952000000000005" y="197.072" type="curve" smooth="yes"/>
      <point x="29.952000000000005" y="66.708"/>
      <point x="103.404" y="-10.0"/>
      <point x="231.29599999999996" y="-10.0" type="curve" smooth="yes"/>
      <point x="293.028" y="-10.0"/>
      <point x="359.14000000000004" y="2.5320000000000005"/>
      <point x="413.71999999999997" y="26.227999999999994" type="curve"/>
      <point x="401.52000000000004" y="90.044" type="line"/>
      <point x="344.11600000000004" y="67.43599999999999"/>
      <point x="290.02799999999996" y="56.903999999999996"/>
      <point x="244.07600000000002" y="56.903999999999996" type="curve" smooth="yes"/>
      <point x="155.376" y="56.903999999999996"/>
      <point x="107.624" y="108.38"/>
      <point x="107.624" y="204.74" type="curve" smooth="yes"/>
      <point x="107.624" y="370.66400000000004"/>
      <point x="189.93599999999998" y="483.636"/>
      <point x="304.616" y="483.636" type="curve" smooth="yes"/>
      <point x="363.2560000000001" y="483.636"/>
      <point x="392.668" y="461.772"/>
      <point x="392.668" y="418.47599999999994" type="curve" smooth="yes"/>
      <point x="392.668" y="353.648"/>
      <point x="327.54800000000006" y="313.464"/>
      <point x="220.412" y="295.5" type="curve" smooth="yes"/>
      <point x="177.71200000000002" y="288.36"/>
      <point x="133.784" y="285.056"/>
    </contour>
  </outline>
</glyph>
<glyph name="f" format="2">
  <advance width="318.992"/>
  <unicode hex="0066"/>
  <outline>
    <contour>
      <point x="-29.676" y="-220.0" type="curve" smooth="yes"/>
      <point x="56.804" y="-220.0"/>
      <point x="101.97800000000001" y="-157.296"/>
      <point x="123.384" y="-21.941999999999993" type="curve" smooth="yes"/>
      <point x="194.454" y="429.164" type="line"/>
      <point x="342.146" y="429.164" type="line"/>
      <point x="352.276" y="492.37" type="line"/>
      <point x="204.46" y="492.37" type="line"/>
      <point x="225.122" y="625.7320000000001"/>
      <point x="265.366" y="680.16"/>
      <point x="340.00600000000003" y="680.16" type="curve" smooth="yes"/>
      <point x="375.64" y="680.16"/>
      <point x="405.1700000000001" y="673.38"/>
      <point x="436.17600000000004" y="664.02" type="curve"/>
      <point x="457.346" y="727.28" type="line"/>
      <point x="416.76" y="742.106"/>
      <point x="378.008" y="750.0"/>
      <point x="335.396" y="750.0" type="curve" smooth="yes"/>
      <point x="220.454" y="750.0"/>
      <point x="153.612" y="672.0580000000001"/>
      <point x="125.85" y="492.37" type="curve"/>
      <point x="47.38" y="484.724" type="line"/>
      <point x="38.312000000000005" y="429.164" type="line"/>
      <point x="115.72" y="429.164" type="line"/>
      <point x="45.44200000000001" y="-17.852000000000004" type="line" smooth="yes"/>
      <point x="30.962000000000003" y="-108.81600000000002"/>
      <point x="8.4" y="-151.602"/>
      <point x="-43.346000000000004" y="-151.602" type="curve" smooth="yes"/>
      <point x="-56.07200000000001" y="-151.602"/>
      <point x="-68.362" y="-149.698"/>
      <point x="-84.074" y="-144.394" type="curve"/>
      <point x="-101.58399999999999" y="-207.64600000000002" type="line"/>
      <point x="-78.398" y="-216.236"/>
      <point x="-55.873999999999995" y="-220.0"/>
    </contour>
  </outline>
</glyph>
<glyph name="g" format="2">
  <advance width="504.364"/>
  <unicode hex="0067"/>
  <note>
16
</note>
  <anchor x="163.94" y="-214.62" name="bottom"/>
  <anchor x="300.14399999999995" y="536.2" name="top"/>
  <outline>
    <contour>
      <point x="-2.604" y="-188.484" type="line"/>
      <point x="47.456" y="-207.976"/>
      <point x="108.37599999999999" y="-220.0"/>
      <point x="168.56" y="-220.0" type="curve" smooth="yes"/>
      <point x="299.628" y="-220.0"/>
      <point x="373.39599999999996" y="-147.256"/>
      <point x="396.33200000000005" y="1.9160000000000037" type="curve" smooth="yes"/>
      <point x="478.928" y="518.884" type="line"/>
      <point x="441.05600000000004" y="534.34"/>
      <point x="374.01599999999996" y="546.2"/>
      <point x="320.79200000000003" y="546.2" type="curve" smooth="yes"/>
      <point x="120.14399999999999" y="546.2"/>
      <point x="25.496000000000002" y="371.136"/>
      <point x="25.496000000000002" y="166.48" type="curve" smooth="yes"/>
      <point x="25.496000000000002" y="62.592000000000006"/>
      <point x="80.484" y="-2.5600000000000005"/>
      <point x="178.9" y="-2.5600000000000005" type="curve" smooth="yes"/>
      <point x="220.78799999999998" y="-2.5600000000000005"/>
      <point x="280.104" y="13.732000000000001"/>
      <point x="323.168" y="37.532000000000004" type="curve"/>
      <point x="317.64799999999997" y="-0.35999999999999666" type="line" smooth="yes"/>
      <point x="301.52000000000004" y="-108.43200000000002"/>
      <point x="250.88400000000001" y="-153.24800000000002"/>
      <point x="162.688" y="-153.24800000000002" type="curve" smooth="yes"/>
      <point x="115.96800000000002" y="-153.24800000000002"/>
      <point x="61.692" y="-142.31199999999998"/>
      <point x="18.276000000000003" y="-125.76799999999999" type="curve"/>
    </contour>
    <contour>
      <point x="391.588" y="468.12800000000004" type="curve"/>
      <point x="333.292" y="102.16" type="line"/>
      <point x="301.58000000000004" y="80.6"/>
      <point x="249.46000000000004" y="62.711999999999996"/>
      <point x="213.368" y="62.711999999999996" type="curve" smooth="yes"/>
      <point x="147.34799999999998" y="62.711999999999996"/>
      <point x="106.02799999999999" y="104.74399999999999"/>
      <point x="106.02799999999999" y="188.22" type="curve" smooth="yes"/>
      <point x="106.02799999999999" y="336.212"/>
      <point x="186.504" y="483.63599999999997"/>
      <point x="308.644" y="483.63599999999997" type="curve" smooth="yes"/>
      <point x="346.432" y="483.63599999999997"/>
      <point x="369.92800000000005" y="475.57199999999995"/>
    </contour>
  </outline>
</glyph>
<glyph name="h" format="2">
  <advance width="515.9"/>
  <unicode hex="0068"/>
  <note>
16
</note>
  <anchor x="222.704" y="0.0" name="bottom"/>
  <anchor x="275.336" y="373.1" name="center"/>
  <anchor x="331.768" y="740.0" name="top"/>
  <outline>
    <contour>
      <point x="422.80400000000003" y="89.476" type="curve" smooth="yes"/>
      <point x="422.80400000000003" y="122.27600000000001"/>
      <point x="472.45200000000006" y="394.42800000000005"/>
      <point x="472.45200000000006" y="436.86" type="curve" smooth="yes"/>
      <point x="472.45200000000006" y="502.644"/>
      <point x="436.5919999999999" y="546.2"/>
      <point x="354.70799999999997" y="546.2" type="curve" smooth="yes"/>
      <point x="291.288" y="546.2"/>
      <point x="238.34800000000004" y="524.5400000000001"/>
      <point x="177.816" y="492.604" type="curve"/>
      <point x="217.424" y="740.0" type="line"/>
      <point x="138.28400000000002" y="740.0" type="line"/>
      <point x="20.664000000000005" y="0.0" type="line"/>
      <point x="99.80400000000002" y="0.0" type="line"/>
      <point x="167.768" y="431.62" type="line"/>
      <point x="218.12800000000001" y="458.10400000000004"/>
      <point x="264.95599999999996" y="477.82800000000003"/>
      <point x="313.98800000000006" y="477.82800000000003" type="curve" smooth="yes"/>
      <point x="369.792" y="477.82800000000003"/>
      <point x="389.212" y="449.116"/>
      <point x="389.212" y="409.048" type="curve" smooth="yes"/>
      <point x="389.212" y="366.664"/>
      <point x="340.17199999999997" y="101.88"/>
      <point x="340.17199999999997" y="61.056" type="curve" smooth="yes"/>
      <point x="340.17199999999997" y="15.984"/>
      <point x="373.016" y="-10.0"/>
      <point x="418.516" y="-10.0" type="curve" smooth="yes"/>
      <point x="437.65200000000004" y="-10.0"/>
      <point x="460.484" y="-6.368"/>
      <point x="478.508" y="1.8719999999999994" type="curve"/>
      <point x="480.088" y="64.44800000000001" type="line"/>
      <point x="469.79599999999994" y="60.688"/>
      <point x="460.50399999999996" y="58.764"/>
      <point x="452.364" y="58.764" type="curve" smooth="yes"/>
      <point x="432.62800000000004" y="58.764"/>
      <point x="422.80400000000003" y="69.43599999999999"/>
    </contour>
  </outline>
</glyph>
<glyph name="i" format="2">
  <advance width="208.536"/>
  <unicode hex="0069"/>
  <note>
Ajuster pts sur points
8
</note>
  <anchor x="60.071056000000006" y="0.0" name="bottom"/>
  <anchor x="99.714" y="0.0" name="ogonek"/>
  <anchor x="145.290944" y="536.2" name="top"/>
  <outline>
    <contour>
      <point x="21.546" y="0.0" type="line"/>
      <point x="99.714" y="0.0" type="line"/>
      <point x="184.51999999999998" y="536.2" type="line"/>
      <point x="106.186" y="536.2" type="line"/>
    </contour>
    <contour>
      <point x="177.274" y="734.8" type="curve" smooth="yes"/>
      <point x="137.26199999999997" y="734.8"/>
      <point x="122.428" y="715.31"/>
      <point x="120.91" y="674.7" type="curve" smooth="yes"/>
      <point x="120.496" y="652.406"/>
      <point x="134.638" y="642.9540000000001"/>
      <point x="160.88400000000001" y="642.9540000000001" type="curve" smooth="yes"/>
      <point x="198.98999999999998" y="642.9540000000001"/>
      <point x="215.882" y="661.08"/>
      <point x="217.676" y="703.64" type="curve" smooth="yes"/>
      <point x="218.09" y="725.534"/>
      <point x="204.59" y="734.8"/>
    </contour>
  </outline>
</glyph>
<glyph name="j" format="2">
  <advance width="217.27200000000002"/>
  <unicode hex="006A"/>
  <note>
idem /i
12
</note>
  <outline>
    <contour>
      <point x="186.134" y="734.8" type="curve" smooth="yes"/>
      <point x="145.998" y="734.8"/>
      <point x="131.84" y="715.31"/>
      <point x="130.322" y="674.7" type="curve" smooth="yes"/>
      <point x="129.908" y="652.406"/>
      <point x="143.808" y="642.9540000000001"/>
      <point x="170.05399999999997" y="642.9540000000001" type="curve" smooth="yes"/>
      <point x="207.146" y="642.9540000000001"/>
      <point x="224.19000000000003" y="661.08"/>
      <point x="225.984" y="703.64" type="curve" smooth="yes"/>
      <point x="226.398" y="725.534"/>
      <point x="213.45" y="734.8"/>
    </contour>
    <contour>
      <point x="193.69" y="536.2" type="line"/>
      <point x="115.046" y="536.2" type="line"/>
      <point x="24.208000000000002" y="-38.348" type="line" smooth="yes"/>
      <point x="12.916" y="-109.48"/>
      <point x="-8.163999999999996" y="-151.602"/>
      <point x="-57.01" y="-151.602" type="curve" smooth="yes"/>
      <point x="-69.84" y="-151.602"/>
      <point x="-84.06200000000001" y="-150.098"/>
      <point x="-101.272" y="-143.814" type="curve"/>
      <point x="-118.444" y="-209.174" type="line"/>
      <point x="-95.686" y="-217.10399999999998"/>
      <point x="-65.69200000000001" y="-220.0"/>
      <point x="-47.040000000000006" y="-220.0" type="curve" smooth="yes"/>
      <point x="43.153999999999996" y="-220.0"/>
      <point x="83.752" y="-157.652"/>
      <point x="102.47200000000001" y="-38.388" type="curve" smooth="yes"/>
    </contour>
  </outline>
</glyph>
<glyph name="l" format="2">
  <advance width="243.732"/>
  <unicode hex="006C"/>
  <anchor x="121.116" y="0.0" name="bottom"/>
  <anchor x="127.41474399999998" y="373.1" name="center"/>
  <anchor x="177.56799999999998" y="740.0" name="top"/>
  <anchor x="284.23999999999995" y="740.0" name="topright"/>
  <outline>
    <contour>
      <point x="138.40800000000002" y="740.0" type="line"/>
      <point x="39.866" y="118.54" type="line" smooth="yes"/>
      <point x="37.908" y="105.192"/>
      <point x="35.708" y="88.104"/>
      <point x="35.708" y="73.374" type="curve" smooth="yes"/>
      <point x="35.708" y="21.934"/>
      <point x="61.562" y="-10.0"/>
      <point x="122.322" y="-10.0" type="curve" smooth="yes"/>
      <point x="153.12599999999998" y="-10.0"/>
      <point x="184.86" y="-3.506"/>
      <point x="210.342" y="5.89" type="curve"/>
      <point x="211.398" y="69.176" type="line"/>
      <point x="191.84599999999998" y="63.872"/>
      <point x="176.12000000000003" y="60.768"/>
      <point x="160.22799999999998" y="60.768" type="curve" smooth="yes"/>
      <point x="126.97" y="60.768"/>
      <point x="117.50000000000001" y="78.988"/>
      <point x="117.50000000000001" y="99.922" type="curve" smooth="yes"/>
      <point x="117.50000000000001" y="113.75399999999999"/>
      <point x="120.032" y="128.22"/>
      <point x="122.67399999999999" y="144.286" type="curve" smooth="yes"/>
      <point x="217.14200000000002" y="740.0" type="line"/>
    </contour>
  </outline>
</glyph>
<glyph name="m" format="2">
  <advance width="770.404"/>
  <unicode hex="006D"/>
  <note>
24&gt;23 points
un point de trop dans la jointure avec 2e jambage
</note>
  <outline>
    <contour>
      <point x="672.896" y="-10.0" type="curve" smooth="yes"/>
      <point x="691.7840000000001" y="-10.0"/>
      <point x="715.2360000000001" y="-6.678"/>
      <point x="733.1360000000001" y="1.6859999999999995" type="curve"/>
      <point x="734.468" y="63.332" type="line"/>
      <point x="724.61" y="59.572"/>
      <point x="714.7600000000001" y="58.206"/>
      <point x="706.744" y="58.206" type="curve" smooth="yes"/>
      <point x="687.1320000000001" y="58.206"/>
      <point x="676.612" y="69.22200000000001"/>
      <point x="676.612" y="89.88199999999999" type="curve" smooth="yes"/>
      <point x="676.612" y="126.216"/>
      <point x="727.1279999999999" y="395.35799999999995"/>
      <point x="727.1279999999999" y="437.604" type="curve" smooth="yes"/>
      <point x="727.1279999999999" y="501.77600000000007"/>
      <point x="690.538" y="546.2"/>
      <point x="608.8399999999999" y="546.2" type="curve" smooth="yes"/>
      <point x="549.446" y="546.2"/>
      <point x="495.84" y="523.266"/>
      <point x="436.27599999999995" y="484.09" type="curve"/>
      <point x="422.704" y="521.614"/>
      <point x="389.81399999999996" y="546.2"/>
      <point x="333.36199999999997" y="546.2" type="curve" smooth="yes"/>
      <point x="279.69" y="546.2"/>
      <point x="227.144" y="524.3000000000001"/>
      <point x="170.53400000000002" y="489.828" type="curve"/>
      <point x="177.72000000000003" y="536.2" type="line"/>
      <point x="105.648" y="536.2" type="line"/>
      <point x="20.994000000000007" y="0.0" type="line"/>
      <point x="99.452" y="0.0" type="line"/>
      <point x="168.064" y="434.046" type="line"/>
      <point x="212.362" y="460.856"/>
      <point x="252.68599999999998" y="477.89000000000004"/>
      <point x="292.452" y="477.89000000000004" type="curve" smooth="yes"/>
      <point x="346.656" y="477.89000000000004"/>
      <point x="364.66" y="446.5"/>
      <point x="364.66" y="406.58599999999996" type="curve" smooth="yes"/>
      <point x="364.66" y="384.58799999999997"/>
      <point x="323.966" y="137.776"/>
      <point x="303.06399999999996" y="0.0" type="curve"/>
      <point x="381.254" y="0.0" type="line"/>
      <point x="400.48199999999997" y="126.96599999999998"/>
      <point x="436.774" y="353.878"/>
      <point x="442.478" y="406.324" type="curve" smooth="yes"/>
      <point x="442.788" y="413.904"/>
      <point x="442.966" y="425.08"/>
      <point x="442.31000000000006" y="431.81199999999995" type="curve"/>
      <point x="484.13" y="458.172"/>
      <point x="525.11" y="477.51800000000003"/>
      <point x="570.7339999999999" y="477.51800000000003" type="curve" smooth="yes"/>
      <point x="624.606" y="477.51800000000003"/>
      <point x="643.984" y="449.026"/>
      <point x="643.984" y="407.082" type="curve" smooth="yes"/>
      <point x="643.984" y="364.77400000000006"/>
      <point x="595.282" y="103.43"/>
      <point x="595.282" y="61.552" type="curve" smooth="yes"/>
      <point x="595.282" y="14.744"/>
      <point x="627.644" y="-10.0"/>
    </contour>
  </outline>
</glyph>
<glyph name="n" format="2">
  <advance width="515.072"/>
  <unicode hex="006E"/>
  <note>
16
</note>
  <anchor x="228.46200000000002" y="0.0" name="bottom"/>
  <anchor x="293.16200000000003" y="536.2" name="top"/>
  <outline>
    <contour>
      <point x="105.648" y="536.2" type="line"/>
      <point x="20.994000000000007" y="0.0" type="line"/>
      <point x="99.328" y="0.0" type="line"/>
      <point x="167.974" y="432.24" type="line"/>
      <point x="218.254" y="458.808"/>
      <point x="264.12800000000004" y="478.304"/>
      <point x="313.966" y="478.304" type="curve" smooth="yes"/>
      <point x="369.12200000000007" y="478.304"/>
      <point x="389.7" y="449.894"/>
      <point x="389.7" y="407.702" type="curve" smooth="yes"/>
      <point x="389.7" y="363.96999999999997"/>
      <point x="340.874" y="104.67"/>
      <point x="340.874" y="60.064" type="curve" smooth="yes"/>
      <point x="340.874" y="16.046"/>
      <point x="372.68399999999997" y="-10.0"/>
      <point x="417.93600000000004" y="-10.0" type="curve" smooth="yes"/>
      <point x="436.824" y="-10.0"/>
      <point x="459.904" y="-6.678"/>
      <point x="477.80400000000003" y="1.6859999999999995" type="curve"/>
      <point x="479.13599999999997" y="63.332" type="line"/>
      <point x="469.278" y="59.572"/>
      <point x="459.42800000000005" y="58.206"/>
      <point x="451.41200000000003" y="58.206" type="curve" smooth="yes"/>
      <point x="431.8" y="58.206"/>
      <point x="421.832" y="68.94"/>
      <point x="421.832" y="89.042" type="curve" smooth="yes"/>
      <point x="421.832" y="122.028"/>
      <point x="472.53400000000005" y="394.05600000000004"/>
      <point x="472.53400000000005" y="436.488" type="curve" smooth="yes"/>
      <point x="472.53400000000005" y="503.88400000000007"/>
      <point x="432.974" y="546.2"/>
      <point x="353.694" y="546.2" type="curve" smooth="yes"/>
      <point x="289.22" y="546.2"/>
      <point x="231.42000000000002" y="523.79"/>
      <point x="170.54" y="488.58600000000007" type="curve"/>
      <point x="178.092" y="536.2" type="line"/>
    </contour>
  </outline>
</glyph>
<glyph name="o" format="2">
  <advance width="497.28"/>
  <unicode hex="006F"/>
  <note>
8
</note>
  <anchor x="217.82" y="0.0" name="bottom"/>
  <anchor x="253.54" y="270.86" name="center"/>
  <anchor x="286.8" y="1.5199999999999998" name="ogonek"/>
  <anchor x="286.92" y="536.2" name="top"/>
  <anchor x="387.96" y="528.96" name="topright"/>
  <outline>
    <contour>
      <point x="222.28" y="-10.0" type="curve" smooth="yes"/>
      <point x="386.88" y="-10.0"/>
      <point x="463.1" y="161.58000000000004"/>
      <point x="463.1" y="355.8" type="curve" smooth="yes"/>
      <point x="463.1" y="483.5799999999999"/>
      <point x="393.55999999999995" y="546.82"/>
      <point x="274.1" y="546.82" type="curve" smooth="yes"/>
      <point x="106.92" y="546.82"/>
      <point x="30.8" y="364.28000000000003"/>
      <point x="30.8" y="179.02" type="curve" smooth="yes"/>
      <point x="30.8" y="51.72"/>
      <point x="96.72" y="-10.0"/>
    </contour>
    <contour>
      <point x="219.32" y="53.260000000000005" type="curve" smooth="yes"/>
      <point x="146.4" y="53.260000000000005"/>
      <point x="108.07999999999998" y="92.1"/>
      <point x="108.07999999999998" y="179.92" type="curve" smooth="yes"/>
      <point x="108.07999999999998" y="318.8"/>
      <point x="162.94" y="483.56"/>
      <point x="274.96000000000004" y="483.56" type="curve" smooth="yes"/>
      <point x="343.26" y="483.56"/>
      <point x="384.58000000000004" y="442.82"/>
      <point x="384.58000000000004" y="360.1" type="curve" smooth="yes"/>
      <point x="384.58000000000004" y="208.77999999999997"/>
      <point x="331.24" y="53.260000000000005"/>
    </contour>
  </outline>
</glyph>
<glyph name="p" format="2">
  <advance width="506.27000000000004"/>
  <unicode hex="0070"/>
  <note>
14 point
</note>
  <outline>
    <contour>
      <point x="-11.467999999999998" y="-210.0" type="line"/>
      <point x="66.328" y="-210.0" type="line"/>
      <point x="100.15599999999999" y="2.8640000000000003" type="line"/>
      <point x="126.746" y="-3.7579999999999996"/>
      <point x="160.16199999999998" y="-9.69"/>
      <point x="200.61400000000003" y="-9.69" type="curve" smooth="yes"/>
      <point x="374.98" y="-9.69"/>
      <point x="479.36600000000004" y="161.21"/>
      <point x="479.36600000000004" y="365.82800000000003" type="curve" smooth="yes"/>
      <point x="479.36600000000004" y="484.756"/>
      <point x="430.332" y="546.2"/>
      <point x="334.648" y="546.2" type="curve" smooth="yes"/>
      <point x="271.95799999999997" y="546.2"/>
      <point x="223.852" y="521.268"/>
      <point x="172.4" y="487.68000000000006" type="curve"/>
      <point x="177.16" y="540.34" type="line"/>
      <point x="106.6" y="540.34" type="line"/>
    </contour>
    <contour>
      <point x="194.79200000000003" y="52.605999999999995" type="curve" smooth="yes"/>
      <point x="160.81600000000003" y="52.605999999999995"/>
      <point x="132.35999999999999" y="58.746"/>
      <point x="110.286" y="65.506" type="curve"/>
      <point x="167.57399999999998" y="428.1" type="line"/>
      <point x="211.51999999999998" y="458.66400000000004"/>
      <point x="257.77399999999994" y="477.084"/>
      <point x="300.268" y="477.084" type="curve" smooth="yes"/>
      <point x="366.25" y="477.084"/>
      <point x="399.916" y="434.83"/>
      <point x="399.916" y="347.672" type="curve" smooth="yes"/>
      <point x="399.916" y="196.32"/>
      <point x="320.13" y="52.605999999999995"/>
    </contour>
  </outline>
</glyph>
<glyph name="q" format="2">
  <advance width="503.578"/>
  <unicode hex="0071"/>
  <note>
12
</note>
  <outline>
    <contour>
      <point x="478.322" y="522.2379999999999" type="line"/>
      <point x="433.0180000000001" y="534.306"/>
      <point x="373.76" y="546.2"/>
      <point x="313.05" y="546.2" type="curve" smooth="yes"/>
      <point x="117.09799999999998" y="546.2"/>
      <point x="25.144" y="344.72400000000005"/>
      <point x="25.144" y="161.05800000000002" type="curve" smooth="yes"/>
      <point x="25.144" y="51.824000000000005"/>
      <point x="81.662" y="-10.0"/>
      <point x="175.54799999999997" y="-10.0" type="curve" smooth="yes"/>
      <point x="230.106" y="-10.0"/>
      <point x="276.18" y="9.554"/>
      <point x="323.97600000000006" y="43.902" type="curve"/>
      <point x="282.802" y="-210.0" type="line"/>
      <point x="361.53" y="-210.0" type="line"/>
    </contour>
    <contour>
      <point x="391.602" y="469.868" type="curve"/>
      <point x="333.486" y="104.444" type="line"/>
      <point x="288.368" y="71.914"/>
      <point x="247.01200000000003" y="58.18600000000001"/>
      <point x="205.55200000000002" y="58.18600000000001" type="curve" smooth="yes"/>
      <point x="143.63799999999998" y="58.18600000000001"/>
      <point x="103.732" y="102.548"/>
      <point x="103.732" y="176.69400000000002" type="curve" smooth="yes"/>
      <point x="103.732" y="321.28400000000005"/>
      <point x="173.51" y="483.07800000000003"/>
      <point x="303.026" y="483.07800000000003" type="curve" smooth="yes"/>
      <point x="337.62" y="483.07800000000003"/>
      <point x="368.63" y="476.21400000000006"/>
    </contour>
  </outline>
</glyph>
<glyph name="r" format="2">
  <advance width="358.56"/>
  <unicode hex="0072"/>
  <anchor x="58.824000000000005" y="0.0" name="bottom"/>
  <anchor x="249.51000000000005" y="536.2" name="top"/>
  <outline>
    <contour>
      <point x="176.824" y="536.2" type="line"/>
      <point x="105.896" y="536.2" type="line"/>
      <point x="20.870000000000005" y="0.0" type="line"/>
      <point x="98.618" y="0.0" type="line"/>
      <point x="162.802" y="403.4680000000001" type="line"/>
      <point x="218.62800000000001" y="451.61600000000004"/>
      <point x="265.24" y="469.706"/>
      <point x="308.174" y="469.706" type="curve" smooth="yes"/>
      <point x="329.36199999999997" y="469.706"/>
      <point x="353.584" y="466.016"/>
      <point x="374.666" y="459.73999999999995" type="curve"/>
      <point x="398.43999999999994" y="535.0480000000001" type="line"/>
      <point x="379.538" y="542.082"/>
      <point x="354.77" y="546.2"/>
      <point x="328.298" y="546.2" type="curve" smooth="yes"/>
      <point x="277.246" y="546.2"/>
      <point x="228.066" y="523.612"/>
      <point x="166.182" y="469.956" type="curve"/>
    </contour>
  </outline>
</glyph>
<glyph name="s" format="2">
  <advance width="430.5"/>
  <unicode hex="0073"/>
  <anchor x="177.26" y="0.0" name="bottom"/>
  <anchor x="265.06" y="536.2" name="top"/>
  <outline>
    <contour>
      <point x="-10.440000000000001" y="21.86" type="line"/>
      <point x="37.0" y="3.6200000000000006"/>
      <point x="96.24000000000001" y="-10.0"/>
      <point x="169.06" y="-10.0" type="curve" smooth="yes"/>
      <point x="308.16" y="-10.0"/>
      <point x="385.03999999999996" y="45.42"/>
      <point x="385.03999999999996" y="150.56" type="curve" smooth="yes"/>
      <point x="385.03999999999996" y="320.28"/>
      <point x="134.78" y="285.03999999999996"/>
      <point x="134.78" y="399.70000000000005" type="curve" smooth="yes"/>
      <point x="134.78" y="447.96"/>
      <point x="171.8" y="482.94"/>
      <point x="262.09999999999997" y="482.94" type="curve" smooth="yes"/>
      <point x="309.0" y="482.94"/>
      <point x="358.82" y="471.94"/>
      <point x="397.29999999999995" y="458.32" type="curve"/>
      <point x="417.32" y="520.34" type="line"/>
      <point x="379.6" y="535.58"/>
      <point x="324.73999999999995" y="546.2"/>
      <point x="270.44" y="546.2" type="curve" smooth="yes"/>
      <point x="125.8" y="546.2"/>
      <point x="59.120000000000005" y="483.48"/>
      <point x="59.120000000000005" y="392.26" type="curve" smooth="yes"/>
      <point x="59.120000000000005" y="220.68"/>
      <point x="309.0" y="259.68"/>
      <point x="309.0" y="138.64000000000001" type="curve" smooth="yes"/>
      <point x="309.0" y="88.62"/>
      <point x="268.21999999999997" y="53.26"/>
      <point x="175.29999999999998" y="53.26" type="curve" smooth="yes"/>
      <point x="115.88" y="53.26"/>
      <point x="52.06" y="68.49999999999999"/>
      <point x="10.58" y="85.5" type="curve"/>
    </contour>
  </outline>
</glyph>
<glyph name="t" format="2">
  <advance width="342.272"/>
  <unicode hex="0074"/>
  <anchor x="170.37" y="0.0" name="bottom"/>
  <anchor x="165.068" y="299.012" name="center"/>
  <anchor x="190.43" y="662.9540000000001" name="top"/>
  <anchor x="346.99199999999996" y="766.03" name="topright"/>
  <outline>
    <contour>
      <point x="296.8419999999999" y="76.05" type="line"/>
      <point x="266.206" y="66.848"/>
      <point x="237.42000000000002" y="60.274"/>
      <point x="210.662" y="60.274" type="curve" smooth="yes"/>
      <point x="159.552" y="60.274"/>
      <point x="140.906" y="84.90800000000002"/>
      <point x="140.906" y="126.86400000000002" type="curve" smooth="yes"/>
      <point x="140.906" y="137.89399999999998"/>
      <point x="142.196" y="149.79999999999998"/>
      <point x="144.162" y="163.258" type="curve" smooth="yes"/>
      <point x="193.71800000000002" y="473.54600000000005" type="line"/>
      <point x="357.924" y="473.54600000000005" type="line"/>
      <point x="368.674" y="536.2" type="line"/>
      <point x="204.096" y="536.2" type="line"/>
      <point x="224.194" y="662.9540000000001" type="line"/>
      <point x="158.19799999999998" y="662.9540000000001" type="line"/>
      <point x="126.444" y="536.2" type="line"/>
      <point x="41.178" y="528.464" type="line"/>
      <point x="31.4" y="473.73199999999997" type="line"/>
      <point x="115.322" y="473.73199999999997" type="line"/>
      <point x="65.33200000000001" y="158.23600000000002" type="line" smooth="yes"/>
      <point x="61.71200000000001" y="136.744"/>
      <point x="59.568" y="112.64"/>
      <point x="59.568" y="96.554" type="curve" smooth="yes"/>
      <point x="59.568" y="20.678"/>
      <point x="102.06" y="-10.0"/>
      <point x="172.458" y="-10.0" type="curve" smooth="yes"/>
      <point x="210.248" y="-10.0"/>
      <point x="251.928" y="-3.0360000000000005"/>
      <point x="295.97999999999996" y="12.832" type="curve"/>
    </contour>
  </outline>
</glyph>
<glyph name="u" format="2">
  <advance width="508.02000000000004"/>
  <unicode hex="0075"/>
  <note>
15
</note>
  <anchor x="209.422" y="0.0" name="bottom"/>
  <anchor x="465.93" y="6.014" name="ogonek"/>
  <anchor x="288.55941600000006" y="536.2" name="top"/>
  <anchor x="472.46600000000007" y="536.2" name="topright"/>
  <outline>
    <contour>
      <point x="154.732" y="-10.0" type="curve" smooth="yes"/>
      <point x="217.302" y="-10.0"/>
      <point x="270.626" y="10.71"/>
      <point x="332.82399999999996" y="49.832" type="curve"/>
      <point x="339.21200000000005" y="10.292"/>
      <point x="365.48" y="-10.0"/>
      <point x="404.134" y="-10.0" type="curve" smooth="yes"/>
      <point x="421.80600000000004" y="-10.0"/>
      <point x="448.17" y="-3.672000000000001"/>
      <point x="465.93" y="7.378" type="curve"/>
      <point x="466.87600000000003" y="63.56" type="line"/>
      <point x="455.874" y="59.428000000000004"/>
      <point x="444.726" y="57.358000000000004"/>
      <point x="439.152" y="57.358000000000004" type="curve" smooth="yes"/>
      <point x="419.08400000000006" y="57.358000000000004"/>
      <point x="409.834" y="68.416"/>
      <point x="409.834" y="93.13199999999999" type="curve" smooth="yes"/>
      <point x="409.834" y="102.976"/>
      <point x="411.66200000000003" y="122.43"/>
      <point x="478.046" y="536.2" type="curve"/>
      <point x="399.74600000000004" y="536.2" type="line"/>
      <point x="332.12800000000004" y="101.836" type="line"/>
      <point x="282.10999999999996" y="73.336"/>
      <point x="239.706" y="57.275999999999996"/>
      <point x="190.538" y="57.275999999999996" type="curve" smooth="yes"/>
      <point x="142.772" y="57.275999999999996"/>
      <point x="118.44800000000001" y="83.25"/>
      <point x="118.82000000000001" y="123.08" type="curve" smooth="yes"/>
      <point x="122.16799999999999" y="157.78799999999998"/>
      <point x="127.87999999999998" y="197.388"/>
      <point x="181.69199999999998" y="536.2" type="curve"/>
      <point x="103.482" y="536.2" type="line"/>
      <point x="52.620000000000005" y="209.172"/>
      <point x="37.448" y="128.99200000000002"/>
      <point x="37.448" y="93.66" type="curve" smooth="yes"/>
      <point x="37.448" y="31.147999999999996"/>
      <point x="77.968" y="-10.0"/>
    </contour>
  </outline>
</glyph>
<glyph name="v" format="2">
  <advance width="443.408"/>
  <unicode hex="0076"/>
  <outline>
    <contour>
      <point x="218.786" y="-1.2559999999999998" type="line"/>
      <point x="392.668" y="318.25600000000003"/>
      <point x="455.842" y="410.3"/>
      <point x="461.864" y="536.2" type="curve"/>
      <point x="381.12" y="536.2" type="line"/>
      <point x="376.058" y="431.272"/>
      <point x="337.656" y="370.21799999999996"/>
      <point x="184.994" y="70.04999999999998" type="curve"/>
      <point x="125.412" y="538.96" type="line"/>
      <point x="43.738" y="536.8280000000001" type="line"/>
      <point x="125.99" y="-1.2559999999999998" type="line"/>
    </contour>
  </outline>
</glyph>
<glyph name="w" format="2">
  <advance width="674.7339999999999"/>
  <unicode hex="0077"/>
  <note>
15
</note>
  <anchor x="302.958" y="0.0" name="bottom"/>
  <anchor x="365.918" y="536.2" name="top"/>
  <outline>
    <contour>
      <point x="468.28200000000004" y="0.0" type="line"/>
      <point x="636.606" y="323.294"/>
      <point x="686.95" y="423.198"/>
      <point x="690.462" y="536.2" type="curve"/>
      <point x="616.9720000000001" y="536.2" type="line"/>
      <point x="610.592" y="435.474"/>
      <point x="583.686" y="368.55"/>
      <point x="434.50600000000003" y="72.26" type="curve"/>
      <point x="414.48199999999997" y="512.174" type="line"/>
      <point x="327.514" y="512.174" type="line"/>
      <point x="266.008" y="360.39"/>
      <point x="205.81199999999998" y="219.208"/>
      <point x="142.81799999999998" y="72.632" type="curve"/>
      <point x="120.56" y="538.96" type="line"/>
      <point x="44.466" y="536.9520000000001" type="line"/>
      <point x="81.69" y="0.0" type="line"/>
      <point x="175.41599999999997" y="0.0" type="line"/>
      <point x="235.682" y="135.47000000000003"/>
      <point x="297.80799999999994" y="277.698"/>
      <point x="355.09799999999996" y="410.68800000000005" type="curve"/>
      <point x="379.888" y="0.0" type="line"/>
    </contour>
  </outline>
</glyph>
<glyph name="x" format="2">
  <advance width="454.22"/>
  <unicode hex="0078"/>
  <outline>
    <contour>
      <point x="397.94" y="536.2" type="line"/>
      <point x="380.18" y="458.82"/>
      <point x="348.36" y="402.88000000000005"/>
      <point x="251.58" y="323.68" type="curve"/>
      <point x="155.18" y="542.58" type="line"/>
      <point x="70.6" y="535.58" type="line"/>
      <point x="193.18" y="286.54" type="line"/>
      <point x="61.62" y="191.06"/>
      <point x="3.1000000000000005" y="102.58"/>
      <point x="-14.24" y="0.0" type="curve"/>
      <point x="65.75999999999999" y="0.0" type="line"/>
      <point x="83.41999999999999" y="90.6"/>
      <point x="126.17999999999999" y="150.64000000000001"/>
      <point x="221.64" y="225.66" type="curve"/>
      <point x="321.69999999999993" y="-3.52" type="line"/>
      <point x="405.90000000000003" y="1.6199999999999999" type="line"/>
      <point x="277.8" y="266.9" type="line"/>
      <point x="409.3" y="364.04"/>
      <point x="460.21999999999997" y="459.96000000000004"/>
      <point x="476.94" y="536.2" type="curve"/>
    </contour>
  </outline>
</glyph>
<glyph name="y" format="2">
  <advance width="449.40000000000003"/>
  <unicode hex="0079"/>
  <anchor x="161.5" y="-210.0" name="bottom"/>
  <anchor x="254.45999999999998" y="536.2" name="top"/>
  <outline>
    <contour>
      <point x="389.59999999999997" y="540.34" type="line"/>
      <point x="371.46000000000004" y="394.3"/>
      <point x="288.81999999999994" y="216.48000000000002"/>
      <point x="204.07999999999998" y="60.5" type="curve"/>
      <point x="121.9" y="543.1" type="line"/>
      <point x="39.66" y="540.34" type="line"/>
      <point x="138.48000000000002" y="-2.76" type="line"/>
      <point x="164.42" y="-2.76" type="line"/>
      <point x="121.75999999999999" y="-77.56"/>
      <point x="75.38" y="-146.7"/>
      <point x="30.560000000000002" y="-208.62" type="curve"/>
      <point x="111.9" y="-216.9" type="line"/>
      <point x="259.16" y="1.1999999999999966"/>
      <point x="447.5" y="336.18"/>
      <point x="468.98" y="538.96" type="curve"/>
    </contour>
  </outline>
</glyph>
<glyph name="z" format="2">
  <advance width="456.434"/>
  <unicode hex="007A"/>
  <anchor x="198.77200000000002" y="0.0" name="bottom"/>
  <anchor x="225.79399999999998" y="275.0" name="center"/>
  <anchor x="269.732" y="536.2" name="top"/>
  <outline>
    <contour>
      <point x="-2.3400000000000016" y="0.0" type="line"/>
      <point x="396.962" y="0.0" type="line"/>
      <point x="407.21599999999995" y="63.57" type="line"/>
      <point x="103.446" y="63.57" type="line"/>
      <point x="449.428" y="475.54400000000004" type="line"/>
      <point x="460.674" y="536.2" type="line"/>
      <point x="89.396" y="536.2" type="line"/>
      <point x="78.832" y="472.25800000000004" type="line"/>
      <point x="355.446" y="472.25800000000004" type="line"/>
      <point x="6.108" y="57.68" type="line"/>
    </contour>
  </outline>
</glyph>
<glyph name="braceleft" format="2">
  <advance width="310.004"/>
  <unicode hex="007B"/>
  <outline>
    <contour>
      <point x="45.1" y="-103.84" type="curve" smooth="yes"/>
      <point x="45.1" y="-169.86"/>
      <point x="79.63199999999999" y="-210.0"/>
      <point x="148.72600000000003" y="-210.0" type="curve" smooth="yes"/>
      <point x="203.45600000000002" y="-210.0" type="line"/>
      <point x="213.462" y="-149.07999999999998" type="line"/>
      <point x="176.774" y="-149.07999999999998" type="line" smooth="yes"/>
      <point x="131.742" y="-149.07999999999998"/>
      <point x="115.608" y="-122.10000000000001"/>
      <point x="115.608" y="-85.148" type="curve" smooth="yes"/>
      <point x="115.608" y="10.707999999999998"/>
      <point x="183.57999999999998" y="94.18599999999999"/>
      <point x="183.57999999999998" y="192.82799999999997" type="curve" smooth="yes"/>
      <point x="183.57999999999998" y="224.27999999999997"/>
      <point x="174.582" y="252.608"/>
      <point x="144.932" y="268.45" type="curve"/>
      <point x="198.852" y="285.328"/>
      <point x="220.66000000000003" y="355.274"/>
      <point x="220.66000000000003" y="421.77000000000004" type="curve" smooth="yes"/>
      <point x="220.66000000000003" y="464.1"/>
      <point x="215.814" y="493.84200000000004"/>
      <point x="215.814" y="542.31" type="curve" smooth="yes"/>
      <point x="215.814" y="604.476"/>
      <point x="234.23" y="679.08"/>
      <point x="310.45000000000005" y="679.08" type="curve" smooth="yes"/>
      <point x="345.11000000000007" y="679.08" type="line"/>
      <point x="354.744" y="740.0" type="line"/>
      <point x="302.084" y="740.0" type="line" smooth="yes"/>
      <point x="185.09" y="740.0"/>
      <point x="147.51000000000002" y="636.366"/>
      <point x="147.51000000000002" y="537.096" type="curve" smooth="yes"/>
      <point x="147.51000000000002" y="490.17600000000004"/>
      <point x="152.79000000000002" y="455.842"/>
      <point x="152.79000000000002" y="419.50199999999995" type="curve" smooth="yes"/>
      <point x="152.79000000000002" y="362.36"/>
      <point x="140.224" y="299.944"/>
      <point x="92.29199999999999" y="299.944" type="curve" smooth="yes"/>
      <point x="77.354" y="299.944" type="line"/>
      <point x="67.53399999999999" y="238.28799999999998" type="line"/>
      <point x="81.92" y="238.28799999999998" type="line" smooth="yes"/>
      <point x="108.688" y="238.28799999999998"/>
      <point x="117.60600000000001" y="218.324"/>
      <point x="117.60600000000001" y="192.7" type="curve" smooth="yes"/>
      <point x="117.60600000000001" y="92.954"/>
      <point x="45.1" y="9.54"/>
    </contour>
  </outline>
</glyph>
<glyph name="bar" format="2">
  <advance width="200.024"/>
  <unicode hex="007C"/>
  <outline>
    <contour>
      <point x="214.51000000000002" y="790.1859999999999" type="line"/>
      <point x="149.70000000000002" y="790.1859999999999" type="line"/>
      <point x="-9.671999999999997" y="-210.0" type="line"/>
      <point x="55.2" y="-210.0" type="line"/>
    </contour>
  </outline>
</glyph>
<glyph name="braceright" format="2">
  <advance width="310.004"/>
  <unicode hex="007D"/>
  <outline>
    <contour>
      <point x="261.628" y="633.84" type="curve" smooth="yes"/>
      <point x="261.628" y="700.0459999999999"/>
      <point x="226.91" y="740.1859999999999"/>
      <point x="157.816" y="740.1859999999999" type="curve" smooth="yes"/>
      <point x="103.086" y="740.1859999999999" type="line"/>
      <point x="93.08" y="679.266" type="line"/>
      <point x="127.908" y="679.266" type="line" smooth="yes"/>
      <point x="173.126" y="679.266"/>
      <point x="189.44600000000003" y="652.1"/>
      <point x="189.44600000000003" y="615.148" type="curve" smooth="yes"/>
      <point x="189.44600000000003" y="518.92"/>
      <point x="121.47400000000002" y="442.888"/>
      <point x="121.47400000000002" y="340.34" type="curve" smooth="yes"/>
      <point x="121.47400000000002" y="309.446"/>
      <point x="130.286" y="281.118"/>
      <point x="160.30800000000002" y="265.462" type="curve"/>
      <point x="106.388" y="248.398"/>
      <point x="84.394" y="178.824"/>
      <point x="84.394" y="112.142" type="curve" smooth="yes"/>
      <point x="84.394" y="69.812"/>
      <point x="89.24000000000001" y="36.343999999999994"/>
      <point x="89.24000000000001" y="-11.752000000000002" type="curve" smooth="yes"/>
      <point x="89.24000000000001" y="-73.918"/>
      <point x="71.01" y="-148.89399999999998"/>
      <point x="-5.21" y="-148.89399999999998" type="curve" smooth="yes"/>
      <point x="-38.382" y="-148.89399999999998" type="line"/>
      <point x="-48.016" y="-210.0" type="line"/>
      <point x="4.458000000000003" y="-210.0" type="line" smooth="yes"/>
      <point x="121.452" y="-210.0"/>
      <point x="159.032" y="-103.948"/>
      <point x="159.032" y="-10.63" type="curve" smooth="yes"/>
      <point x="159.032" y="41.312"/>
      <point x="153.75199999999998" y="80.116"/>
      <point x="153.75199999999998" y="115.154" type="curve" smooth="yes"/>
      <point x="153.75199999999998" y="171.92399999999998"/>
      <point x="166.69000000000003" y="233.968"/>
      <point x="214.25" y="233.968" type="curve" smooth="yes"/>
      <point x="229.188" y="233.968" type="line"/>
      <point x="239.008" y="295.438" type="line"/>
      <point x="224.62199999999999" y="295.438" type="line" smooth="yes"/>
      <point x="197.85399999999998" y="295.438"/>
      <point x="188.936" y="315.40200000000004"/>
      <point x="188.936" y="341.026" type="curve" smooth="yes"/>
      <point x="188.936" y="440.958"/>
      <point x="261.628" y="517.8559999999999"/>
    </contour>
  </outline>
</glyph>
<glyph name="asciitilde" format="2">
  <advance width="449.828"/>
  <unicode hex="007E"/>
  <outline>
    <contour>
      <point x="385.496" y="249.98999999999998" type="curve"/>
      <point x="396.44" y="321.52399999999994" type="line"/>
      <point x="371.91200000000003" y="297.18"/>
      <point x="347.944" y="282.322"/>
      <point x="317.99600000000004" y="282.322" type="curve" smooth="yes"/>
      <point x="245.34" y="282.322"/>
      <point x="219.40400000000002" y="382.64"/>
      <point x="150.20000000000002" y="382.64" type="curve" smooth="yes"/>
      <point x="116.63000000000001" y="382.64"/>
      <point x="89.58800000000001" y="364.59599999999995"/>
      <point x="72.694" y="347.65999999999997" type="curve"/>
      <point x="61.129999999999995" y="275.85" type="line"/>
      <point x="81.89599999999999" y="295.46"/>
      <point x="106.374" y="313.78400000000005"/>
      <point x="139.04999999999998" y="313.78400000000005" type="curve" smooth="yes"/>
      <point x="207.80400000000003" y="313.78400000000005"/>
      <point x="233.134" y="213.46599999999998"/>
      <point x="309.492" y="213.46599999999998" type="curve" smooth="yes"/>
      <point x="338.726" y="213.46599999999998"/>
      <point x="363.216" y="227.38400000000001"/>
    </contour>
  </outline>
</glyph>
<glyph name="cent" format="2">
  <advance width="597.204"/>
  <unicode hex="00A2"/>
  <outline>
    <contour>
      <point x="238.248" y="-105.062" type="line"/>
      <point x="300.826" y="-105.062" type="line"/>
      <point x="316.136" y="-8.111999999999998" type="line"/>
      <point x="374.286" y="-5.326"/>
      <point x="423.688" y="3.8340000000000005"/>
      <point x="454.552" y="13.308000000000002" type="curve"/>
      <point x="451.93" y="80.23200000000001" type="line"/>
      <point x="414.76000000000005" y="71.59800000000001"/>
      <point x="361.92800000000005" y="61.802"/>
      <point x="321.04" y="61.802" type="curve" smooth="yes"/>
      <point x="231.216" y="61.802"/>
      <point x="189.13799999999998" y="107.44"/>
      <point x="189.13799999999998" y="188.87" type="curve" smooth="yes"/>
      <point x="189.13799999999998" y="348.262"/>
      <point x="267.56399999999996" y="472.764"/>
      <point x="386.00600000000003" y="472.764" type="curve" smooth="yes"/>
      <point x="431.64599999999996" y="472.764"/>
      <point x="467.424" y="464.88599999999997"/>
      <point x="504.43800000000005" y="454.60400000000004" type="curve"/>
      <point x="527.096" y="525.4219999999999" type="line"/>
      <point x="490.4" y="535.898"/>
      <point x="453.998" y="543.636"/>
      <point x="406.42600000000004" y="544.856" type="curve"/>
      <point x="422.27400000000006" y="641.014" type="line"/>
      <point x="359.696" y="641.014" type="line"/>
      <point x="343.104" y="539.62" type="line"/>
      <point x="194.85800000000003" y="516.948"/>
      <point x="107.394" y="359.488"/>
      <point x="107.394" y="167.43" type="curve" smooth="yes"/>
      <point x="107.394" y="53.282000000000004"/>
      <point x="167.086" y="4.706"/>
      <point x="253.30200000000002" y="-4.908" type="curve"/>
    </contour>
  </outline>
</glyph>
<glyph name="sterling" format="2">
  <advance width="597.948"/>
  <unicode hex="00A3"/>
  <outline>
    <contour>
      <point x="55.98800000000001" y="0.0" type="line"/>
      <point x="481.56" y="0.0" type="line"/>
      <point x="492.00000000000006" y="67.74000000000001" type="line"/>
      <point x="161.096" y="67.74000000000001" type="line"/>
      <point x="230.73600000000002" y="134.924"/>
      <point x="269.08" y="194.92799999999997"/>
      <point x="269.08" y="284.504" type="curve" smooth="yes"/>
      <point x="269.08" y="342.28"/>
      <point x="239.952" y="398.912"/>
      <point x="239.952" y="458.39599999999996" type="curve" smooth="yes"/>
      <point x="239.952" y="583.928"/>
      <point x="319.88399999999996" y="638.2239999999999"/>
      <point x="410.408" y="638.2239999999999" type="curve" smooth="yes"/>
      <point x="459.24399999999997" y="638.2239999999999"/>
      <point x="504.74" y="631.8439999999999"/>
      <point x="554.5519999999999" y="614.312" type="curve"/>
      <point x="578.2040000000001" y="679.28" type="line"/>
      <point x="524.04" y="700.988"/>
      <point x="466.14000000000004" y="710.0"/>
      <point x="411.828" y="710.0" type="curve" smooth="yes"/>
      <point x="275.92" y="710.0"/>
      <point x="163.52" y="626.3319999999999"/>
      <point x="163.52" y="470.31600000000003" type="curve" smooth="yes"/>
      <point x="163.52" y="392.18800000000005"/>
      <point x="194.27999999999997" y="346.05199999999996"/>
      <point x="194.27999999999997" y="277.87199999999996" type="curve" smooth="yes"/>
      <point x="194.27999999999997" y="184.43599999999998"/>
      <point x="139.46800000000002" y="122.636"/>
      <point x="63.263999999999996" y="55.959999999999994" type="curve"/>
    </contour>
    <contour>
      <point x="89.38000000000001" y="329.88800000000003" type="line"/>
      <point x="465.18399999999997" y="330.192" type="line"/>
      <point x="474.384" y="391.048" type="line"/>
      <point x="98.58" y="391.048" type="line"/>
    </contour>
  </outline>
</glyph>
<glyph name="currency" format="2">
  <advance width="413.576"/>
  <unicode hex="00A4"/>
  <outline>
    <contour>
      <point x="54.55000000000001" y="105.994" type="line"/>
      <point x="129.906" y="177.212" type="line"/>
      <point x="144.764" y="162.792"/>
      <point x="165.024" y="155.078"/>
      <point x="189.196" y="155.078" type="curve" smooth="yes"/>
      <point x="212.96800000000002" y="155.078"/>
      <point x="236.202" y="163.068"/>
      <point x="255.98600000000002" y="177.15" type="curve"/>
      <point x="309.568" y="105.994" type="line"/>
      <point x="357.504" y="151.05599999999998" type="line"/>
      <point x="307.07" y="218.182" type="line"/>
      <point x="328.27600000000007" y="243.854"/>
      <point x="342.432" y="277.62600000000003"/>
      <point x="342.80400000000003" y="314.51599999999996" type="curve" smooth="yes"/>
      <point x="343.17600000000004" y="334.14799999999997"/>
      <point x="338.91200000000003" y="352.448"/>
      <point x="331.012" y="368.002" type="curve"/>
      <point x="402.366" y="435.128" type="line"/>
      <point x="368.95000000000005" y="480.19" type="line"/>
      <point x="293.442" y="409.592" type="line"/>
      <point x="278.198" y="423.95"/>
      <point x="257.262" y="432.53999999999996"/>
      <point x="233.18" y="432.53999999999996" type="curve" smooth="yes"/>
      <point x="208.822" y="432.53999999999996"/>
      <point x="185.616" y="423.764"/>
      <point x="165.70800000000003" y="409.53" type="curve"/>
      <point x="113.80799999999999" y="480.19" type="line"/>
      <point x="66.328" y="435.128" type="line"/>
      <point x="115.18199999999999" y="368.106" type="line"/>
      <point x="93.82399999999998" y="342.854"/>
      <point x="80.544" y="309.806"/>
      <point x="80.172" y="273.75" type="curve" smooth="yes"/>
      <point x="79.8" y="252.78"/>
      <point x="83.878" y="233.694"/>
      <point x="91.902" y="217.80200000000002" type="curve"/>
      <point x="21.342" y="151.05599999999998" type="line"/>
    </contour>
    <contour>
      <point x="197.97" y="206.388" type="curve" smooth="yes"/>
      <point x="158.324" y="206.388"/>
      <point x="131.184" y="237.21200000000002"/>
      <point x="131.742" y="279.16200000000003" type="curve" smooth="yes"/>
      <point x="132.3" y="334.58"/>
      <point x="177.702" y="381.044"/>
      <point x="225.15800000000002" y="381.044" type="curve" smooth="yes"/>
      <point x="265.342" y="381.044"/>
      <point x="291.882" y="349.69"/>
      <point x="291.324" y="308.098" type="curve" smooth="yes"/>
      <point x="290.766" y="252.35"/>
      <point x="246.144" y="206.388"/>
    </contour>
  </outline>
</glyph>
<glyph name="yen" format="2">
  <advance width="598.1"/>
  <unicode hex="00A5"/>
  <outline>
    <contour>
      <point x="113.32000000000001" y="334.62" type="line"/>
      <point x="269.3" y="334.62" type="line"/>
      <point x="253.98" y="240.42000000000002" type="line"/>
      <point x="99.0" y="240.42000000000002" type="line"/>
      <point x="90.66" y="189.18" type="line"/>
      <point x="246.02" y="189.18" type="line"/>
      <point x="216.26" y="0.0" type="line"/>
      <point x="298.12" y="0.0" type="line"/>
      <point x="328.5" y="189.18" type="line"/>
      <point x="487.48" y="189.18" type="line"/>
      <point x="494.81999999999994" y="240.42000000000002" type="line"/>
      <point x="335.84000000000003" y="240.42000000000002" type="line"/>
      <point x="351.15999999999997" y="334.62" type="line"/>
      <point x="509.76" y="334.62" type="line"/>
      <point x="518.1" y="385.0" type="line"/>
      <point x="360.12" y="385.0" type="line"/>
      <point x="590.54" y="698.24" type="line"/>
      <point x="508.34" y="705.52" type="line"/>
      <point x="327.08" y="438.96" type="line"/>
      <point x="225.51999999999998" y="702.76" type="line"/>
      <point x="141.56" y="698.24" type="line"/>
      <point x="277.26000000000005" y="385.0" type="line"/>
      <point x="122.28" y="385.0" type="line"/>
    </contour>
  </outline>
</glyph>
<glyph name="brokenbar" format="2">
  <advance width="201.368"/>
  <unicode hex="00A6"/>
  <outline>
    <contour>
      <point x="151.13" y="391.0" type="line"/>
      <point x="215.62599999999998" y="790.1859999999999" type="line"/>
      <point x="150.81599999999997" y="790.1859999999999" type="line"/>
      <point x="86.32000000000001" y="391.0" type="line"/>
    </contour>
    <contour>
      <point x="54.638" y="190.186" type="line"/>
      <point x="-9.257999999999997" y="-210.0" type="line"/>
      <point x="55.428000000000004" y="-210.0" type="line"/>
      <point x="119.51" y="190.186" type="line"/>
    </contour>
  </outline>
</glyph>
<glyph name="section" format="2">
  <advance width="476.428"/>
  <unicode hex="00A7"/>
  <outline>
    <contour>
      <point x="8.696" y="-98.376" type="curve"/>
      <point x="-23.416" y="-169.556" type="line"/>
      <point x="21.311999999999998" y="-202.67399999999998"/>
      <point x="70.596" y="-220.0"/>
      <point x="125.69" y="-220.0" type="curve" smooth="yes"/>
      <point x="285.97" y="-220.0"/>
      <point x="417.25600000000003" y="-68.94200000000001"/>
      <point x="417.25600000000003" y="133.198" type="curve" smooth="yes"/>
      <point x="417.25600000000003" y="302.566"/>
      <point x="307.36199999999997" y="419.74"/>
      <point x="307.36199999999997" y="556.862" type="curve" smooth="yes"/>
      <point x="307.36199999999997" y="621.888"/>
      <point x="338.642" y="669.154"/>
      <point x="392.722" y="669.154" type="curve" smooth="yes"/>
      <point x="413.44399999999996" y="669.154"/>
      <point x="429.84799999999996" y="663.146"/>
      <point x="448.55400000000003" y="654.89" type="curve"/>
      <point x="474.78999999999996" y="730.0079999999999" type="line"/>
      <point x="442.74399999999997" y="742.8140000000001"/>
      <point x="397.93199999999996" y="749.1859999999999"/>
      <point x="359.81600000000003" y="749.1859999999999" type="curve" smooth="yes"/>
      <point x="190.436" y="749.1859999999999"/>
      <point x="64.754" y="602.608"/>
      <point x="64.754" y="397.11" type="curve" smooth="yes"/>
      <point x="64.754" y="213.2"/>
      <point x="172.694" y="82.80199999999999"/>
      <point x="172.694" y="-38.132" type="curve" smooth="yes"/>
      <point x="172.694" y="-97.51599999999999"/>
      <point x="137.42000000000002" y="-138.952"/>
      <point x="93.68199999999999" y="-138.952" type="curve" smooth="yes"/>
      <point x="62.897999999999996" y="-138.952"/>
      <point x="32.688" y="-121.47000000000001"/>
    </contour>
    <contour>
      <point x="322.642" y="696.822" type="curve"/>
      <point x="271.264" y="667.5060000000001"/>
      <point x="249.19400000000002" y="608.6080000000001"/>
      <point x="249.19400000000002" y="549.748" type="curve" smooth="yes"/>
      <point x="249.19400000000002" y="396.31600000000003"/>
      <point x="355.422" y="273.06"/>
      <point x="355.422" y="115.278" type="curve" smooth="yes"/>
      <point x="355.422" y="-34.076"/>
      <point x="264.642" y="-172.674"/>
      <point x="140.518" y="-174.596" type="curve"/>
      <point x="201.274" y="-150.17"/>
      <point x="232.048" y="-83.878"/>
      <point x="232.048" y="-20.685999999999996" type="curve" smooth="yes"/>
      <point x="232.048" y="112.47200000000001"/>
      <point x="128.332" y="245.04"/>
      <point x="128.332" y="401.72" type="curve" smooth="yes"/>
      <point x="128.332" y="553.7040000000001"/>
      <point x="198.964" y="677.3499999999999"/>
    </contour>
  </outline>
</glyph>
<glyph name="copyright" format="2">
  <advance width="672.1179999999999"/>
  <unicode hex="00A9"/>
  <outline>
    <contour>
      <point x="313.736" y="-10.248000000000001" type="curve" smooth="yes"/>
      <point x="537.848" y="-10.744"/>
      <point x="635.6139999999999" y="179.20799999999997"/>
      <point x="635.6139999999999" y="413.69800000000004" type="curve" smooth="yes"/>
      <point x="635.6139999999999" y="592.656"/>
      <point x="556.3359999999999" y="709.1940000000001"/>
      <point x="383.746" y="709.69" type="curve" smooth="yes"/>
      <point x="161.30800000000002" y="710.1860000000001"/>
      <point x="60.318" y="522.714"/>
      <point x="60.318" y="285.992" type="curve" smooth="yes"/>
      <point x="60.318" y="107.778"/>
      <point x="139.1" y="-9.752"/>
    </contour>
    <contour>
      <point x="338.96200000000005" y="160.236" type="curve" smooth="yes"/>
      <point x="375.356" y="160.236"/>
      <point x="411.60999999999996" y="167.972"/>
      <point x="438.392" y="177.886" type="curve"/>
      <point x="434.656" y="224.53" type="line"/>
      <point x="410.618" y="216.91"/>
      <point x="381.068" y="211.786"/>
      <point x="352.67199999999997" y="211.786" type="curve" smooth="yes"/>
      <point x="302.198" y="211.786"/>
      <point x="271.22" y="243.136"/>
      <point x="271.22" y="292.4" type="curve" smooth="yes"/>
      <point x="271.22" y="392.582"/>
      <point x="320.052" y="480.20599999999996"/>
      <point x="391.55" y="480.20599999999996" type="curve" smooth="yes"/>
      <point x="419.17" y="480.20599999999996"/>
      <point x="441.798" y="477.33"/>
      <point x="467.604" y="469.95" type="curve"/>
      <point x="482.28400000000005" y="521.5619999999999" type="line"/>
      <point x="457.16" y="529.81"/>
      <point x="427.688" y="534.174"/>
      <point x="393.488" y="534.174" type="curve" smooth="yes"/>
      <point x="291.38999999999993" y="534.174"/>
      <point x="213.66400000000002" y="433.972"/>
      <point x="213.66400000000002" y="291.168" type="curve" smooth="yes"/>
      <point x="213.66400000000002" y="206.24200000000002"/>
      <point x="259.794" y="160.236"/>
    </contour>
    <contour>
      <point x="318.15399999999994" y="26.732" type="curve" smooth="yes"/>
      <point x="166.30599999999998" y="26.732"/>
      <point x="99.90199999999999" y="125.024"/>
      <point x="99.90199999999999" y="289.116" type="curve" smooth="yes"/>
      <point x="99.90199999999999" y="495.74"/>
      <point x="177.5" y="672.958"/>
      <point x="379.514" y="672.958" type="curve" smooth="yes"/>
      <point x="528.8820000000001" y="672.958"/>
      <point x="596.03" y="574.418"/>
      <point x="596.03" y="410.822" type="curve" smooth="yes"/>
      <point x="596.03" y="204.69399999999996"/>
      <point x="519.672" y="26.732"/>
    </contour>
  </outline>
</glyph>
<glyph name="ordfeminine" format="2">
  <advance width="352.61600000000004"/>
  <unicode hex="00AA"/>
  <outline>
    <contour>
      <point x="39.568" y="266.83399999999995" type="line"/>
      <point x="307.09000000000003" y="266.83399999999995" type="line"/>
      <point x="314.182" y="311.16200000000003" type="line"/>
      <point x="46.660000000000004" y="311.16200000000003" type="line"/>
    </contour>
    <component base="a.superior" xOffset="11.588000000000001"/>
  </outline>
</glyph>
<glyph name="logicalnot" format="2">
  <advance width="445.8"/>
  <unicode hex="00AC"/>
  <outline>
    <contour>
      <point x="62.854" y="355.874" type="line"/>
      <point x="342.56" y="355.874" type="line"/>
      <point x="314.424" y="174.272" type="line"/>
      <point x="379.462" y="174.272" type="line"/>
      <point x="418.53400000000005" y="421.614" type="line"/>
      <point x="73.79" y="421.614" type="line"/>
    </contour>
  </outline>
</glyph>
<glyph name="registered" format="2">
  <advance width="588.92"/>
  <unicode hex="00AE"/>
  <outline>
    <contour>
      <point x="291.28200000000004" y="209.504" type="curve" smooth="yes"/>
      <point x="478.79" y="209.504"/>
      <point x="589.8499999999999" y="398.47"/>
      <point x="589.8499999999999" y="652.666" type="curve" smooth="yes"/>
      <point x="589.8499999999999" y="801.996"/>
      <point x="519.17" y="893.124"/>
      <point x="383.452" y="893.124" type="curve" smooth="yes"/>
      <point x="195.94400000000002" y="893.124"/>
      <point x="87.13199999999999" y="703.158"/>
      <point x="87.13199999999999" y="449.962" type="curve" smooth="yes"/>
      <point x="87.13199999999999" y="300.88"/>
      <point x="155.316" y="209.504"/>
    </contour>
    <contour>
      <point x="294.01000000000005" y="243.298" type="curve" smooth="yes"/>
      <point x="178.902" y="243.298"/>
      <point x="123.422" y="324.04"/>
      <point x="123.422" y="450.28" type="curve" smooth="yes"/>
      <point x="123.422" y="683.586"/>
      <point x="217.04999999999998" y="858.578"/>
      <point x="380.97200000000004" y="858.578" type="curve" smooth="yes"/>
      <point x="496.08" y="858.578"/>
      <point x="553.56" y="778.588"/>
      <point x="553.56" y="651.348" type="curve" smooth="yes"/>
      <point x="553.56" y="418.04200000000003"/>
      <point x="457.684" y="243.298"/>
    </contour>
    <contour>
      <point x="210.24800000000002" y="389.41400000000004" type="line"/>
      <point x="260.976" y="389.41400000000004" type="line"/>
      <point x="281.36400000000003" y="516.4240000000001" type="line"/>
      <point x="300.43600000000004" y="515.044"/>
      <point x="316.716" y="513.4159999999999"/>
      <point x="342.93600000000004" y="514.23" type="curve"/>
      <point x="368.73" y="523.112" type="line"/>
      <point x="432.706" y="531.2059999999999"/>
      <point x="469.46999999999997" y="572.244"/>
      <point x="469.46999999999997" y="641.62" type="curve" smooth="yes"/>
      <point x="469.46999999999997" y="701.65"/>
      <point x="436.25399999999996" y="725.4080000000001"/>
      <point x="359.854" y="725.4080000000001" type="curve" smooth="yes"/>
      <point x="329.668" y="725.4080000000001"/>
      <point x="301.624" y="724.222"/>
      <point x="263.154" y="719.9739999999999" type="curve"/>
    </contour>
    <contour>
      <point x="335.468" y="553.674" type="curve" smooth="yes"/>
      <point x="319.474" y="553.674"/>
      <point x="306.74399999999997" y="554.4879999999999"/>
      <point x="287.898" y="555.24" type="curve"/>
      <point x="306.666" y="678.9879999999999" type="line"/>
      <point x="329.682" y="681.306"/>
      <point x="337.07" y="682.306"/>
      <point x="358.234" y="682.306" type="curve" smooth="yes"/>
      <point x="402.012" y="682.306"/>
      <point x="418.99799999999993" y="669.352"/>
      <point x="418.99799999999993" y="637.28" type="curve" smooth="yes"/>
      <point x="418.99799999999993" y="583.3480000000001"/>
      <point x="396.214" y="553.674"/>
    </contour>
    <contour>
      <point x="440.81600000000003" y="386.36" type="curve" smooth="yes"/>
      <point x="442.746" y="386.36"/>
      <point x="448.722" y="386.732"/>
      <point x="453.086" y="388.29" type="curve"/>
      <point x="459.61199999999997" y="436.654" type="line"/>
      <point x="457.116" y="436.026"/>
      <point x="455.116" y="436.026"/>
      <point x="453.682" y="436.026" type="curve" smooth="yes"/>
      <point x="433.16200000000003" y="436.026"/>
      <point x="406.534" y="468.718"/>
      <point x="384.25399999999996" y="537.7539999999999" type="curve"/>
      <point x="333.154" y="524.896" type="line"/>
      <point x="371.23" y="417.49999999999994"/>
      <point x="403.39199999999994" y="386.36"/>
    </contour>
  </outline>
</glyph>
<glyph name="degree" format="2">
  <advance width="265.77"/>
  <unicode hex="00B0"/>
  <outline>
    <contour>
      <point x="164.3" y="466.432" type="curve" smooth="yes"/>
      <point x="238.512" y="466.432"/>
      <point x="288.464" y="541.246"/>
      <point x="288.464" y="622.998" type="curve" smooth="yes"/>
      <point x="288.464" y="678.0920000000001"/>
      <point x="261.04" y="722.1719999999999"/>
      <point x="202.35600000000002" y="722.1719999999999" type="curve" smooth="yes"/>
      <point x="127.902" y="722.1719999999999"/>
      <point x="78.254" y="645.232"/>
      <point x="78.254" y="564.032" type="curve" smooth="yes"/>
      <point x="78.254" y="509.422"/>
      <point x="105.946" y="466.432"/>
    </contour>
    <contour>
      <point x="172.26000000000002" y="523.508" type="curve" smooth="yes"/>
      <point x="144.97799999999998" y="523.508"/>
      <point x="130.87800000000001" y="545.072"/>
      <point x="130.87800000000001" y="574.7679999999999" type="curve" smooth="yes"/>
      <point x="130.87800000000001" y="621.71"/>
      <point x="156.858" y="664.3520000000001"/>
      <point x="194.27200000000002" y="664.3520000000001" type="curve" smooth="yes"/>
      <point x="222.44400000000002" y="664.3520000000001"/>
      <point x="235.992" y="641.808"/>
      <point x="235.992" y="611.8979999999999" type="curve" smooth="yes"/>
      <point x="235.992" y="565.6800000000001"/>
      <point x="209.426" y="523.508"/>
    </contour>
  </outline>
</glyph>
<glyph name="plusminus" format="2">
  <advance width="446.876"/>
  <unicode hex="00B1"/>
  <outline>
    <contour>
      <point x="361.998" y="50.936" type="line"/>
      <point x="372.93399999999997" y="118.94999999999999" type="line"/>
      <point x="232.644" y="118.94999999999999" type="line"/>
      <point x="259.664" y="289.452" type="line"/>
      <point x="399.54" y="289.452" type="line"/>
      <point x="410.476" y="357.46600000000007" type="line"/>
      <point x="270.6" y="357.46600000000007" type="line"/>
      <point x="298.454" y="523.29" type="line"/>
      <point x="230.44000000000003" y="523.29" type="line"/>
      <point x="202.75199999999998" y="357.46600000000007" type="line"/>
      <point x="62.42" y="357.46600000000007" type="line"/>
      <point x="51.484" y="289.452" type="line"/>
      <point x="191.65" y="289.452" type="line"/>
      <point x="164.382" y="118.94999999999999" type="line"/>
      <point x="24.878000000000004" y="118.94999999999999" type="line"/>
      <point x="13.942000000000002" y="50.936" type="line"/>
    </contour>
  </outline>
</glyph>
<glyph name="uni00B2" format="2">
  <advance width="351.3"/>
  <unicode hex="00B2"/>
  <outline>
    <contour>
      <point x="53.940000000000005" y="368.558" type="line"/>
      <point x="325.546" y="368.558" type="line"/>
      <point x="331.568" y="409.738" type="line"/>
      <point x="138.476" y="409.738" type="line"/>
      <point x="241.068" y="499.672"/>
      <point x="334.986" y="585.256"/>
      <point x="334.986" y="685.622" type="curve" smooth="yes"/>
      <point x="334.986" y="742.698"/>
      <point x="295.45399999999995" y="772.558"/>
      <point x="236.068" y="772.558" type="curve" smooth="yes"/>
      <point x="194.93" y="772.558"/>
      <point x="147.444" y="758.1940000000001"/>
      <point x="112.60000000000001" y="735.512" type="curve"/>
      <point x="125.74599999999998" y="692.876" type="line"/>
      <point x="157.43599999999998" y="712.768"/>
      <point x="187.196" y="722.4580000000001"/>
      <point x="217.15" y="722.4580000000001" type="curve" smooth="yes"/>
      <point x="253.88799999999998" y="722.4580000000001"/>
      <point x="274.28399999999993" y="702.116"/>
      <point x="274.28399999999993" y="666.308" type="curve" smooth="yes"/>
      <point x="273.47" y="586.63"/>
      <point x="181.856" y="500.45000000000005"/>
      <point x="58.156" y="403.142" type="curve"/>
    </contour>
  </outline>
</glyph>
<glyph name="uni00B3" format="2">
  <advance width="349.87"/>
  <unicode hex="00B3"/>
  <outline>
    <contour>
      <point x="39.24" y="399.9" type="line"/>
      <point x="73.64999999999999" y="375.07"/>
      <point x="121.13" y="364.0"/>
      <point x="167.02" y="364.0" type="curve" smooth="yes"/>
      <point x="270.85" y="364.0"/>
      <point x="344.59000000000003" y="409.56"/>
      <point x="344.59000000000003" y="490.86" type="curve" smooth="yes"/>
      <point x="344.59000000000003" y="535.0"/>
      <point x="321.59000000000003" y="566.59"/>
      <point x="288.59" y="576.14" type="curve"/>
      <point x="328.0" y="592.3100000000001"/>
      <point x="358.23999999999995" y="621.9300000000001"/>
      <point x="358.23999999999995" y="673.5500000000001" type="curve" smooth="yes"/>
      <point x="358.23999999999995" y="730.93"/>
      <point x="312.10999999999996" y="772.93"/>
      <point x="231.19" y="772.93" type="curve" smooth="yes"/>
      <point x="187.06" y="772.93"/>
      <point x="145.14" y="764.76"/>
      <point x="109.76" y="748.4499999999999" type="curve"/>
      <point x="117.69" y="709.34" type="line"/>
      <point x="148.69" y="721.48"/>
      <point x="183.79" y="727.17"/>
      <point x="217.48" y="727.17" type="curve" smooth="yes"/>
      <point x="270.52" y="727.17"/>
      <point x="302.49" y="702.99"/>
      <point x="302.49" y="660.32" type="curve" smooth="yes"/>
      <point x="302.49" y="615.03"/>
      <point x="265.69" y="594.37"/>
      <point x="217.38" y="594.37" type="curve" smooth="yes"/>
      <point x="148.34" y="594.37" type="line"/>
      <point x="141.99999999999997" y="557.36" type="line"/>
      <point x="207.42000000000002" y="557.36" type="line" smooth="yes"/>
      <point x="264.28" y="557.36"/>
      <point x="291.7" y="537.0799999999999"/>
      <point x="291.7" y="490.65" type="curve" smooth="yes"/>
      <point x="291.7" y="439.21999999999997"/>
      <point x="244.76000000000002" y="407.90000000000003"/>
      <point x="164.71" y="407.90000000000003" type="curve" smooth="yes"/>
      <point x="125.33" y="407.90000000000003"/>
      <point x="90.78" y="418.35"/>
      <point x="62.400000000000006" y="438.01" type="curve"/>
    </contour>
  </outline>
</glyph>
<glyph name="uni00B5" format="2">
  <advance width="510.37200000000007"/>
  <unicode hex="00B5"/>
  <outline>
    <contour>
      <point x="-11.087999999999997" y="-210.0" type="line"/>
      <point x="66.46000000000001" y="-210.0" type="line"/>
      <point x="104.38" y="29.854" type="line"/>
      <point x="114.22400000000002" y="4.2"/>
      <point x="138.22" y="-10.0"/>
      <point x="175.37400000000002" y="-10.0" type="curve" smooth="yes"/>
      <point x="230.93800000000002" y="-10.0"/>
      <point x="280.17" y="9.408000000000001"/>
      <point x="336.8500000000001" y="47.599999999999994" type="curve"/>
      <point x="343.23800000000006" y="9.92"/>
      <point x="368.762" y="-10.0"/>
      <point x="406.486" y="-10.0" type="curve" smooth="yes"/>
      <point x="424.158" y="-10.0"/>
      <point x="450.52200000000005" y="-3.672000000000001"/>
      <point x="468.282" y="7.378" type="curve"/>
      <point x="469.22799999999995" y="63.56" type="line"/>
      <point x="458.22600000000006" y="59.428000000000004"/>
      <point x="447.078" y="57.358000000000004"/>
      <point x="441.504" y="57.358000000000004" type="curve" smooth="yes"/>
      <point x="421.436" y="57.358000000000004"/>
      <point x="412.186" y="68.416"/>
      <point x="412.186" y="93.13199999999999" type="curve" smooth="yes"/>
      <point x="412.186" y="102.976"/>
      <point x="414.014" y="122.43"/>
      <point x="480.398" y="536.2" type="curve"/>
      <point x="402.098" y="536.2" type="line"/>
      <point x="334.48" y="101.836" type="line"/>
      <point x="284.462" y="73.336"/>
      <point x="238.746" y="57.275999999999996"/>
      <point x="192.06199999999998" y="57.275999999999996" type="curve" smooth="yes"/>
      <point x="144.29600000000002" y="57.275999999999996"/>
      <point x="120.386" y="81.18"/>
      <point x="120.75800000000001" y="121.01" type="curve" smooth="yes"/>
      <point x="125.036" y="157.37399999999997"/>
      <point x="138.92600000000002" y="253.69199999999998"/>
      <point x="184.04399999999998" y="536.2" type="curve"/>
      <point x="105.834" y="536.2" type="line"/>
    </contour>
  </outline>
</glyph>
<glyph name="paragraph" format="2">
  <advance width="547.066"/>
  <unicode hex="00B6"/>
  <outline>
    <contour>
      <point x="341.36400000000003" y="-210.0" type="line"/>
      <point x="402.516" y="-210.0" type="line"/>
      <point x="553.1980000000001" y="740.0" type="line"/>
      <point x="492.04600000000005" y="740.0" type="line"/>
    </contour>
    <contour>
      <point x="222.15" y="248.94400000000002" type="line"/>
      <point x="164.494" y="259.11199999999997"/>
      <point x="127.544" y="310.98799999999994"/>
      <point x="127.544" y="389.918" type="curve" smooth="yes"/>
      <point x="127.544" y="534.3240000000001"/>
      <point x="196.14399999999998" y="669.172"/>
      <point x="332.85200000000003" y="672.8560000000001" type="curve"/>
      <point x="193.354" y="-210.0" type="line"/>
      <point x="254.50600000000003" y="-210.0" type="line"/>
      <point x="405.188" y="740.0" type="line"/>
      <point x="363.24800000000005" y="740.0" type="line" smooth="yes"/>
      <point x="169.05" y="740.0"/>
      <point x="60.38400000000001" y="586.426"/>
      <point x="60.38400000000001" y="386.402" type="curve" smooth="yes"/>
      <point x="60.38400000000001" y="281.698"/>
      <point x="112.27399999999999" y="211.704"/>
      <point x="206.3" y="196.078" type="curve"/>
    </contour>
  </outline>
</glyph>
<glyph name="periodcentered" format="2">
  <advance width="180.3"/>
  <unicode hex="00B7"/>
  <outline>
    <contour>
      <point x="46.928000000000004" y="286.556" type="curve" smooth="yes"/>
      <point x="45.699999999999996" y="260.916"/>
      <point x="56.456" y="250.16"/>
      <point x="85.512" y="250.16" type="curve" smooth="yes"/>
      <point x="124.464" y="250.16"/>
      <point x="138.48399999999998" y="274.1"/>
      <point x="140.01600000000002" y="310.38400000000007" type="curve" smooth="yes"/>
      <point x="141.244" y="335.79600000000005"/>
      <point x="130.096" y="346.78"/>
      <point x="101.66" y="346.78" type="curve" smooth="yes"/>
      <point x="63.948" y="346.78"/>
      <point x="48.46" y="322.22"/>
    </contour>
  </outline>
</glyph>
<glyph name="uni00B9" format="2">
  <advance width="335.218"/>
  <unicode hex="00B9"/>
  <outline>
    <contour>
      <point x="45.494" y="370.0" type="line"/>
      <point x="328.052" y="370.0" type="line"/>
      <point x="335.074" y="412.64000000000004" type="line"/>
      <point x="231.25799999999998" y="412.64000000000004" type="line"/>
      <point x="289.31" y="768.332" type="line"/>
      <point x="257.878" y="768.332" type="line"/>
      <point x="92.234" y="690.706" type="line"/>
      <point x="98.826" y="644.968" type="line"/>
      <point x="222.196" y="704.532" type="line"/>
      <point x="174.206" y="412.64000000000004" type="line"/>
      <point x="52.282" y="412.64000000000004" type="line"/>
    </contour>
  </outline>
</glyph>
<glyph name="ordmasculine" format="2">
  <advance width="332.342"/>
  <unicode hex="00BA"/>
  <outline>
    <contour>
      <point x="36.91799999999999" y="266.83399999999995" type="line"/>
      <point x="289.52599999999995" y="266.83399999999995" type="line"/>
      <point x="296.204" y="311.16200000000003" type="line"/>
      <point x="43.596000000000004" y="311.16200000000003" type="line"/>
    </contour>
    <component base="o.superior" xOffset="12.14"/>
  </outline>
</glyph>
<glyph name="AE" format="2">
  <advance width="841.172"/>
  <unicode hex="00C6"/>
  <anchor x="388.475488" y="0.0" name="bottom"/>
  <anchor x="513.352" y="700.0" name="top"/>
  <outline>
    <contour>
      <point x="344.428" y="0.0" type="line"/>
      <point x="768.956" y="0.0" type="line"/>
      <point x="780.0160000000001" y="71.08" type="line"/>
      <point x="432.14799999999997" y="71.08" type="line"/>
      <point x="471.06399999999996" y="316.13599999999997" type="line"/>
      <point x="773.8679999999999" y="316.13599999999997" type="line"/>
      <point x="785.5480000000001" y="387.216" type="line"/>
      <point x="482.7439999999999" y="387.216" type="line"/>
      <point x="520.8" y="628.92" type="line"/>
      <point x="852.592" y="628.92" type="line"/>
      <point x="864.5" y="700.0" type="line"/>
      <point x="403.97600000000006" y="700.0" type="line"/>
      <point x="-39.556000000000004" y="0.0" type="line"/>
      <point x="53.656" y="0.0" type="line"/>
      <point x="222.11200000000002" y="269.636" type="line"/>
      <point x="386.344" y="269.636" type="line"/>
    </contour>
    <contour>
      <point x="260.45599999999996" y="335.136" type="line"/>
      <point x="442.67199999999997" y="630.096" type="line"/>
      <point x="396.784" y="335.136" type="line"/>
    </contour>
  </outline>
</glyph>
<glyph name="multiply" format="2">
  <advance width="421.2559999999999"/>
  <unicode hex="00D7"/>
  <outline>
    <contour>
      <point x="69.584" y="93.74" type="line"/>
      <point x="209.16" y="252.18399999999997" type="line"/>
      <point x="293.87199999999996" y="94.652" type="line"/>
      <point x="345.21199999999993" y="143.472" type="line"/>
      <point x="259.35999999999996" y="300.86800000000005" type="line"/>
      <point x="400.508" y="463.352" type="line"/>
      <point x="361.088" y="511.08399999999995" type="line"/>
      <point x="223.232" y="352.80400000000003" type="line"/>
      <point x="135.28" y="511.084" type="line"/>
      <point x="83.94" y="463.50399999999996" type="line"/>
      <point x="172.184" y="303.108" type="line"/>
      <point x="30.164" y="140.852" type="line"/>
    </contour>
  </outline>
</glyph>
<glyph name="Oslash" format="2">
  <advance width="647.36"/>
  <unicode hex="00D8"/>
  <anchor x="378.44" y="700.0" name="top"/>
  <outline>
    <contour>
      <point x="678.22" y="710.0" type="line"/>
      <point x="605.48" y="710.0" type="line"/>
      <point x="522.0600000000001" y="610.48" type="line"/>
      <point x="519.82" y="611.1" type="line"/>
      <point x="117.53999999999999" y="138.76" type="line"/>
      <point x="115.3" y="139.38" type="line"/>
      <point x="-8.540000000000001" y="-6.9" type="line"/>
      <point x="64.44" y="-6.9" type="line"/>
      <point x="146.76000000000002" y="90.9" type="line"/>
      <point x="149.0" y="90.28" type="line"/>
      <point x="553.28" y="565.24" type="line"/>
      <point x="555.5200000000001" y="564.62" type="line"/>
    </contour>
    <contour>
      <point x="296.82" y="-8.76" type="curve" smooth="yes"/>
      <point x="498.84000000000003" y="-8.76"/>
      <point x="617.7" y="166.68"/>
      <point x="617.7" y="421.7" type="curve" smooth="yes"/>
      <point x="617.7" y="605.1800000000001"/>
      <point x="532.12" y="708.76"/>
      <point x="373.09999999999997" y="708.76" type="curve" smooth="yes"/>
      <point x="171.07999999999998" y="708.76"/>
      <point x="52.22" y="533.9399999999999"/>
      <point x="52.22" y="277.68" type="curve" smooth="yes"/>
      <point x="52.22" y="94.2"/>
      <point x="137.8" y="-8.76"/>
    </contour>
    <contour>
      <point x="302.64" y="60.08" type="curve" smooth="yes"/>
      <point x="201.39999999999998" y="60.08"/>
      <point x="134.46" y="129.18"/>
      <point x="134.46" y="270.14000000000004" type="curve" smooth="yes"/>
      <point x="134.46" y="498.62"/>
      <point x="224.14000000000001" y="639.92"/>
      <point x="369.76" y="639.92" type="curve" smooth="yes"/>
      <point x="469.14" y="639.92"/>
      <point x="535.46" y="570.82"/>
      <point x="535.46" y="429.86" type="curve" smooth="yes"/>
      <point x="535.46" y="213.78"/>
      <point x="447.02000000000004" y="60.08"/>
    </contour>
  </outline>
</glyph>
<glyph name="Thorn" format="2">
  <advance width="579.85"/>
  <unicode hex="00DE"/>
  <outline>
    <contour>
      <point x="24.910000000000004" y="0.0" type="line"/>
      <point x="105.28999999999999" y="0.0" type="line"/>
      <point x="129.64000000000001" y="150.24" type="line"/>
      <point x="188.16" y="147.62"/>
      <point x="223.55" y="147.31"/>
      <point x="275.39" y="147.31" type="curve" smooth="yes"/>
      <point x="465.40000000000003" y="147.31"/>
      <point x="568.4300000000001" y="237.85000000000002"/>
      <point x="568.4300000000001" y="429.46000000000004" type="curve" smooth="yes"/>
      <point x="568.4300000000001" y="547.86"/>
      <point x="499.95" y="619.1999999999999"/>
      <point x="327.8" y="619.1999999999999" type="curve" smooth="yes"/>
      <point x="302.07" y="619.1999999999999"/>
      <point x="267.65" y="618.2"/>
      <point x="202.77" y="614.75" type="curve"/>
      <point x="216.53" y="700.0" type="line"/>
      <point x="136.15" y="700.0" type="line"/>
    </contour>
    <contour>
      <point x="270.6" y="214.29" type="curve" smooth="yes"/>
      <point x="218.64999999999998" y="214.29"/>
      <point x="190.4" y="214.98"/>
      <point x="140.70000000000002" y="217.98" type="curve"/>
      <point x="192.4" y="546.46" type="line"/>
      <point x="262.93" y="550.84"/>
      <point x="290.63000000000005" y="551.84"/>
      <point x="322.63" y="551.84" type="curve" smooth="yes"/>
      <point x="440.83000000000004" y="551.84"/>
      <point x="487.12" y="500.11"/>
      <point x="487.12" y="417.95" type="curve" smooth="yes"/>
      <point x="487.12" y="278.82"/>
      <point x="416.14" y="214.29"/>
    </contour>
  </outline>
</glyph>
<glyph name="germandbls" format="2">
  <advance width="588.16"/>
  <unicode hex="00DF"/>
  <outline>
    <contour>
      <point x="40.04" y="-39.339999999999996" type="line" smooth="yes"/>
      <point x="28.519999999999996" y="-109.08"/>
      <point x="7.999999999999998" y="-151.29999999999998"/>
      <point x="-39.21999999999999" y="-151.29999999999998" type="curve" smooth="yes"/>
      <point x="-52.36000000000001" y="-151.29999999999998"/>
      <point x="-66.5" y="-149.3"/>
      <point x="-84.02" y="-143.54" type="curve"/>
      <point x="-101.66" y="-206.66" type="line"/>
      <point x="-79.46" y="-216.14"/>
      <point x="-51.12" y="-220.0"/>
      <point x="-25.820000000000007" y="-220.0" type="curve" smooth="yes"/>
      <point x="56.3" y="-220.0"/>
      <point x="98.83999999999999" y="-160.17999999999998"/>
      <point x="116.31999999999998" y="-48.67999999999999" type="curve" smooth="yes"/>
      <point x="205.35999999999999" y="512.2199999999999" type="line" smooth="yes"/>
      <point x="224.02" y="627.6600000000001"/>
      <point x="276.64" y="684.26"/>
      <point x="379.86" y="684.26" type="curve" smooth="yes"/>
      <point x="442.94" y="684.26"/>
      <point x="475.36000000000007" y="661.94"/>
      <point x="475.36000000000007" y="621.34" type="curve" smooth="yes"/>
      <point x="475.36000000000007" y="581.74"/>
      <point x="451.69999999999993" y="558.0799999999999"/>
      <point x="380.62" y="528.52" type="curve" smooth="yes"/>
      <point x="293.62" y="492.23999999999995"/>
      <point x="252.04000000000005" y="454.66"/>
      <point x="252.04000000000005" y="377.98" type="curve" smooth="yes"/>
      <point x="252.04000000000005" y="309.67999999999995"/>
      <point x="294.76000000000005" y="272.96000000000004"/>
      <point x="386.14" y="238.02" type="curve" smooth="yes"/>
      <point x="462.18" y="208.70000000000002"/>
      <point x="490.08000000000004" y="187.04"/>
      <point x="490.08000000000004" y="145.02" type="curve" smooth="yes"/>
      <point x="490.08000000000004" y="91.89999999999999"/>
      <point x="433.86" y="53.019999999999996"/>
      <point x="352.17999999999995" y="53.019999999999996" type="curve" smooth="yes"/>
      <point x="303.56" y="53.019999999999996"/>
      <point x="243.08" y="64.78"/>
      <point x="198.08" y="81.54" type="curve"/>
      <point x="178.54" y="22.0" type="line"/>
      <point x="227.01999999999998" y="2.6199999999999997"/>
      <point x="289.64" y="-10.0"/>
      <point x="347.7" y="-10.0" type="curve" smooth="yes"/>
      <point x="488.54" y="-10.0"/>
      <point x="565.88" y="50.38"/>
      <point x="565.88" y="153.35999999999999" type="curve" smooth="yes"/>
      <point x="565.88" y="219.70000000000002"/>
      <point x="528.02" y="260.52"/>
      <point x="439.74" y="294.84000000000003" type="curve" smooth="yes"/>
      <point x="354.35999999999996" y="328.02000000000004"/>
      <point x="325.6" y="347.34"/>
      <point x="325.6" y="386.94" type="curve" smooth="yes"/>
      <point x="325.6" y="429.29999999999995"/>
      <point x="354.12000000000006" y="448.47999999999996"/>
      <point x="433.74" y="482.14000000000004" type="curve" smooth="yes"/>
      <point x="518.6800000000001" y="518.46"/>
      <point x="549.54" y="554.66"/>
      <point x="549.54" y="626.58" type="curve" smooth="yes"/>
      <point x="549.54" y="705.32"/>
      <point x="488.42" y="750.0"/>
      <point x="384.06000000000006" y="750.0" type="curve" smooth="yes"/>
      <point x="228.58" y="750.0"/>
      <point x="155.32000000000002" y="677.5200000000001"/>
      <point x="129.7" y="523.9" type="curve" smooth="yes"/>
      <point x="124.94" y="492.68" type="line"/>
      <point x="41.480000000000004" y="483.82" type="line"/>
      <point x="31.040000000000003" y="428.03999999999996" type="line"/>
      <point x="113.74000000000001" y="428.03999999999996" type="line"/>
    </contour>
  </outline>
</glyph>
<glyph name="ae" format="2">
  <advance width="803.32"/>
  <unicode hex="00E6"/>
  <anchor x="364.92" y="0.0" name="bottom"/>
  <anchor x="440.88" y="536.2" name="top"/>
  <outline>
    <contour>
      <point x="179.27999999999997" y="-10.0" type="curve" smooth="yes"/>
      <point x="233.32" y="-10.0"/>
      <point x="284.98" y="9.52"/>
      <point x="323.84" y="36.379999999999995" type="curve"/>
      <point x="316.84" y="-3.7600000000000007" type="line"/>
      <point x="388.78000000000003" y="-3.7600000000000007" type="line"/>
      <point x="405.58" y="98.94" type="line"/>
      <point x="425.64000000000004" y="32.46"/>
      <point x="480.92" y="-9.38"/>
      <point x="568.14" y="-9.38" type="curve" smooth="yes"/>
      <point x="625.9" y="-9.38"/>
      <point x="692.32" y="3.7600000000000002"/>
      <point x="741.94" y="26.380000000000003" type="curve"/>
      <point x="731.22" y="88.88" type="line"/>
      <point x="679.94" y="68.74"/>
      <point x="630.8199999999999" y="56.36"/>
      <point x="578.1999999999999" y="56.36" type="curve" smooth="yes"/>
      <point x="482.78" y="56.36"/>
      <point x="427.64" y="111.67999999999999"/>
      <point x="427.64" y="200.6" type="curve" smooth="yes"/>
      <point x="427.64" y="359.92"/>
      <point x="507.17999999999995" y="483.56"/>
      <point x="624.8" y="483.56" type="curve" smooth="yes"/>
      <point x="685.58" y="483.56"/>
      <point x="715.66" y="461.24"/>
      <point x="715.66" y="418.78000000000003" type="curve" smooth="yes"/>
      <point x="715.66" y="357.42"/>
      <point x="652.16" y="316.64"/>
      <point x="545.1" y="295.88" type="curve" smooth="yes"/>
      <point x="500.64000000000004" y="286.74"/>
      <point x="454.04" y="284.74"/>
      <point x="412.09999999999997" y="287.12" type="curve"/>
      <point x="407.62000000000006" y="233.16" type="line"/>
      <point x="452.76" y="229.16"/>
      <point x="509.17999999999995" y="231.16"/>
      <point x="563.18" y="241.54000000000002" type="curve" smooth="yes"/>
      <point x="708.8000000000001" y="264.91999999999996"/>
      <point x="793.8000000000001" y="334.26"/>
      <point x="793.8000000000001" y="429.46000000000004" type="curve" smooth="yes"/>
      <point x="793.8000000000001" y="501.76"/>
      <point x="741.32" y="546.2"/>
      <point x="650.98" y="546.2" type="curve" smooth="yes"/>
      <point x="568.48" y="546.2"/>
      <point x="497.26" y="507.94"/>
      <point x="458.21999999999997" y="437.46" type="curve"/>
      <point x="474.40000000000003" y="542.2" type="line"/>
      <point x="403.08" y="542.2" type="line"/>
      <point x="399.08" y="515.2" type="line"/>
      <point x="369.18" y="535.82"/>
      <point x="331.52" y="546.2"/>
      <point x="291.90000000000003" y="546.2" type="curve" smooth="yes"/>
      <point x="139.7" y="546.2"/>
      <point x="26.42" y="395.24"/>
      <point x="26.42" y="170.34" type="curve" smooth="yes"/>
      <point x="26.42" y="53.24"/>
      <point x="83.28" y="-10.0"/>
    </contour>
    <contour>
      <point x="212.89999999999998" y="53.26" type="curve" smooth="yes"/>
      <point x="148.73999999999998" y="53.26"/>
      <point x="107.42" y="95.1"/>
      <point x="107.42" y="181.26" type="curve" smooth="yes"/>
      <point x="107.42" y="359.1"/>
      <point x="202.58" y="483.94"/>
      <point x="302.91999999999996" y="483.94" type="curve" smooth="yes"/>
      <point x="335.86" y="483.94"/>
      <point x="364.32" y="477.66"/>
      <point x="390.50000000000006" y="458.62" type="curve"/>
      <point x="332.42" y="91.86" type="line"/>
      <point x="298.48" y="68.68"/>
      <point x="253.12" y="53.26"/>
    </contour>
  </outline>
</glyph>
<glyph name="eth" format="2">
  <advance width="526.8399999999999"/>
  <unicode hex="00F0"/>
  <outline>
    <contour>
      <point x="441.34000000000003" y="423.1" type="curve"/>
      <point x="452.78000000000003" y="481.78000000000003" type="line"/>
      <point x="413.16" y="516.58"/>
      <point x="355.64000000000004" y="532.76"/>
      <point x="300.42" y="532.76" type="curve" smooth="yes"/>
      <point x="133.78" y="532.76"/>
      <point x="31.700000000000003" y="378.28000000000003"/>
      <point x="31.700000000000003" y="189.26" type="curve" smooth="yes"/>
      <point x="31.700000000000003" y="52.18000000000001"/>
      <point x="110.05999999999999" y="-9.38"/>
      <point x="217.77999999999997" y="-9.38" type="curve" smooth="yes"/>
      <point x="362.32" y="-9.38"/>
      <point x="453.62" y="82.42"/>
      <point x="492.1" y="303.78000000000003" type="curve" smooth="yes"/>
      <point x="502.62" y="364.47999999999996"/>
      <point x="507.62" y="412.38"/>
      <point x="507.62" y="458.42" type="curve" smooth="yes"/>
      <point x="507.62" y="637.5999999999999"/>
      <point x="398.40000000000003" y="725.5"/>
      <point x="223.07999999999998" y="725.5" type="curve" smooth="yes"/>
      <point x="179.5" y="725.5"/>
      <point x="140.4" y="719.02"/>
      <point x="97.74" y="710.64" type="curve"/>
      <point x="98.25999999999999" y="656.6800000000001" type="line"/>
      <point x="138.1" y="663.58"/>
      <point x="165.48000000000002" y="669.0600000000001"/>
      <point x="212.16" y="669.0600000000001" type="curve" smooth="yes"/>
      <point x="358.02" y="669.0600000000001"/>
      <point x="428.1" y="601.56"/>
      <point x="428.1" y="470.68" type="curve" smooth="yes"/>
      <point x="428.1" y="423.6"/>
      <point x="423.72" y="374.56"/>
      <point x="412.96" y="316.18" type="curve" smooth="yes"/>
      <point x="377.2" y="120.7"/>
      <point x="318.08" y="51.4"/>
      <point x="223.12" y="51.4" type="curve" smooth="yes"/>
      <point x="150.2" y="51.4"/>
      <point x="108.97999999999999" y="98.0"/>
      <point x="108.97999999999999" y="183.92000000000002" type="curve" smooth="yes"/>
      <point x="108.97999999999999" y="347.81999999999994"/>
      <point x="192.52" y="473.6"/>
      <point x="311.2" y="473.6" type="curve" smooth="yes"/>
      <point x="359.84" y="473.6"/>
      <point x="404.92" y="457.8"/>
    </contour>
    <contour>
      <point x="213.4" y="562.26" type="line"/>
      <point x="391.44" y="649.66" type="line"/>
      <point x="387.82" y="651.52" type="line"/>
      <point x="549.88" y="731.64" type="line"/>
      <point x="458.28" y="731.64" type="line"/>
      <point x="346.44" y="676.9200000000001" type="line"/>
      <point x="349.68000000000006" y="675.0600000000001" type="line"/>
      <point x="124.90000000000002" y="562.26" type="line"/>
    </contour>
  </outline>
</glyph>
<glyph name="divide" format="2">
  <advance width="447.51599999999996"/>
  <unicode hex="00F7"/>
  <outline>
    <contour>
      <point x="156.368" y="101.68799999999999" type="curve" smooth="yes"/>
      <point x="155.368" y="82.376"/>
      <point x="165.504" y="74.328"/>
      <point x="190.612" y="74.328" type="curve" smooth="yes"/>
      <point x="223.036" y="74.328"/>
      <point x="237.44799999999998" y="85.86800000000001"/>
      <point x="239.82800000000003" y="125.60799999999998" type="curve" smooth="yes"/>
      <point x="240.82800000000003" y="145.148"/>
      <point x="229.616" y="152.968"/>
      <point x="205.35599999999997" y="152.968" type="curve" smooth="yes"/>
      <point x="172.76799999999997" y="152.968"/>
      <point x="158.748" y="138.32799999999997"/>
    </contour>
    <contour>
      <point x="216.8" y="475.33199999999994" type="curve" smooth="yes"/>
      <point x="215.8" y="456.64000000000004"/>
      <point x="225.31599999999997" y="447.972"/>
      <point x="251.044" y="447.972" type="curve" smooth="yes"/>
      <point x="283.4680000000001" y="447.972"/>
      <point x="297.26" y="460.132"/>
      <point x="299.64" y="499.25199999999995" type="curve" smooth="yes"/>
      <point x="300.64" y="519.4119999999999"/>
      <point x="290.048" y="527.232"/>
      <point x="265.16799999999995" y="527.232" type="curve" smooth="yes"/>
      <point x="231.96" y="527.232"/>
      <point x="219.18" y="511.352"/>
    </contour>
    <contour>
      <point x="47.988" y="265.97999999999996" type="line"/>
      <point x="396.41599999999994" y="265.97999999999996" type="line"/>
      <point x="408.24800000000005" y="335.58000000000004" type="line"/>
      <point x="59.199999999999996" y="335.58000000000004" type="line"/>
    </contour>
  </outline>
</glyph>
<glyph name="oslash" format="2">
  <advance width="497.28"/>
  <unicode hex="00F8"/>
  <anchor x="286.02000000000004" y="536.2" name="top"/>
  <outline>
    <contour>
      <point x="447.52" y="546.82" type="line"/>
      <point x="391.42" y="476.24" type="line"/>
      <point x="389.18" y="477.48" type="line"/>
      <point x="88.46000000000001" y="102.61999999999999" type="line"/>
      <point x="85.60000000000001" y="104.48" type="line"/>
      <point x="-6.439999999999999" y="-10.0" type="line"/>
      <point x="55.620000000000005" y="-10.0" type="line"/>
      <point x="118.53999999999999" y="68.63999999999999" type="line"/>
      <point x="121.4" y="67.4" type="line"/>
      <point x="417.78" y="437.29999999999995" type="line"/>
      <point x="420.02" y="435.44" type="line"/>
      <point x="509.5799999999999" y="546.82" type="line"/>
    </contour>
    <contour>
      <point x="226.9" y="-10.0" type="curve" smooth="yes"/>
      <point x="391.49999999999994" y="-10.0"/>
      <point x="467.72" y="161.58000000000004"/>
      <point x="467.72" y="355.8" type="curve" smooth="yes"/>
      <point x="467.72" y="483.5799999999999"/>
      <point x="398.17999999999995" y="546.82"/>
      <point x="278.72" y="546.82" type="curve" smooth="yes"/>
      <point x="111.54" y="546.82"/>
      <point x="35.42" y="364.28000000000003"/>
      <point x="35.42" y="179.02" type="curve" smooth="yes"/>
      <point x="35.42" y="51.72"/>
      <point x="101.34" y="-10.0"/>
    </contour>
    <contour>
      <point x="225.8" y="53.26" type="curve" smooth="yes"/>
      <point x="153.5" y="52.64"/>
      <point x="113.32" y="89.62"/>
      <point x="112.69999999999999" y="174.34" type="curve" smooth="yes"/>
      <point x="111.46" y="312.6"/>
      <point x="165.08" y="482.32"/>
      <point x="277.72" y="483.55999999999995" type="curve" smooth="yes"/>
      <point x="347.26" y="484.17999999999995"/>
      <point x="388.58" y="443.44"/>
      <point x="389.2" y="360.1" type="curve" smooth="yes"/>
      <point x="390.44" y="209.40000000000003"/>
      <point x="336.47999999999996" y="54.5"/>
    </contour>
  </outline>
</glyph>
<glyph name="thorn" format="2">
  <advance width="506.27000000000004"/>
  <unicode hex="00FE"/>
  <outline>
    <contour>
      <point x="-11.468" y="-210.0" type="line"/>
      <point x="66.328" y="-210.0" type="line"/>
      <point x="100.156" y="2.8640000000000003" type="line"/>
      <point x="126.746" y="-3.7579999999999996"/>
      <point x="160.16199999999998" y="-9.69"/>
      <point x="200.61400000000003" y="-9.69" type="curve" smooth="yes"/>
      <point x="374.98" y="-9.69"/>
      <point x="479.36600000000004" y="161.21"/>
      <point x="479.36600000000004" y="365.82800000000003" type="curve" smooth="yes"/>
      <point x="479.36600000000004" y="484.756"/>
      <point x="430.33200000000005" y="546.2"/>
      <point x="337.74800000000005" y="546.2" type="curve" smooth="yes"/>
      <point x="273.508" y="546.2"/>
      <point x="225.712" y="520.9580000000001"/>
      <point x="176.43" y="487.68000000000006" type="curve"/>
      <point x="216.43200000000002" y="740.0" type="line"/>
      <point x="138.532" y="740.0" type="line"/>
    </contour>
    <contour>
      <point x="194.792" y="53.536" type="curve" smooth="yes"/>
      <point x="160.816" y="53.536"/>
      <point x="132.36" y="59.676"/>
      <point x="110.286" y="66.43599999999999" type="curve"/>
      <point x="167.57399999999998" y="427.17" type="line"/>
      <point x="211.52" y="457.73400000000004"/>
      <point x="257.77399999999994" y="476.154"/>
      <point x="300.268" y="476.154" type="curve" smooth="yes"/>
      <point x="366.24999999999994" y="476.154"/>
      <point x="399.91600000000005" y="433.90000000000003"/>
      <point x="399.91600000000005" y="346.742" type="curve" smooth="yes"/>
      <point x="399.91600000000005" y="195.39"/>
      <point x="320.13" y="53.536"/>
    </contour>
  </outline>
</glyph>
<glyph name="Dcroat" format="2">
  <advance width="633.0640000000001"/>
  <unicode hex="0110"/>
  <outline>
    <contour>
      <point x="18.735999999999997" y="325.56800000000004" type="line"/>
      <point x="297.78000000000003" y="325.56800000000004" type="line"/>
      <point x="309.46" y="391.08000000000004" type="line"/>
      <point x="30.72" y="391.08000000000004" type="line"/>
    </contour>
    <component base="D" xOffset="6.556"/>
  </outline>
</glyph>
<glyph name="dcroat" format="2">
  <advance width="514.084"/>
  <unicode hex="0111"/>
  <outline>
    <contour>
      <point x="272.064" y="612.484" type="line"/>
      <point x="568.72" y="612.484" type="line"/>
      <point x="576.6800000000001" y="657.7" type="line"/>
      <point x="280.02399999999994" y="657.7" type="line"/>
    </contour>
    <component base="d"/>
  </outline>
</glyph>
<glyph name="Hbar" format="2">
  <advance width="641.532"/>
  <unicode hex="0126"/>
  <outline>
    <contour>
      <point x="51.141999999999996" y="499.58799999999997" type="line"/>
      <point x="662.266" y="499.58799999999997" type="line"/>
      <point x="671.734" y="559.864" type="line"/>
      <point x="60.61" y="559.864" type="line"/>
    </contour>
    <component base="H" xOffset="1.7440000000000002"/>
  </outline>
</glyph>
<glyph name="hbar" format="2">
  <advance width="516.52"/>
  <unicode hex="0127"/>
  <outline>
    <contour>
      <point x="50.508" y="612.484" type="line"/>
      <point x="334.29200000000003" y="612.484" type="line"/>
      <point x="341.632" y="657.7" type="line"/>
      <point x="57.848000000000006" y="657.7" type="line"/>
    </contour>
    <component base="h" xOffset="0.6200000000000001"/>
  </outline>
</glyph>
<glyph name="Idotaccent" format="2">
  <advance width="219.448"/>
  <unicode hex="0130"/>
  <outline>
    <contour>
      <point x="206.26400000000004" y="879.97" type="curve" smooth="yes"/>
      <point x="166.25199999999998" y="879.97"/>
      <point x="151.418" y="860.4799999999999"/>
      <point x="149.9" y="819.87" type="curve" smooth="yes"/>
      <point x="149.48600000000002" y="797.5759999999999"/>
      <point x="163.628" y="788.124"/>
      <point x="189.87400000000002" y="788.124" type="curve" smooth="yes"/>
      <point x="227.98000000000002" y="788.124"/>
      <point x="244.872" y="806.2500000000001"/>
      <point x="246.66600000000003" y="848.81" type="curve" smooth="yes"/>
      <point x="247.08" y="870.7040000000001"/>
      <point x="233.58" y="879.97"/>
    </contour>
    <component base="I"/>
  </outline>
</glyph>
<glyph name="dotlessi" format="2">
  <advance width="207.708"/>
  <unicode hex="0131"/>
  <anchor x="59.657056" y="0.0" name="bottom"/>
  <anchor x="99.30000000000001" y="0.0" name="ogonek"/>
  <anchor x="144.87694399999998" y="536.2" name="top"/>
  <outline>
    <contour>
      <point x="99.30000000000001" y="0.0" type="line"/>
      <point x="184.106" y="536.2" type="line"/>
      <point x="105.772" y="536.2" type="line"/>
      <point x="21.132" y="0.124" type="line"/>
    </contour>
  </outline>
</glyph>
<glyph name="kgreenlandic" format="2">
  <advance width="473.68"/>
  <unicode hex="0138"/>
  <anchor x="206.17999999999998" y="0.0" name="bottom"/>
  <anchor x="285.65999999999997" y="536.2" name="top"/>
  <outline>
    <contour>
      <point x="21.36" y="0.0" type="line"/>
      <point x="100.5" y="0.0" type="line"/>
      <point x="185.35999999999999" y="536.2" type="line"/>
      <point x="105.60000000000001" y="536.2" type="line"/>
    </contour>
    <contour>
      <point x="407.46" y="-10.0" type="curve" smooth="yes"/>
      <point x="417.93999999999994" y="-10.0"/>
      <point x="428.41999999999996" y="-8.0"/>
      <point x="438.52" y="-4.38" type="curve"/>
      <point x="444.68" y="67.66" type="line"/>
      <point x="438.06" y="66.28"/>
      <point x="431.44" y="65.9"/>
      <point x="425.82" y="65.9" type="curve" smooth="yes"/>
      <point x="392.72" y="65.89999999999999"/>
      <point x="356.61999999999995" y="95.07999999999998"/>
      <point x="277.44" y="202.71999999999997" type="curve" smooth="yes"/>
      <point x="148.88" y="375.12" type="line"/>
      <point x="129.96" y="291.64" type="line"/>
      <point x="250.35999999999999" y="123.26" type="line" smooth="yes"/>
      <point x="321.82" y="24.24"/>
      <point x="360.64000000000004" y="-10.0"/>
    </contour>
    <contour>
      <point x="232.62" y="251.14" type="line"/>
      <point x="345.04" y="320.96000000000004"/>
      <point x="440.94" y="427.54"/>
      <point x="489.5" y="535.58" type="curve"/>
      <point x="410.26" y="545.82" type="line"/>
      <point x="356.42" y="434.5"/>
      <point x="295.86" y="363.08"/>
      <point x="184.79999999999998" y="293.8" type="curve"/>
    </contour>
  </outline>
</glyph>
<glyph name="Ldot" format="2">
  <advance width="474.926"/>
  <unicode hex="013F"/>
  <outline>
    <contour>
      <point x="324.985628" y="371.02093199999996" type="curve" smooth="yes"/>
      <point x="323.88162800000003" y="348.73017200000004"/>
      <point x="333.459132" y="339.772854"/>
      <point x="358.79383" y="339.772854" type="curve" smooth="yes"/>
      <point x="391.791846" y="339.772854"/>
      <point x="404.013288" y="357.32437400000003"/>
      <point x="405.669288" y="389.51482400000003" type="curve" smooth="yes"/>
      <point x="406.773288" y="411.391646"/>
      <point x="397.609784" y="420.762964"/>
      <point x="372.52296199999995" y="420.762964" type="curve" smooth="yes"/>
      <point x="339.77300800000006" y="420.762964"/>
      <point x="326.641628" y="402.71538200000003"/>
    </contour>
    <component base="L"/>
  </outline>
</glyph>
<glyph name="ldot" format="2">
  <advance width="288.77200000000005"/>
  <unicode hex="0140"/>
  <outline>
    <contour>
      <point x="233.10843000000003" y="360.80764999999997" type="curve" smooth="yes"/>
      <point x="232.00442999999999" y="341.047668"/>
      <point x="239.24118599999997" y="333.53426800000005"/>
      <point x="259.61030400000004" y="333.53426800000005" type="curve" smooth="yes"/>
      <point x="287.01846199999994" y="333.53426800000005"/>
      <point x="295.51513" y="349.285184"/>
      <point x="297.17113" y="377.761276" type="curve" smooth="yes"/>
      <point x="298.27513" y="397.030688"/>
      <point x="291.452374" y="404.958088"/>
      <point x="271.27558" y="404.958088" type="curve" smooth="yes"/>
      <point x="244.059436" y="404.958088"/>
      <point x="234.76443" y="388.94807399999996"/>
    </contour>
    <component base="l"/>
  </outline>
</glyph>
<glyph name="Lslash" format="2">
  <advance width="480.386"/>
  <unicode hex="0141"/>
  <outline>
    <contour>
      <point x="29.68" y="0.0" type="line"/>
      <point x="422.886" y="0.0" type="line"/>
      <point x="434.56600000000003" y="70.398" type="line"/>
      <point x="121.368" y="70.398" type="line"/>
      <point x="154.636" y="280.366" type="line"/>
      <point x="361.412" y="406.532" type="line"/>
      <point x="374.154" y="483.26" type="line"/>
      <point x="167.00599999999997" y="356.908" type="line"/>
      <point x="221.61799999999997" y="700.0" type="line"/>
      <point x="141.362" y="700.0" type="line"/>
      <point x="79.686" y="312.828" type="line"/>
      <point x="18.448" y="274.228" type="line"/>
      <point x="6.098000000000001" y="197.706" type="line"/>
      <point x="66.902" y="236.18200000000002" type="line"/>
    </contour>
  </outline>
</glyph>
<glyph name="lslash" format="2">
  <advance width="251.42"/>
  <unicode hex="0142"/>
  <outline>
    <contour>
      <point x="2.902" y="185.57600000000002" type="line"/>
      <point x="247.76000000000002" y="382.984" type="line"/>
      <point x="258.704" y="453.268" type="line"/>
      <point x="13.536000000000003" y="255.86" type="line"/>
    </contour>
    <component base="l" xOffset="3.72"/>
  </outline>
</glyph>
<glyph name="Eng" format="2">
  <advance width="630.1600000000001"/>
  <unicode hex="014A"/>
  <outline>
    <contour>
      <point x="24.600000000000005" y="0.0" type="line"/>
      <point x="103.5" y="0.0" type="line"/>
      <point x="189.28" y="543.28" type="line"/>
      <point x="444.24000000000007" y="-0.9999999999999996" type="line"/>
      <point x="428.44" y="-81.38"/>
      <point x="377.9" y="-106.94"/>
      <point x="313.26" y="-106.94" type="curve" smooth="yes"/>
      <point x="287.46" y="-108.17999999999999"/>
      <point x="260.04" y="-105.89999999999999"/>
      <point x="229.18" y="-98.89999999999999" type="curve"/>
      <point x="214.88" y="-170.98" type="line"/>
      <point x="245.88000000000005" y="-178.6"/>
      <point x="280.74" y="-182.36"/>
      <point x="308.16" y="-182.36" type="curve" smooth="yes"/>
      <point x="429.26" y="-182.36"/>
      <point x="497.21999999999997" y="-121.84"/>
      <point x="517.4600000000002" y="5.939999999999999" type="curve" smooth="yes"/>
      <point x="628.94" y="700.0" type="line"/>
      <point x="550.42" y="700.0" type="line"/>
      <point x="463.4" y="146.89999999999998" type="line"/>
      <point x="211.39999999999998" y="702.76" type="line"/>
      <point x="136.22" y="702.76" type="line"/>
    </contour>
  </outline>
</glyph>
<glyph name="eng" format="2">
  <advance width="511.888"/>
  <unicode hex="014B"/>
  <outline>
    <contour>
      <point x="396.178" y="-37.812" type="curve" smooth="yes"/>
      <point x="432.17400000000004" y="193.44"/>
      <point x="472.038" y="426.49"/>
      <point x="472.038" y="443.85400000000004" type="curve" smooth="yes"/>
      <point x="472.038" y="506.12"/>
      <point x="431.814" y="546.2"/>
      <point x="353.984" y="546.2" type="curve" smooth="yes"/>
      <point x="289.51" y="546.2"/>
      <point x="235.01600000000002" y="524.1619999999999"/>
      <point x="169.424" y="488.58600000000007" type="curve"/>
      <point x="176.97600000000003" y="536.2" type="line"/>
      <point x="105.648" y="536.2" type="line"/>
      <point x="20.994000000000007" y="0.0" type="line"/>
      <point x="98.29400000000001" y="0.0" type="line"/>
      <point x="167.602" y="432.85999999999996" type="line"/>
      <point x="219.37" y="459.552"/>
      <point x="263.92199999999997" y="478.428"/>
      <point x="313.63599999999997" y="478.428" type="curve" smooth="yes"/>
      <point x="366.846" y="478.428"/>
      <point x="390.486" y="454.03400000000005"/>
      <point x="389.494" y="410.644" type="curve" smooth="yes"/>
      <point x="388.00600000000003" y="388.828"/>
      <point x="366.826" y="262.852"/>
      <point x="319.77400000000006" y="-34.61" type="curve" smooth="yes"/>
      <point x="308.482" y="-105.30799999999999"/>
      <point x="286.162" y="-147.492"/>
      <point x="236.262" y="-147.492" type="curve" smooth="yes"/>
      <point x="227.17600000000002" y="-147.492"/>
      <point x="216.84200000000004" y="-146.52599999999998"/>
      <point x="204.348" y="-142.29" type="curve"/>
      <point x="188.126" y="-214.904" type="line"/>
      <point x="203.77200000000002" y="-219.48399999999998"/>
      <point x="229.692" y="-221.656"/>
      <point x="248.588" y="-221.656" type="curve" smooth="yes"/>
      <point x="329.72999999999996" y="-221.656"/>
      <point x="377.334" y="-164.64"/>
    </contour>
  </outline>
</glyph>
<glyph name="OE" format="2">
  <advance width="931.12"/>
  <unicode hex="0152"/>
  <outline>
    <contour>
      <point x="858.9040000000001" y="0.0" type="line"/>
      <point x="870.5839999999998" y="71.08" type="line"/>
      <point x="522.248" y="71.08" type="line"/>
      <point x="562.064" y="327.28000000000003" type="line"/>
      <point x="872.464" y="327.28000000000003" type="line"/>
      <point x="884.7639999999999" y="398.36" type="line"/>
      <point x="573.744" y="398.36" type="line"/>
      <point x="610.9000000000001" y="628.92" type="line"/>
      <point x="942.54" y="628.92" type="line"/>
      <point x="954.448" y="700.0" type="line"/>
      <point x="619.58" y="700.0" type="line"/>
      <point x="555.848" y="704.2280000000001"/>
      <point x="485.50800000000004" y="710.0"/>
      <point x="415.89599999999996" y="710.0" type="curve" smooth="yes"/>
      <point x="197.11200000000002" y="710.0"/>
      <point x="45.636" y="525.116"/>
      <point x="45.636" y="234.09599999999998" type="curve" smooth="yes"/>
      <point x="45.636" y="66.692"/>
      <point x="127.24399999999999" y="-10.0"/>
      <point x="315.88399999999996" y="-10.0" type="curve" smooth="yes"/>
      <point x="377.132" y="-10.0"/>
      <point x="436.104" y="-5.532"/>
      <point x="506.784" y="0.0" type="curve"/>
    </contour>
    <contour>
      <point x="440.4" y="63.272" type="line"/>
      <point x="398.25600000000003" y="59.208000000000006"/>
      <point x="361.98799999999994" y="57.132"/>
      <point x="318.72" y="57.132" type="curve" smooth="yes"/>
      <point x="185.16" y="57.132"/>
      <point x="126.16799999999999" y="119.53999999999999"/>
      <point x="126.16799999999999" y="242.34799999999998" type="curve" smooth="yes"/>
      <point x="126.16799999999999" y="469.70000000000005"/>
      <point x="237.076" y="641.856"/>
      <point x="406.964" y="641.856" type="curve" smooth="yes"/>
      <point x="435.04" y="641.856"/>
      <point x="507.3160000000001" y="638.2479999999999"/>
      <point x="531.3679999999999" y="635.7919999999999" type="curve"/>
    </contour>
  </outline>
</glyph>
<glyph name="oe" format="2">
  <advance width="826.5"/>
  <unicode hex="0153"/>
  <outline>
    <contour>
      <point x="222.6" y="-10.0" type="curve" smooth="yes"/>
      <point x="302.5" y="-10.0"/>
      <point x="364.06" y="43.84"/>
      <point x="396.86" y="115.44000000000001" type="curve"/>
      <point x="418.22" y="36.879999999999995"/>
      <point x="476.98" y="-10.0"/>
      <point x="573.96" y="-10.0" type="curve" smooth="yes"/>
      <point x="637.3" y="-10.0"/>
      <point x="710.54" y="3.7600000000000002"/>
      <point x="765.1199999999999" y="26.380000000000003" type="curve"/>
      <point x="752.54" y="90.12" type="line"/>
      <point x="695.06" y="68.74"/>
      <point x="632.3" y="56.980000000000004"/>
      <point x="587.12" y="56.980000000000004" type="curve" smooth="yes"/>
      <point x="497.03999999999996" y="56.980000000000004"/>
      <point x="451.44" y="103.86"/>
      <point x="451.44" y="199.6" type="curve" smooth="yes"/>
      <point x="451.44" y="367.36"/>
      <point x="537.08" y="483.56"/>
      <point x="647.98" y="483.56" type="curve" smooth="yes"/>
      <point x="707.3800000000001" y="483.56"/>
      <point x="738.8399999999999" y="461.62"/>
      <point x="738.8399999999999" y="418.40000000000003" type="curve" smooth="yes"/>
      <point x="738.8399999999999" y="357.42"/>
      <point x="674.96" y="316.64"/>
      <point x="568.28" y="296.74" type="curve" smooth="yes"/>
      <point x="526.34" y="288.98"/>
      <point x="479.12" y="285.97999999999996"/>
      <point x="439.04" y="288.36" type="curve"/>
      <point x="433.56" y="232.78000000000003" type="line"/>
      <point x="482.12" y="230.16"/>
      <point x="537.16" y="232.54"/>
      <point x="585.7399999999999" y="240.54" type="curve" smooth="yes"/>
      <point x="731.36" y="264.92"/>
      <point x="816.98" y="334.64"/>
      <point x="816.98" y="429.46000000000004" type="curve" smooth="yes"/>
      <point x="816.98" y="501.76"/>
      <point x="758.3" y="546.2"/>
      <point x="656.8" y="546.2" type="curve" smooth="yes"/>
      <point x="561.1" y="546.2"/>
      <point x="486.26" y="497.08000000000004"/>
      <point x="441.64" y="421.8" type="curve"/>
      <point x="428.23999999999995" y="500.7"/>
      <point x="366.76" y="546.82"/>
      <point x="271.16" y="546.82" type="curve" smooth="yes"/>
      <point x="112.34" y="546.82"/>
      <point x="30.42" y="363.66"/>
      <point x="30.42" y="182.12" type="curve" smooth="yes"/>
      <point x="30.42" y="55.44"/>
      <point x="93.24" y="-10.0"/>
    </contour>
    <contour>
      <point x="225.84" y="53.260000000000005" type="curve" smooth="yes"/>
      <point x="145.4" y="53.260000000000005"/>
      <point x="108.32" y="92.72"/>
      <point x="107.69999999999999" y="177.44" type="curve" smooth="yes"/>
      <point x="106.46" y="320.66"/>
      <point x="168.98000000000002" y="482.94"/>
      <point x="267.68" y="483.56" type="curve" smooth="yes"/>
      <point x="345.36" y="483.56"/>
      <point x="384.20000000000005" y="440.34"/>
      <point x="384.82000000000005" y="357.0" type="curve" smooth="yes"/>
      <point x="386.06" y="211.26"/>
      <point x="322.58" y="53.88"/>
    </contour>
  </outline>
</glyph>
<glyph name="uni0162" format="2">
  <advance width="492.852"/>
  <unicode hex="0162"/>
  <anchor x="202.516954" y="0.0" name="_bottom"/>
  <anchor x="150.98400000000004" y="-220.0" name="bottom"/>
  <outline>
    <contour>
      <point x="77.44200000000001" y="-201.286" type="line"/>
      <point x="101.75800000000001" y="-214.62"/>
      <point x="124.93000000000002" y="-220.0"/>
      <point x="153.468" y="-220.0" type="curve" smooth="yes"/>
      <point x="222.82200000000003" y="-220.0"/>
      <point x="266.82" y="-165.408"/>
      <point x="266.82" y="-92.678" type="curve" smooth="yes"/>
      <point x="266.82" y="-54.443999999999996"/>
      <point x="252.93200000000002" y="-20.308"/>
      <point x="231.608" y="4.1080000000000005" type="curve"/>
      <point x="174.78400000000002" y="2.542" type="line"/>
      <point x="196.902" y="-24.368"/>
      <point x="208.03000000000003" y="-50.852000000000004"/>
      <point x="208.03000000000003" y="-84.446" type="curve" smooth="yes"/>
      <point x="208.03000000000003" y="-136.654"/>
      <point x="181.80800000000002" y="-164.84199999999998"/>
      <point x="143.03" y="-164.84199999999998" type="curve" smooth="yes"/>
      <point x="123.77600000000001" y="-164.84199999999998"/>
      <point x="107.39999999999999" y="-159.426"/>
      <point x="90.678" y="-149.77399999999997" type="curve"/>
    </contour>
    <component base="T"/>
  </outline>
</glyph>
